%FSLAX43Y43*%
%MOMM*%
G71*
G01*
G75*
G04 Layer_Color=16711935*
%ADD10R,1.016X1.270*%
%ADD11R,1.270X1.016*%
%ADD12R,2.032X2.032*%
%ADD13C,0.800*%
%ADD14C,0.254*%
%ADD15C,5.000*%
%ADD16C,1.778*%
%ADD17C,3.048*%
%ADD18R,3.048X3.048*%
%ADD19C,1.800*%
%ADD20C,1.270*%
%ADD21R,2.032X2.032*%
%ADD22C,0.051*%
%ADD23C,0.203*%
%ADD24C,0.305*%
%ADD25R,1.219X1.473*%
%ADD26R,1.473X1.219*%
%ADD27R,2.235X2.235*%
%ADD28C,5.203*%
%ADD29C,1.981*%
%ADD30C,3.251*%
%ADD31R,3.251X3.251*%
%ADD32C,2.003*%
%ADD33C,1.473*%
%ADD34R,2.235X2.235*%
G54D25*
X104902Y45720D02*
D03*
X102870D02*
D03*
X74422D02*
D03*
X72390D02*
D03*
G54D28*
X55000Y24000D02*
D03*
X111000D02*
D03*
Y85000D02*
D03*
X55000D02*
D03*
G54D29*
X77470Y82550D02*
D03*
Y85090D02*
D03*
X81280Y82550D02*
D03*
Y85090D02*
D03*
G54D30*
X83820Y49530D02*
D03*
Y35560D02*
D03*
Y62230D02*
D03*
Y76200D02*
D03*
G54D31*
Y44450D02*
D03*
Y30480D02*
D03*
Y57150D02*
D03*
Y71120D02*
D03*
G54D32*
X64790Y83820D02*
D03*
X62230D02*
D03*
X59670D02*
D03*
X95270D02*
D03*
X92710D02*
D03*
X90150D02*
D03*
G54D33*
X83820Y40640D02*
D03*
X84941Y82550D02*
D03*
X83820Y85090D02*
D03*
G54D34*
X64770Y45720D02*
D03*
X68199D02*
D03*
X96520D02*
D03*
X99949D02*
D03*
M02*
