%FSLAX43Y43*%
%MOMM*%
G71*
G01*
G75*
G04 Layer_Color=8421504*
%ADD10R,1.016X1.270*%
%ADD11R,1.270X1.016*%
%ADD12R,2.032X2.032*%
%ADD13C,0.800*%
%ADD14C,0.254*%
%ADD15C,5.000*%
%ADD16C,1.778*%
%ADD17C,3.048*%
%ADD18R,3.048X3.048*%
%ADD19C,1.800*%
%ADD20C,1.270*%
%ADD21R,2.032X2.032*%
%ADD22C,0.051*%
%ADD23C,0.203*%
%ADD24C,0.305*%
G54D10*
X87552Y87040D02*
D03*
X85520D02*
D03*
X71000Y84000D02*
D03*
X73032D02*
D03*
X66802Y33020D02*
D03*
X64770D02*
D03*
X89662D02*
D03*
X87630D02*
D03*
X97282D02*
D03*
X95250D02*
D03*
X104902D02*
D03*
X102870D02*
D03*
X66802Y40640D02*
D03*
X64770D02*
D03*
X74422D02*
D03*
X72390D02*
D03*
X89662D02*
D03*
X87630D02*
D03*
X97282D02*
D03*
X95250D02*
D03*
X104902D02*
D03*
X102870D02*
D03*
X89662Y48260D02*
D03*
X87630D02*
D03*
X97282D02*
D03*
X95250D02*
D03*
X104902D02*
D03*
X102870D02*
D03*
X66802Y55880D02*
D03*
X64770D02*
D03*
X74422D02*
D03*
X72390D02*
D03*
X89662D02*
D03*
X87630D02*
D03*
X97282D02*
D03*
X95250D02*
D03*
X104902D02*
D03*
X102870D02*
D03*
X74422Y63500D02*
D03*
X72390D02*
D03*
X89662D02*
D03*
X87630D02*
D03*
X97282D02*
D03*
X95250D02*
D03*
X104902D02*
D03*
X102870D02*
D03*
X74422Y71120D02*
D03*
X72390D02*
D03*
X89662D02*
D03*
X87630D02*
D03*
X97282D02*
D03*
X95250D02*
D03*
X104902D02*
D03*
X102870D02*
D03*
X74422Y78740D02*
D03*
X72390D02*
D03*
X89662D02*
D03*
X87630D02*
D03*
X97282D02*
D03*
X95250D02*
D03*
X59182Y71120D02*
D03*
X57150D02*
D03*
X59182Y78740D02*
D03*
X57150D02*
D03*
X59182Y63500D02*
D03*
X57150D02*
D03*
X59182Y48260D02*
D03*
X57150D02*
D03*
X59182Y40640D02*
D03*
X57150D02*
D03*
X59182Y55880D02*
D03*
X57150D02*
D03*
X59182Y33020D02*
D03*
X57150D02*
D03*
X66802Y78740D02*
D03*
X64770D02*
D03*
X66802Y71120D02*
D03*
X64770D02*
D03*
X66802Y63500D02*
D03*
X64770D02*
D03*
X66802Y48260D02*
D03*
X64770D02*
D03*
X74422D02*
D03*
X72390D02*
D03*
X74422Y33020D02*
D03*
X72390D02*
D03*
X104902Y78740D02*
D03*
X102870D02*
D03*
G54D11*
X68580Y83820D02*
D03*
Y81788D02*
D03*
X87630Y83312D02*
D03*
Y81280D02*
D03*
G54D12*
X107950Y58420D02*
D03*
Y61849D02*
D03*
X62230Y58420D02*
D03*
Y61849D02*
D03*
Y66040D02*
D03*
Y69469D02*
D03*
Y73660D02*
D03*
Y77089D02*
D03*
Y50800D02*
D03*
Y54229D02*
D03*
Y27940D02*
D03*
Y31369D02*
D03*
Y35560D02*
D03*
Y38989D02*
D03*
Y43180D02*
D03*
Y46609D02*
D03*
X69850Y73660D02*
D03*
Y77089D02*
D03*
Y66040D02*
D03*
Y69469D02*
D03*
Y58420D02*
D03*
Y61849D02*
D03*
Y50800D02*
D03*
Y54229D02*
D03*
Y27940D02*
D03*
Y31369D02*
D03*
Y35560D02*
D03*
Y38989D02*
D03*
Y43180D02*
D03*
Y46609D02*
D03*
X77470Y73660D02*
D03*
Y77089D02*
D03*
Y66040D02*
D03*
Y69469D02*
D03*
Y58420D02*
D03*
Y61849D02*
D03*
Y50800D02*
D03*
Y54229D02*
D03*
Y35560D02*
D03*
Y38989D02*
D03*
Y43180D02*
D03*
Y46609D02*
D03*
Y27940D02*
D03*
Y31369D02*
D03*
X92710Y73660D02*
D03*
Y77089D02*
D03*
Y58420D02*
D03*
Y61849D02*
D03*
Y50800D02*
D03*
Y54229D02*
D03*
X107950Y66040D02*
D03*
Y69469D02*
D03*
X100330Y58420D02*
D03*
Y61849D02*
D03*
X107950Y50800D02*
D03*
Y54229D02*
D03*
Y27940D02*
D03*
Y31369D02*
D03*
X92710Y27940D02*
D03*
Y31369D02*
D03*
Y43180D02*
D03*
Y46609D02*
D03*
Y35560D02*
D03*
Y38989D02*
D03*
Y66040D02*
D03*
Y69469D02*
D03*
X100330Y73660D02*
D03*
Y77089D02*
D03*
Y66040D02*
D03*
Y69469D02*
D03*
Y50800D02*
D03*
Y54229D02*
D03*
Y43180D02*
D03*
Y46609D02*
D03*
Y35560D02*
D03*
Y38989D02*
D03*
Y27940D02*
D03*
Y31369D02*
D03*
X107950Y73660D02*
D03*
Y77089D02*
D03*
Y43180D02*
D03*
Y46609D02*
D03*
Y35560D02*
D03*
Y38989D02*
D03*
M02*
