M48
;Layer_Color=9474304
;FILE_FORMAT=4:3
METRIC,TZ
;TYPE=PLATED
T1F00S00C0.711
T2F00S00C1.000
T3F00S00C1.016
T4F00S00C1.321
T5F00S00C4.000
%
T01
X83820Y40640
X84941Y82550
X83820Y85090
T02
X59670Y83820
X62230
X64790
X90150
X92710
X95270
T03
X77470Y82550
Y85090
X81280
Y82550
T04
X83820Y30480
Y35560
Y44450
Y49530
Y57150
Y62230
Y71120
Y76200
T05
X111000Y24000
X55000
Y85000
X111000
M30
