%FSLAX43Y43*%
%MOMM*%
G71*
G01*
G75*
%ADD10R,1.016X1.270*%
%ADD11R,1.270X1.016*%
%ADD12R,2.032X2.032*%
%ADD13C,0.800*%
%ADD14C,0.254*%
%ADD15C,5.000*%
%ADD16C,1.778*%
%ADD17C,3.048*%
%ADD18R,3.048X3.048*%
%ADD19C,1.800*%
%ADD20C,1.270*%
%ADD21R,2.032X2.032*%
%ADD22C,0.051*%
%ADD23C,0.203*%
%ADD24C,0.305*%
G54D14*
X80384Y86784D02*
Y88308D01*
X81146D01*
X81400Y88054D01*
Y87546D01*
X81146Y87292D01*
X80384D01*
X80892D02*
X81400Y86784D01*
X81908D02*
Y87800D01*
X82161D01*
X82415Y87546D01*
Y86784D01*
Y87546D01*
X82669Y87800D01*
X82923Y87546D01*
Y86784D01*
X84447D02*
X83431D01*
X84447Y87800D01*
Y88054D01*
X84193Y88308D01*
X83685D01*
X83431Y88054D01*
X70606Y85537D02*
Y87060D01*
X71368D01*
X71622Y86806D01*
Y86298D01*
X71368Y86045D01*
X70606D01*
X71114D02*
X71622Y85537D01*
X72130D02*
Y86552D01*
X72384D01*
X72638Y86298D01*
Y85537D01*
Y86298D01*
X72892Y86552D01*
X73145Y86298D01*
Y85537D01*
X73653D02*
X74161D01*
X73907D01*
Y87060D01*
X73653Y86806D01*
X67000Y21000D02*
Y22524D01*
X67762D01*
X68016Y22270D01*
Y21762D01*
X67762Y21508D01*
X67000D01*
X68524Y22016D02*
Y21000D01*
Y21508D01*
X68777Y21762D01*
X69031Y22016D01*
X69285D01*
X70301Y21000D02*
X70809D01*
X71063Y21254D01*
Y21762D01*
X70809Y22016D01*
X70301D01*
X70047Y21762D01*
Y21254D01*
X70301Y21000D01*
X71571Y20492D02*
X71824D01*
X72078Y20746D01*
Y22016D01*
X73856Y21000D02*
X73348D01*
X73094Y21254D01*
Y21762D01*
X73348Y22016D01*
X73856D01*
X74110Y21762D01*
Y21508D01*
X73094D01*
X74871Y22270D02*
Y22016D01*
X74618D01*
X75125D01*
X74871D01*
Y21254D01*
X75125Y21000D01*
X78426Y22524D02*
X77411D01*
Y21000D01*
X78426D01*
X77411Y21762D02*
X77918D01*
X78934Y21000D02*
X79442D01*
X79188D01*
Y22524D01*
X78934D01*
X80965Y21000D02*
X80458D01*
X80204Y21254D01*
Y21762D01*
X80458Y22016D01*
X80965D01*
X81219Y21762D01*
Y21508D01*
X80204D01*
X82743Y22016D02*
X81981D01*
X81727Y21762D01*
Y21254D01*
X81981Y21000D01*
X82743D01*
X84774D02*
Y22016D01*
X85282Y22524D01*
X85790Y22016D01*
Y21000D01*
Y21762D01*
X84774D01*
X86298Y22016D02*
Y21254D01*
X86552Y21000D01*
X87313D01*
Y22016D01*
X88075Y22270D02*
Y22016D01*
X87821D01*
X88329D01*
X88075D01*
Y21254D01*
X88329Y21000D01*
X89345D02*
X89853D01*
X90107Y21254D01*
Y21762D01*
X89853Y22016D01*
X89345D01*
X89091Y21762D01*
Y21254D01*
X89345Y21000D01*
X90614D02*
Y22016D01*
X90868D01*
X91122Y21762D01*
Y21000D01*
Y21762D01*
X91376Y22016D01*
X91630Y21762D01*
Y21000D01*
X92392D02*
X92900D01*
X93154Y21254D01*
Y21762D01*
X92900Y22016D01*
X92392D01*
X92138Y21762D01*
Y21254D01*
X92392Y21000D01*
X93661Y22524D02*
Y21000D01*
X94423D01*
X94677Y21254D01*
Y21508D01*
Y21762D01*
X94423Y22016D01*
X93661D01*
X95185Y21000D02*
X95693D01*
X95439D01*
Y22016D01*
X95185D01*
X96454Y21000D02*
X96962D01*
X96708D01*
Y22524D01*
X96454D01*
X98486Y21000D02*
X97978D01*
X97724Y21254D01*
Y21762D01*
X97978Y22016D01*
X98486D01*
X98740Y21762D01*
Y21508D01*
X97724D01*
X100771Y21000D02*
Y22524D01*
X101279Y22016D01*
X101787Y22524D01*
Y21000D01*
X103310D02*
X102295D01*
X103310Y22016D01*
Y22270D01*
X103056Y22524D01*
X102549D01*
X102295Y22270D01*
X71000Y24524D02*
Y23000D01*
X71762D01*
X72016Y23254D01*
Y23508D01*
X71762Y23762D01*
X71000D01*
X71762D01*
X72016Y24016D01*
Y24270D01*
X71762Y24524D01*
X71000D01*
X73285Y23000D02*
X72777D01*
X72524Y23254D01*
Y23762D01*
X72777Y24016D01*
X73285D01*
X73539Y23762D01*
Y23508D01*
X72524D01*
X74047Y23000D02*
Y24016D01*
X74809D01*
X75063Y23762D01*
Y23000D01*
X75824D02*
X76332D01*
X76586Y23254D01*
Y23762D01*
X76332Y24016D01*
X75824D01*
X75571Y23762D01*
Y23254D01*
X75824Y23000D01*
X77094D02*
X77602D01*
X77348D01*
Y24016D01*
X77094D01*
X78618Y24270D02*
Y24016D01*
X78364D01*
X78871D01*
X78618D01*
Y23254D01*
X78871Y23000D01*
X81157D02*
Y24524D01*
X81918D01*
X82172Y24270D01*
Y23762D01*
X81918Y23508D01*
X81157D01*
X82680Y23000D02*
X83188D01*
X82934D01*
Y24016D01*
X82680D01*
X83950D02*
Y23000D01*
Y23508D01*
X84204Y23762D01*
X84458Y24016D01*
X84712D01*
X85473Y23000D02*
X85981D01*
X85727D01*
Y24016D01*
X85473D01*
X86997Y23000D02*
X87505D01*
X87759Y23254D01*
Y23762D01*
X87505Y24016D01*
X86997D01*
X86743Y23762D01*
Y23254D01*
X86997Y23000D01*
X88266Y24016D02*
Y23254D01*
X88520Y23000D01*
X89282D01*
Y24016D01*
X91313Y24524D02*
X91821D01*
X91567D01*
Y23000D01*
X91313D01*
X91821D01*
X93599Y24270D02*
X93345Y24524D01*
X92837D01*
X92583Y24270D01*
Y24016D01*
X92837Y23762D01*
X93345D01*
X93599Y23508D01*
Y23254D01*
X93345Y23000D01*
X92837D01*
X92583Y23254D01*
X95122Y24524D02*
X94107D01*
Y23000D01*
X95122D01*
X94107Y23762D02*
X94614D01*
X95630Y23000D02*
Y24524D01*
X96646Y23000D01*
Y24524D01*
X55000Y37000D02*
X53476D01*
Y37762D01*
X53730Y38016D01*
X54238D01*
X54492Y37762D01*
Y37000D01*
X53984Y38777D02*
Y39285D01*
X54238Y39539D01*
X55000D01*
Y38777D01*
X54746Y38524D01*
X54492Y38777D01*
Y39539D01*
X55000Y40047D02*
X53984D01*
Y40809D01*
X54238Y41063D01*
X55000D01*
Y41571D02*
X53984D01*
Y42332D01*
X54238Y42586D01*
X55000D01*
Y43856D02*
Y43348D01*
X54746Y43094D01*
X54238D01*
X53984Y43348D01*
Y43856D01*
X54238Y44110D01*
X54492D01*
Y43094D01*
X53984Y44871D02*
Y45379D01*
X54238Y45633D01*
X55000D01*
Y44871D01*
X54746Y44618D01*
X54492Y44871D01*
Y45633D01*
X53984Y46141D02*
X54746D01*
X55000Y46395D01*
Y47157D01*
X53984D01*
X53476Y49188D02*
X55000D01*
Y50204D01*
X53476Y51727D02*
Y50712D01*
X55000D01*
Y51727D01*
X54238Y50712D02*
Y51219D01*
X53476Y52235D02*
X55000D01*
Y52997D01*
X54746Y53251D01*
X53730D01*
X53476Y52997D01*
Y52235D01*
Y55282D02*
X55000D01*
Y56044D01*
X54746Y56298D01*
X53730D01*
X53476Y56044D01*
Y55282D01*
Y57821D02*
Y56806D01*
X55000D01*
Y57821D01*
X54238Y56806D02*
Y57313D01*
X53730Y59345D02*
X53476Y59091D01*
Y58583D01*
X53730Y58329D01*
X54746D01*
X55000Y58583D01*
Y59091D01*
X54746Y59345D01*
X55000Y60868D02*
Y59853D01*
X53984Y60868D01*
X53730D01*
X53476Y60614D01*
Y60107D01*
X53730Y59853D01*
Y61376D02*
X53476Y61630D01*
Y62138D01*
X53730Y62392D01*
X54746D01*
X55000Y62138D01*
Y61630D01*
X54746Y61376D01*
X53730D01*
X55000Y62900D02*
Y63407D01*
Y63154D01*
X53476D01*
X53730Y62900D01*
X53476Y65185D02*
X53730Y64677D01*
X54238Y64169D01*
X54746D01*
X55000Y64423D01*
Y64931D01*
X54746Y65185D01*
X54492D01*
X54238Y64931D01*
Y64169D01*
X58112Y85504D02*
Y87028D01*
X58874D01*
X59128Y86774D01*
Y86266D01*
X58874Y86012D01*
X58112D01*
X58620D02*
X59128Y85504D01*
X59636D02*
Y86520D01*
X59889D01*
X60143Y86266D01*
Y85504D01*
Y86266D01*
X60397Y86520D01*
X60651Y86266D01*
Y85504D01*
X61413D02*
X61921D01*
X62175Y85758D01*
Y86266D01*
X61921Y86520D01*
X61413D01*
X61159Y86266D01*
Y85758D01*
X61413Y85504D01*
X62936D02*
Y86774D01*
Y86266D01*
X62683D01*
X63190D01*
X62936D01*
Y86774D01*
X63190Y87028D01*
X63952Y85504D02*
X64714D01*
X64968Y85758D01*
X64714Y86012D01*
X64206D01*
X63952Y86266D01*
X64206Y86520D01*
X64968D01*
X66237Y85504D02*
X65730D01*
X65476Y85758D01*
Y86266D01*
X65730Y86520D01*
X66237D01*
X66491Y86266D01*
Y86012D01*
X65476D01*
X67253Y86774D02*
Y86520D01*
X66999D01*
X67507D01*
X67253D01*
Y85758D01*
X67507Y85504D01*
X68269D02*
X68777D01*
X68523D01*
Y87028D01*
X68269Y86774D01*
X58450Y72390D02*
X59690D01*
Y73216D01*
X58450Y73630D02*
X59690D01*
Y74249D01*
X59483Y74456D01*
X58657D01*
X58450Y74249D01*
Y73630D01*
X59690Y74869D02*
Y75282D01*
Y75076D01*
X58450D01*
X58657Y74869D01*
X58450Y66040D02*
X59690D01*
Y66866D01*
X58450Y67280D02*
X59690D01*
Y67899D01*
X59483Y68106D01*
X58657D01*
X58450Y67899D01*
Y67280D01*
X59690Y69346D02*
Y68519D01*
X58864Y69346D01*
X58657D01*
X58450Y69139D01*
Y68726D01*
X58657Y68519D01*
X58450Y58420D02*
X59690D01*
Y59246D01*
X58450Y59660D02*
X59690D01*
Y60279D01*
X59483Y60486D01*
X58657D01*
X58450Y60279D01*
Y59660D01*
X58657Y60899D02*
X58450Y61106D01*
Y61519D01*
X58657Y61726D01*
X58864D01*
X59070Y61519D01*
Y61312D01*
Y61519D01*
X59277Y61726D01*
X59483D01*
X59690Y61519D01*
Y61106D01*
X59483Y60899D01*
X58450Y49530D02*
X59690D01*
Y50356D01*
X58450Y50770D02*
X59690D01*
Y51389D01*
X59483Y51596D01*
X58657D01*
X58450Y51389D01*
Y50770D01*
X59690Y52629D02*
X58450D01*
X59070Y52009D01*
Y52836D01*
X58450Y41910D02*
X59690D01*
Y42736D01*
X58450Y43150D02*
X59690D01*
Y43769D01*
X59483Y43976D01*
X58657D01*
X58450Y43769D01*
Y43150D01*
Y45216D02*
Y44389D01*
X59070D01*
X58864Y44802D01*
Y45009D01*
X59070Y45216D01*
X59483D01*
X59690Y45009D01*
Y44596D01*
X59483Y44389D01*
X58450Y34290D02*
X59690D01*
Y35116D01*
X58450Y35530D02*
X59690D01*
Y36149D01*
X59483Y36356D01*
X58657D01*
X58450Y36149D01*
Y35530D01*
Y37596D02*
X58657Y37182D01*
X59070Y36769D01*
X59483D01*
X59690Y36976D01*
Y37389D01*
X59483Y37596D01*
X59277D01*
X59070Y37389D01*
Y36769D01*
X58450Y26670D02*
X59690D01*
Y27496D01*
X58450Y27910D02*
X59690D01*
Y28529D01*
X59483Y28736D01*
X58657D01*
X58450Y28529D01*
Y27910D01*
Y29149D02*
Y29976D01*
X58657D01*
X59483Y29149D01*
X59690D01*
X66070Y72390D02*
X67310D01*
Y73216D01*
X66070Y73630D02*
X67310D01*
Y74249D01*
X67103Y74456D01*
X66277D01*
X66070Y74249D01*
Y73630D01*
X66277Y74869D02*
X66070Y75076D01*
Y75489D01*
X66277Y75696D01*
X66484D01*
X66690Y75489D01*
X66897Y75696D01*
X67103D01*
X67310Y75489D01*
Y75076D01*
X67103Y74869D01*
X66897D01*
X66690Y75076D01*
X66484Y74869D01*
X66277D01*
X66690Y75076D02*
Y75489D01*
X66070Y64770D02*
X67310D01*
Y65596D01*
X66070Y66010D02*
X67310D01*
Y66629D01*
X67103Y66836D01*
X66277D01*
X66070Y66629D01*
Y66010D01*
X67103Y67249D02*
X67310Y67456D01*
Y67869D01*
X67103Y68076D01*
X66277D01*
X66070Y67869D01*
Y67456D01*
X66277Y67249D01*
X66484D01*
X66690Y67456D01*
Y68076D01*
X66070Y57150D02*
X67310D01*
Y57976D01*
X66070Y58390D02*
X67310D01*
Y59009D01*
X67103Y59216D01*
X66277D01*
X66070Y59009D01*
Y58390D01*
X67310Y59629D02*
Y60042D01*
Y59836D01*
X66070D01*
X66277Y59629D01*
Y60662D02*
X66070Y60869D01*
Y61282D01*
X66277Y61489D01*
X67103D01*
X67310Y61282D01*
Y60869D01*
X67103Y60662D01*
X66277D01*
X66070Y49530D02*
X67310D01*
Y50356D01*
X66070Y50770D02*
X67310D01*
Y51389D01*
X67103Y51596D01*
X66277D01*
X66070Y51389D01*
Y50770D01*
X67310Y52009D02*
Y52422D01*
Y52216D01*
X66070D01*
X66277Y52009D01*
X67310Y53042D02*
Y53455D01*
Y53249D01*
X66070D01*
X66277Y53042D01*
X66070Y41910D02*
X67310D01*
Y42736D01*
X66070Y43150D02*
X67310D01*
Y43769D01*
X67103Y43976D01*
X66277D01*
X66070Y43769D01*
Y43150D01*
X67310Y44389D02*
Y44802D01*
Y44596D01*
X66070D01*
X66277Y44389D01*
X67310Y46249D02*
Y45422D01*
X66484Y46249D01*
X66277D01*
X66070Y46042D01*
Y45629D01*
X66277Y45422D01*
X66070Y34290D02*
X67310D01*
Y35116D01*
X66070Y35530D02*
X67310D01*
Y36149D01*
X67103Y36356D01*
X66277D01*
X66070Y36149D01*
Y35530D01*
X67310Y36769D02*
Y37182D01*
Y36976D01*
X66070D01*
X66277Y36769D01*
Y37802D02*
X66070Y38009D01*
Y38422D01*
X66277Y38629D01*
X66484D01*
X66690Y38422D01*
Y38215D01*
Y38422D01*
X66897Y38629D01*
X67103D01*
X67310Y38422D01*
Y38009D01*
X67103Y37802D01*
X66070Y26670D02*
X67310D01*
Y27496D01*
X66070Y27910D02*
X67310D01*
Y28529D01*
X67103Y28736D01*
X66277D01*
X66070Y28529D01*
Y27910D01*
X67310Y29149D02*
Y29562D01*
Y29356D01*
X66070D01*
X66277Y29149D01*
X67310Y30802D02*
X66070D01*
X66690Y30182D01*
Y31009D01*
X73730Y72390D02*
X74930D01*
Y73190D01*
X73730Y73590D02*
X74930D01*
Y74189D01*
X74730Y74389D01*
X73930D01*
X73730Y74189D01*
Y73590D01*
X74930Y74789D02*
Y75189D01*
Y74989D01*
X73730D01*
X73930Y74789D01*
X73730Y76589D02*
Y75789D01*
X74330D01*
X74130Y76189D01*
Y76389D01*
X74330Y76589D01*
X74730D01*
X74930Y76389D01*
Y75989D01*
X74730Y75789D01*
X73730Y64770D02*
X74930D01*
Y65570D01*
X73730Y65970D02*
X74930D01*
Y66569D01*
X74730Y66769D01*
X73930D01*
X73730Y66569D01*
Y65970D01*
X74930Y67169D02*
Y67569D01*
Y67369D01*
X73730D01*
X73930Y67169D01*
X73730Y68969D02*
X73930Y68569D01*
X74330Y68169D01*
X74730D01*
X74930Y68369D01*
Y68769D01*
X74730Y68969D01*
X74530D01*
X74330Y68769D01*
Y68169D01*
X73730Y57150D02*
X74930D01*
Y57950D01*
X73730Y58350D02*
X74930D01*
Y58949D01*
X74730Y59149D01*
X73930D01*
X73730Y58949D01*
Y58350D01*
X74930Y59549D02*
Y59949D01*
Y59749D01*
X73730D01*
X73930Y59549D01*
X73730Y60549D02*
Y61349D01*
X73930D01*
X74730Y60549D01*
X74930D01*
X73730Y49530D02*
X74930D01*
Y50330D01*
X73730Y50730D02*
X74930D01*
Y51329D01*
X74730Y51529D01*
X73930D01*
X73730Y51329D01*
Y50730D01*
X74930Y51929D02*
Y52329D01*
Y52129D01*
X73730D01*
X73930Y51929D01*
Y52929D02*
X73730Y53129D01*
Y53529D01*
X73930Y53729D01*
X74130D01*
X74330Y53529D01*
X74530Y53729D01*
X74730D01*
X74930Y53529D01*
Y53129D01*
X74730Y52929D01*
X74530D01*
X74330Y53129D01*
X74130Y52929D01*
X73930D01*
X74330Y53129D02*
Y53529D01*
X73730Y41910D02*
X74930D01*
Y42710D01*
X73730Y43110D02*
X74930D01*
Y43709D01*
X74730Y43909D01*
X73930D01*
X73730Y43709D01*
Y43110D01*
X74930Y44309D02*
Y44709D01*
Y44509D01*
X73730D01*
X73930Y44309D01*
X74730Y45309D02*
X74930Y45509D01*
Y45909D01*
X74730Y46109D01*
X73930D01*
X73730Y45909D01*
Y45509D01*
X73930Y45309D01*
X74130D01*
X74330Y45509D01*
Y46109D01*
X73730Y34290D02*
X74930D01*
Y35090D01*
X73730Y35490D02*
X74930D01*
Y36089D01*
X74730Y36289D01*
X73930D01*
X73730Y36089D01*
Y35490D01*
X74930Y37489D02*
Y36689D01*
X74130Y37489D01*
X73930D01*
X73730Y37289D01*
Y36889D01*
X73930Y36689D01*
Y37889D02*
X73730Y38089D01*
Y38489D01*
X73930Y38689D01*
X74730D01*
X74930Y38489D01*
Y38089D01*
X74730Y37889D01*
X73930D01*
X73730Y26670D02*
X74930D01*
Y27470D01*
X73730Y27870D02*
X74930D01*
Y28469D01*
X74730Y28669D01*
X73930D01*
X73730Y28469D01*
Y27870D01*
X74930Y29869D02*
Y29069D01*
X74130Y29869D01*
X73930D01*
X73730Y29669D01*
Y29269D01*
X73930Y29069D01*
X74930Y30269D02*
Y30669D01*
Y30469D01*
X73730D01*
X73930Y30269D01*
X88930Y72390D02*
X90170D01*
Y73216D01*
X88930Y73630D02*
X90170D01*
Y74249D01*
X89963Y74456D01*
X89137D01*
X88930Y74249D01*
Y73630D01*
X90170Y75696D02*
Y74869D01*
X89344Y75696D01*
X89137D01*
X88930Y75489D01*
Y75076D01*
X89137Y74869D01*
X90170Y76935D02*
Y76109D01*
X89344Y76935D01*
X89137D01*
X88930Y76729D01*
Y76315D01*
X89137Y76109D01*
X88930Y64770D02*
X90170D01*
Y65596D01*
X88930Y66010D02*
X90170D01*
Y66629D01*
X89963Y66836D01*
X89137D01*
X88930Y66629D01*
Y66010D01*
X90170Y68076D02*
Y67249D01*
X89344Y68076D01*
X89137D01*
X88930Y67869D01*
Y67456D01*
X89137Y67249D01*
Y68489D02*
X88930Y68695D01*
Y69109D01*
X89137Y69315D01*
X89344D01*
X89550Y69109D01*
Y68902D01*
Y69109D01*
X89757Y69315D01*
X89963D01*
X90170Y69109D01*
Y68695D01*
X89963Y68489D01*
X88930Y57150D02*
X90170D01*
Y57976D01*
X88930Y58390D02*
X90170D01*
Y59009D01*
X89963Y59216D01*
X89137D01*
X88930Y59009D01*
Y58390D01*
X90170Y60456D02*
Y59629D01*
X89344Y60456D01*
X89137D01*
X88930Y60249D01*
Y59836D01*
X89137Y59629D01*
X90170Y61489D02*
X88930D01*
X89550Y60869D01*
Y61695D01*
X88930Y49530D02*
X90170D01*
Y50356D01*
X88930Y50770D02*
X90170D01*
Y51389D01*
X89963Y51596D01*
X89137D01*
X88930Y51389D01*
Y50770D01*
X90170Y52836D02*
Y52009D01*
X89344Y52836D01*
X89137D01*
X88930Y52629D01*
Y52216D01*
X89137Y52009D01*
X88930Y54075D02*
Y53249D01*
X89550D01*
X89344Y53662D01*
Y53869D01*
X89550Y54075D01*
X89963D01*
X90170Y53869D01*
Y53455D01*
X89963Y53249D01*
X88930Y41910D02*
X90170D01*
Y42736D01*
X88930Y43150D02*
X90170D01*
Y43769D01*
X89963Y43976D01*
X89137D01*
X88930Y43769D01*
Y43150D01*
X90170Y45216D02*
Y44389D01*
X89344Y45216D01*
X89137D01*
X88930Y45009D01*
Y44596D01*
X89137Y44389D01*
X88930Y46455D02*
X89137Y46042D01*
X89550Y45629D01*
X89963D01*
X90170Y45835D01*
Y46249D01*
X89963Y46455D01*
X89757D01*
X89550Y46249D01*
Y45629D01*
X88930Y34290D02*
X90170D01*
Y35116D01*
X88930Y35530D02*
X90170D01*
Y36149D01*
X89963Y36356D01*
X89137D01*
X88930Y36149D01*
Y35530D01*
X90170Y37596D02*
Y36769D01*
X89344Y37596D01*
X89137D01*
X88930Y37389D01*
Y36976D01*
X89137Y36769D01*
X88930Y38009D02*
Y38835D01*
X89137D01*
X89963Y38009D01*
X90170D01*
X89565Y27178D02*
X90805D01*
Y28004D01*
X89565Y28418D02*
X90805D01*
Y29037D01*
X90598Y29244D01*
X89772D01*
X89565Y29037D01*
Y28418D01*
X90805Y30484D02*
Y29657D01*
X89979Y30484D01*
X89772D01*
X89565Y30277D01*
Y29864D01*
X89772Y29657D01*
Y30897D02*
X89565Y31103D01*
Y31517D01*
X89772Y31723D01*
X89979D01*
X90185Y31517D01*
X90392Y31723D01*
X90598D01*
X90805Y31517D01*
Y31103D01*
X90598Y30897D01*
X90392D01*
X90185Y31103D01*
X89979Y30897D01*
X89772D01*
X90185Y31103D02*
Y31517D01*
X96550Y72390D02*
X97790D01*
Y73216D01*
X96550Y73630D02*
X97790D01*
Y74249D01*
X97583Y74456D01*
X96757D01*
X96550Y74249D01*
Y73630D01*
X97790Y75696D02*
Y74869D01*
X96964Y75696D01*
X96757D01*
X96550Y75489D01*
Y75076D01*
X96757Y74869D01*
X97583Y76109D02*
X97790Y76315D01*
Y76729D01*
X97583Y76935D01*
X96757D01*
X96550Y76729D01*
Y76315D01*
X96757Y76109D01*
X96964D01*
X97170Y76315D01*
Y76935D01*
X96550Y64770D02*
X97790D01*
Y65596D01*
X96550Y66010D02*
X97790D01*
Y66629D01*
X97583Y66836D01*
X96757D01*
X96550Y66629D01*
Y66010D01*
X96757Y67249D02*
X96550Y67456D01*
Y67869D01*
X96757Y68076D01*
X96964D01*
X97170Y67869D01*
Y67662D01*
Y67869D01*
X97377Y68076D01*
X97583D01*
X97790Y67869D01*
Y67456D01*
X97583Y67249D01*
X96757Y68489D02*
X96550Y68695D01*
Y69109D01*
X96757Y69315D01*
X97583D01*
X97790Y69109D01*
Y68695D01*
X97583Y68489D01*
X96757D01*
X96473Y56804D02*
X97713D01*
Y57630D01*
X96473Y58044D02*
X97713D01*
Y58663D01*
X97506Y58870D01*
X96680D01*
X96473Y58663D01*
Y58044D01*
X96680Y59283D02*
X96473Y59490D01*
Y59903D01*
X96680Y60110D01*
X96887D01*
X97093Y59903D01*
Y59696D01*
Y59903D01*
X97300Y60110D01*
X97506D01*
X97713Y59903D01*
Y59490D01*
X97506Y59283D01*
X97713Y60523D02*
Y60936D01*
Y60729D01*
X96473D01*
X96680Y60523D01*
X96550Y49530D02*
X97790D01*
Y50356D01*
X96550Y50770D02*
X97790D01*
Y51389D01*
X97583Y51596D01*
X96757D01*
X96550Y51389D01*
Y50770D01*
X96757Y52009D02*
X96550Y52216D01*
Y52629D01*
X96757Y52836D01*
X96964D01*
X97170Y52629D01*
Y52422D01*
Y52629D01*
X97377Y52836D01*
X97583D01*
X97790Y52629D01*
Y52216D01*
X97583Y52009D01*
X97790Y54075D02*
Y53249D01*
X96964Y54075D01*
X96757D01*
X96550Y53869D01*
Y53455D01*
X96757Y53249D01*
X96550Y41910D02*
X97790D01*
Y42736D01*
X96550Y43150D02*
X97790D01*
Y43769D01*
X97583Y43976D01*
X96757D01*
X96550Y43769D01*
Y43150D01*
X96757Y44389D02*
X96550Y44596D01*
Y45009D01*
X96757Y45216D01*
X96964D01*
X97170Y45009D01*
Y44802D01*
Y45009D01*
X97377Y45216D01*
X97583D01*
X97790Y45009D01*
Y44596D01*
X97583Y44389D01*
X96757Y45629D02*
X96550Y45835D01*
Y46249D01*
X96757Y46455D01*
X96964D01*
X97170Y46249D01*
Y46042D01*
Y46249D01*
X97377Y46455D01*
X97583D01*
X97790Y46249D01*
Y45835D01*
X97583Y45629D01*
X96550Y34290D02*
X97790D01*
Y35116D01*
X96550Y35530D02*
X97790D01*
Y36149D01*
X97583Y36356D01*
X96757D01*
X96550Y36149D01*
Y35530D01*
X96757Y36769D02*
X96550Y36976D01*
Y37389D01*
X96757Y37596D01*
X96964D01*
X97170Y37389D01*
Y37182D01*
Y37389D01*
X97377Y37596D01*
X97583D01*
X97790Y37389D01*
Y36976D01*
X97583Y36769D01*
X97790Y38629D02*
X96550D01*
X97170Y38009D01*
Y38835D01*
X96550Y26670D02*
X97790D01*
Y27496D01*
X96550Y27910D02*
X97790D01*
Y28529D01*
X97583Y28736D01*
X96757D01*
X96550Y28529D01*
Y27910D01*
X96757Y29149D02*
X96550Y29356D01*
Y29769D01*
X96757Y29976D01*
X96964D01*
X97170Y29769D01*
Y29562D01*
Y29769D01*
X97377Y29976D01*
X97583D01*
X97790Y29769D01*
Y29356D01*
X97583Y29149D01*
X96550Y31215D02*
Y30389D01*
X97170D01*
X96964Y30802D01*
Y31009D01*
X97170Y31215D01*
X97583D01*
X97790Y31009D01*
Y30595D01*
X97583Y30389D01*
X104170Y72390D02*
X105410D01*
Y73216D01*
X104170Y73630D02*
X105410D01*
Y74249D01*
X105203Y74456D01*
X104377D01*
X104170Y74249D01*
Y73630D01*
X104377Y74869D02*
X104170Y75076D01*
Y75489D01*
X104377Y75696D01*
X104584D01*
X104790Y75489D01*
Y75282D01*
Y75489D01*
X104997Y75696D01*
X105203D01*
X105410Y75489D01*
Y75076D01*
X105203Y74869D01*
X104170Y76935D02*
X104377Y76522D01*
X104790Y76109D01*
X105203D01*
X105410Y76315D01*
Y76729D01*
X105203Y76935D01*
X104997D01*
X104790Y76729D01*
Y76109D01*
X104170Y64770D02*
X105410D01*
Y65596D01*
X104170Y66010D02*
X105410D01*
Y66629D01*
X105203Y66836D01*
X104377D01*
X104170Y66629D01*
Y66010D01*
X104377Y67249D02*
X104170Y67456D01*
Y67869D01*
X104377Y68076D01*
X104584D01*
X104790Y67869D01*
Y67662D01*
Y67869D01*
X104997Y68076D01*
X105203D01*
X105410Y67869D01*
Y67456D01*
X105203Y67249D01*
X104170Y68489D02*
Y69315D01*
X104377D01*
X105203Y68489D01*
X105410D01*
X106782Y65263D02*
Y64024D01*
X107609D01*
X108022Y65263D02*
Y64024D01*
X108642D01*
X108848Y64230D01*
Y65057D01*
X108642Y65263D01*
X108022D01*
X109262Y65057D02*
X109468Y65263D01*
X109881D01*
X110088Y65057D01*
Y64850D01*
X109881Y64644D01*
X109675D01*
X109881D01*
X110088Y64437D01*
Y64230D01*
X109881Y64024D01*
X109468D01*
X109262Y64230D01*
X110501Y65057D02*
X110708Y65263D01*
X111121D01*
X111328Y65057D01*
Y64850D01*
X111121Y64644D01*
X111328Y64437D01*
Y64230D01*
X111121Y64024D01*
X110708D01*
X110501Y64230D01*
Y64437D01*
X110708Y64644D01*
X110501Y64850D01*
Y65057D01*
X110708Y64644D02*
X111121D01*
X104170Y49530D02*
X105410D01*
Y50356D01*
X104170Y50770D02*
X105410D01*
Y51389D01*
X105203Y51596D01*
X104377D01*
X104170Y51389D01*
Y50770D01*
X104377Y52009D02*
X104170Y52216D01*
Y52629D01*
X104377Y52836D01*
X104584D01*
X104790Y52629D01*
Y52422D01*
Y52629D01*
X104997Y52836D01*
X105203D01*
X105410Y52629D01*
Y52216D01*
X105203Y52009D01*
Y53249D02*
X105410Y53455D01*
Y53869D01*
X105203Y54075D01*
X104377D01*
X104170Y53869D01*
Y53455D01*
X104377Y53249D01*
X104584D01*
X104790Y53455D01*
Y54075D01*
X104170Y41910D02*
X105410D01*
Y42736D01*
X104170Y43150D02*
X105410D01*
Y43769D01*
X105203Y43976D01*
X104377D01*
X104170Y43769D01*
Y43150D01*
X105410Y45009D02*
X104170D01*
X104790Y44389D01*
Y45216D01*
X104377Y45629D02*
X104170Y45835D01*
Y46249D01*
X104377Y46455D01*
X105203D01*
X105410Y46249D01*
Y45835D01*
X105203Y45629D01*
X104377D01*
X104170Y34290D02*
X105410D01*
Y35116D01*
X104170Y35530D02*
X105410D01*
Y36149D01*
X105203Y36356D01*
X104377D01*
X104170Y36149D01*
Y35530D01*
X105410Y37389D02*
X104170D01*
X104790Y36769D01*
Y37596D01*
X105410Y38009D02*
Y38422D01*
Y38215D01*
X104170D01*
X104377Y38009D01*
X104170Y26670D02*
X105410D01*
Y27496D01*
X104170Y27910D02*
X105410D01*
Y28529D01*
X105203Y28736D01*
X104377D01*
X104170Y28529D01*
Y27910D01*
X105410Y29769D02*
X104170D01*
X104790Y29149D01*
Y29976D01*
X105410Y31215D02*
Y30389D01*
X104584Y31215D01*
X104377D01*
X104170Y31009D01*
Y30595D01*
X104377Y30389D01*
X89088Y79872D02*
Y81396D01*
X89850D01*
X90104Y81142D01*
Y80634D01*
X89850Y80380D01*
X89088D01*
X89596D02*
X90104Y79872D01*
X90612D02*
Y80888D01*
X90865D01*
X91119Y80634D01*
Y79872D01*
Y80634D01*
X91373Y80888D01*
X91627Y80634D01*
Y79872D01*
X92389D02*
X92897D01*
X93151Y80126D01*
Y80634D01*
X92897Y80888D01*
X92389D01*
X92135Y80634D01*
Y80126D01*
X92389Y79872D01*
X93912D02*
Y81142D01*
Y80634D01*
X93659D01*
X94166D01*
X93912D01*
Y81142D01*
X94166Y81396D01*
X94928Y79872D02*
X95690D01*
X95944Y80126D01*
X95690Y80380D01*
X95182D01*
X94928Y80634D01*
X95182Y80888D01*
X95944D01*
X97213Y79872D02*
X96706D01*
X96452Y80126D01*
Y80634D01*
X96706Y80888D01*
X97213D01*
X97467Y80634D01*
Y80380D01*
X96452D01*
X98229Y81142D02*
Y80888D01*
X97975D01*
X98483D01*
X98229D01*
Y80126D01*
X98483Y79872D01*
X100260D02*
X99245D01*
X100260Y80888D01*
Y81142D01*
X100006Y81396D01*
X99499D01*
X99245Y81142D01*
G54D22*
X87044Y86278D02*
X88187D01*
Y87802D01*
X84885D02*
X86028D01*
X84885Y86278D02*
Y87802D01*
Y86278D02*
X86028D01*
X87044Y87802D02*
X88187D01*
X70365Y84762D02*
X71508D01*
X70365Y83238D02*
Y84762D01*
X72524Y83238D02*
X73667D01*
Y84762D01*
X72524D02*
X73667D01*
X70365Y83238D02*
X71508D01*
X69342Y81153D02*
Y82296D01*
X67818Y83312D02*
Y84455D01*
X69342D01*
Y83312D02*
Y84455D01*
X67818Y81153D02*
X69342D01*
X67818D02*
Y82296D01*
X64135Y32258D02*
X65278D01*
X66294Y33782D02*
X67437D01*
Y32258D02*
Y33782D01*
X66294Y32258D02*
X67437D01*
X64135D02*
Y33782D01*
X65278D01*
X86995Y32258D02*
X88138D01*
X89154Y33782D02*
X90297D01*
Y32258D02*
Y33782D01*
X89154Y32258D02*
X90297D01*
X86995D02*
Y33782D01*
X88138D01*
X94615Y32258D02*
X95758D01*
X96774Y33782D02*
X97917D01*
Y32258D02*
Y33782D01*
X96774Y32258D02*
X97917D01*
X94615D02*
Y33782D01*
X95758D01*
X102235Y32258D02*
X103378D01*
X104394Y33782D02*
X105537D01*
Y32258D02*
Y33782D01*
X104394Y32258D02*
X105537D01*
X102235D02*
Y33782D01*
X103378D01*
X64135Y39878D02*
X65278D01*
X66294Y41402D02*
X67437D01*
Y39878D02*
Y41402D01*
X66294Y39878D02*
X67437D01*
X64135D02*
Y41402D01*
X65278D01*
X71755Y39878D02*
X72898D01*
X73914Y41402D02*
X75057D01*
Y39878D02*
Y41402D01*
X73914Y39878D02*
X75057D01*
X71755D02*
Y41402D01*
X72898D01*
X86995Y39878D02*
X88138D01*
X89154Y41402D02*
X90297D01*
Y39878D02*
Y41402D01*
X89154Y39878D02*
X90297D01*
X86995D02*
Y41402D01*
X88138D01*
X94615Y39878D02*
X95758D01*
X96774Y41402D02*
X97917D01*
Y39878D02*
Y41402D01*
X96774Y39878D02*
X97917D01*
X94615D02*
Y41402D01*
X95758D01*
X102235Y39878D02*
X103378D01*
X104394Y41402D02*
X105537D01*
Y39878D02*
Y41402D01*
X104394Y39878D02*
X105537D01*
X102235D02*
Y41402D01*
X103378D01*
X86995Y47498D02*
X88138D01*
X89154Y49022D02*
X90297D01*
Y47498D02*
Y49022D01*
X89154Y47498D02*
X90297D01*
X86995D02*
Y49022D01*
X88138D01*
X94615Y47498D02*
X95758D01*
X96774Y49022D02*
X97917D01*
Y47498D02*
Y49022D01*
X96774Y47498D02*
X97917D01*
X94615D02*
Y49022D01*
X95758D01*
X102235Y47498D02*
X103378D01*
X104394Y49022D02*
X105537D01*
Y47498D02*
Y49022D01*
X104394Y47498D02*
X105537D01*
X102235D02*
Y49022D01*
X103378D01*
X64135Y55118D02*
X65278D01*
X66294Y56642D02*
X67437D01*
Y55118D02*
Y56642D01*
X66294Y55118D02*
X67437D01*
X64135D02*
Y56642D01*
X65278D01*
X71755Y55118D02*
X72898D01*
X73914Y56642D02*
X75057D01*
Y55118D02*
Y56642D01*
X73914Y55118D02*
X75057D01*
X71755D02*
Y56642D01*
X72898D01*
X86995Y55118D02*
X88138D01*
X89154Y56642D02*
X90297D01*
Y55118D02*
Y56642D01*
X89154Y55118D02*
X90297D01*
X86995D02*
Y56642D01*
X88138D01*
X94615Y55118D02*
X95758D01*
X96774Y56642D02*
X97917D01*
Y55118D02*
Y56642D01*
X96774Y55118D02*
X97917D01*
X94615D02*
Y56642D01*
X95758D01*
X102235Y55118D02*
X103378D01*
X104394Y56642D02*
X105537D01*
Y55118D02*
Y56642D01*
X104394Y55118D02*
X105537D01*
X102235D02*
Y56642D01*
X103378D01*
X71755Y62738D02*
X72898D01*
X73914Y64262D02*
X75057D01*
Y62738D02*
Y64262D01*
X73914Y62738D02*
X75057D01*
X71755D02*
Y64262D01*
X72898D01*
X86995Y62738D02*
X88138D01*
X89154Y64262D02*
X90297D01*
Y62738D02*
Y64262D01*
X89154Y62738D02*
X90297D01*
X86995D02*
Y64262D01*
X88138D01*
X94615Y62738D02*
X95758D01*
X96774Y64262D02*
X97917D01*
Y62738D02*
Y64262D01*
X96774Y62738D02*
X97917D01*
X94615D02*
Y64262D01*
X95758D01*
X102235Y62738D02*
X103378D01*
X104394Y64262D02*
X105537D01*
Y62738D02*
Y64262D01*
X104394Y62738D02*
X105537D01*
X102235D02*
Y64262D01*
X103378D01*
X71755Y70358D02*
X72898D01*
X73914Y71882D02*
X75057D01*
Y70358D02*
Y71882D01*
X73914Y70358D02*
X75057D01*
X71755D02*
Y71882D01*
X72898D01*
X86995Y70358D02*
X88138D01*
X89154Y71882D02*
X90297D01*
Y70358D02*
Y71882D01*
X89154Y70358D02*
X90297D01*
X86995D02*
Y71882D01*
X88138D01*
X94615Y70358D02*
X95758D01*
X96774Y71882D02*
X97917D01*
Y70358D02*
Y71882D01*
X96774Y70358D02*
X97917D01*
X94615D02*
Y71882D01*
X95758D01*
X102235Y70358D02*
X103378D01*
X104394Y71882D02*
X105537D01*
Y70358D02*
Y71882D01*
X104394Y70358D02*
X105537D01*
X102235D02*
Y71882D01*
X103378D01*
X71755Y77978D02*
X72898D01*
X73914Y79502D02*
X75057D01*
Y77978D02*
Y79502D01*
X73914Y77978D02*
X75057D01*
X71755D02*
Y79502D01*
X72898D01*
X86995Y77978D02*
X88138D01*
X89154Y79502D02*
X90297D01*
Y77978D02*
Y79502D01*
X89154Y77978D02*
X90297D01*
X86995D02*
Y79502D01*
X88138D01*
X94615Y77978D02*
X95758D01*
X96774Y79502D02*
X97917D01*
Y77978D02*
Y79502D01*
X96774Y77978D02*
X97917D01*
X94615D02*
Y79502D01*
X95758D01*
X56515Y70358D02*
X57658D01*
X58674Y71882D02*
X59817D01*
Y70358D02*
Y71882D01*
X58674Y70358D02*
X59817D01*
X56515D02*
Y71882D01*
X57658D01*
X56515Y77978D02*
X57658D01*
X58674Y79502D02*
X59817D01*
Y77978D02*
Y79502D01*
X58674Y77978D02*
X59817D01*
X56515D02*
Y79502D01*
X57658D01*
X56515Y62738D02*
X57658D01*
X58674Y64262D02*
X59817D01*
Y62738D02*
Y64262D01*
X58674Y62738D02*
X59817D01*
X56515D02*
Y64262D01*
X57658D01*
X56515Y47498D02*
X57658D01*
X58674Y49022D02*
X59817D01*
Y47498D02*
Y49022D01*
X58674Y47498D02*
X59817D01*
X56515D02*
Y49022D01*
X57658D01*
X56515Y39878D02*
X57658D01*
X58674Y41402D02*
X59817D01*
Y39878D02*
Y41402D01*
X58674Y39878D02*
X59817D01*
X56515D02*
Y41402D01*
X57658D01*
X56515Y55118D02*
X57658D01*
X58674Y56642D02*
X59817D01*
Y55118D02*
Y56642D01*
X58674Y55118D02*
X59817D01*
X56515D02*
Y56642D01*
X57658D01*
X56515Y32258D02*
X57658D01*
X58674Y33782D02*
X59817D01*
Y32258D02*
Y33782D01*
X58674Y32258D02*
X59817D01*
X56515D02*
Y33782D01*
X57658D01*
X64135Y77978D02*
X65278D01*
X66294Y79502D02*
X67437D01*
Y77978D02*
Y79502D01*
X66294Y77978D02*
X67437D01*
X64135D02*
Y79502D01*
X65278D01*
X64135Y70358D02*
X65278D01*
X66294Y71882D02*
X67437D01*
Y70358D02*
Y71882D01*
X66294Y70358D02*
X67437D01*
X64135D02*
Y71882D01*
X65278D01*
X64135Y62738D02*
X65278D01*
X66294Y64262D02*
X67437D01*
Y62738D02*
Y64262D01*
X66294Y62738D02*
X67437D01*
X64135D02*
Y64262D01*
X65278D01*
X64135Y47498D02*
X65278D01*
X66294Y49022D02*
X67437D01*
Y47498D02*
Y49022D01*
X66294Y47498D02*
X67437D01*
X64135D02*
Y49022D01*
X65278D01*
X71755Y47498D02*
X72898D01*
X73914Y49022D02*
X75057D01*
Y47498D02*
Y49022D01*
X73914Y47498D02*
X75057D01*
X71755D02*
Y49022D01*
X72898D01*
X71755Y32258D02*
X72898D01*
X73914Y33782D02*
X75057D01*
Y32258D02*
Y33782D01*
X73914Y32258D02*
X75057D01*
X71755D02*
Y33782D01*
X72898D01*
X102235Y77978D02*
X103378D01*
X104394Y79502D02*
X105537D01*
Y77978D02*
Y79502D01*
X104394Y77978D02*
X105537D01*
X102235D02*
Y79502D01*
X103378D01*
X88392Y80645D02*
Y81788D01*
X86868Y82804D02*
Y83947D01*
X88392D01*
Y82804D02*
Y83947D01*
X86868Y80645D02*
X88392D01*
X86868D02*
Y81788D01*
G54D23*
X106680Y59690D02*
X109220D01*
X60960D02*
X63500D01*
X60960Y67310D02*
X63500D01*
X60960Y74930D02*
X63500D01*
X60960Y52070D02*
X63500D01*
X60960Y29210D02*
X63500D01*
X60960Y36830D02*
X63500D01*
X60960Y44450D02*
X63500D01*
X68580Y74930D02*
X71120D01*
X68580Y67310D02*
X71120D01*
X68580Y59690D02*
X71120D01*
X68580Y52070D02*
X71120D01*
X68580Y29210D02*
X71120D01*
X68580Y36830D02*
X71120D01*
X68580Y44450D02*
X71120D01*
X76200Y74930D02*
X78740D01*
X76200Y67310D02*
X78740D01*
X76200Y59690D02*
X78740D01*
X76200Y52070D02*
X78740D01*
X76200Y36830D02*
X78740D01*
X76200Y44450D02*
X78740D01*
X76200Y29210D02*
X78740D01*
X91440Y74930D02*
X93980D01*
X91440Y59690D02*
X93980D01*
X91440Y52070D02*
X93980D01*
X106680Y67310D02*
X109220D01*
X99060Y59690D02*
X101600D01*
X106680Y52070D02*
X109220D01*
X106680Y29210D02*
X109220D01*
X91440D02*
X93980D01*
X91440Y44450D02*
X93980D01*
X91440Y36830D02*
X93980D01*
X91440Y67310D02*
X93980D01*
X99060Y74930D02*
X101600D01*
X99060Y67310D02*
X101600D01*
X99060Y52070D02*
X101600D01*
X99060Y44450D02*
X101600D01*
X99060Y36830D02*
X101600D01*
X99060Y29210D02*
X101600D01*
X106680Y74930D02*
X109220D01*
X106680Y44450D02*
X109220D01*
X106680Y36830D02*
X109220D01*
G54D24*
X106680Y63119D02*
X109220D01*
X106680Y57150D02*
X109220D01*
X106680Y61214D02*
Y63119D01*
X109220Y61214D02*
Y63119D01*
Y57150D02*
Y59055D01*
X106680Y57150D02*
Y59055D01*
X60960Y63119D02*
X63500D01*
X60960Y57150D02*
X63500D01*
X60960Y61214D02*
Y63119D01*
X63500Y61214D02*
Y63119D01*
Y57150D02*
Y59055D01*
X60960Y57150D02*
Y59055D01*
Y70739D02*
X63500D01*
X60960Y64770D02*
X63500D01*
X60960Y68834D02*
Y70739D01*
X63500Y68834D02*
Y70739D01*
Y64770D02*
Y66675D01*
X60960Y64770D02*
Y66675D01*
Y78359D02*
X63500D01*
X60960Y72390D02*
X63500D01*
X60960Y76454D02*
Y78359D01*
X63500Y76454D02*
Y78359D01*
Y72390D02*
Y74295D01*
X60960Y72390D02*
Y74295D01*
Y55499D02*
X63500D01*
X60960Y49530D02*
X63500D01*
X60960Y53594D02*
Y55499D01*
X63500Y53594D02*
Y55499D01*
Y49530D02*
Y51435D01*
X60960Y49530D02*
Y51435D01*
Y32639D02*
X63500D01*
X60960Y26670D02*
X63500D01*
X60960Y30734D02*
Y32639D01*
X63500Y30734D02*
Y32639D01*
Y26670D02*
Y28575D01*
X60960Y26670D02*
Y28575D01*
Y40259D02*
X63500D01*
X60960Y34290D02*
X63500D01*
X60960Y38354D02*
Y40259D01*
X63500Y38354D02*
Y40259D01*
Y34290D02*
Y36195D01*
X60960Y34290D02*
Y36195D01*
Y47879D02*
X63500D01*
X60960Y41910D02*
X63500D01*
X60960Y45974D02*
Y47879D01*
X63500Y45974D02*
Y47879D01*
Y41910D02*
Y43815D01*
X60960Y41910D02*
Y43815D01*
X68580Y78359D02*
X71120D01*
X68580Y72390D02*
X71120D01*
X68580Y76454D02*
Y78359D01*
X71120Y76454D02*
Y78359D01*
Y72390D02*
Y74295D01*
X68580Y72390D02*
Y74295D01*
Y70739D02*
X71120D01*
X68580Y64770D02*
X71120D01*
X68580Y68834D02*
Y70739D01*
X71120Y68834D02*
Y70739D01*
Y64770D02*
Y66675D01*
X68580Y64770D02*
Y66675D01*
Y63119D02*
X71120D01*
X68580Y57150D02*
X71120D01*
X68580Y61214D02*
Y63119D01*
X71120Y61214D02*
Y63119D01*
Y57150D02*
Y59055D01*
X68580Y57150D02*
Y59055D01*
Y55499D02*
X71120D01*
X68580Y49530D02*
X71120D01*
X68580Y53594D02*
Y55499D01*
X71120Y53594D02*
Y55499D01*
Y49530D02*
Y51435D01*
X68580Y49530D02*
Y51435D01*
Y32639D02*
X71120D01*
X68580Y26670D02*
X71120D01*
X68580Y30734D02*
Y32639D01*
X71120Y30734D02*
Y32639D01*
Y26670D02*
Y28575D01*
X68580Y26670D02*
Y28575D01*
Y40259D02*
X71120D01*
X68580Y34290D02*
X71120D01*
X68580Y38354D02*
Y40259D01*
X71120Y38354D02*
Y40259D01*
Y34290D02*
Y36195D01*
X68580Y34290D02*
Y36195D01*
Y47879D02*
X71120D01*
X68580Y41910D02*
X71120D01*
X68580Y45974D02*
Y47879D01*
X71120Y45974D02*
Y47879D01*
Y41910D02*
Y43815D01*
X68580Y41910D02*
Y43815D01*
X76200Y78359D02*
X78740D01*
X76200Y72390D02*
X78740D01*
X76200Y76454D02*
Y78359D01*
X78740Y76454D02*
Y78359D01*
Y72390D02*
Y74295D01*
X76200Y72390D02*
Y74295D01*
Y70739D02*
X78740D01*
X76200Y64770D02*
X78740D01*
X76200Y68834D02*
Y70739D01*
X78740Y68834D02*
Y70739D01*
Y64770D02*
Y66675D01*
X76200Y64770D02*
Y66675D01*
Y63119D02*
X78740D01*
X76200Y57150D02*
X78740D01*
X76200Y61214D02*
Y63119D01*
X78740Y61214D02*
Y63119D01*
Y57150D02*
Y59055D01*
X76200Y57150D02*
Y59055D01*
Y55499D02*
X78740D01*
X76200Y49530D02*
X78740D01*
X76200Y53594D02*
Y55499D01*
X78740Y53594D02*
Y55499D01*
Y49530D02*
Y51435D01*
X76200Y49530D02*
Y51435D01*
Y40259D02*
X78740D01*
X76200Y34290D02*
X78740D01*
X76200Y38354D02*
Y40259D01*
X78740Y38354D02*
Y40259D01*
Y34290D02*
Y36195D01*
X76200Y34290D02*
Y36195D01*
Y47879D02*
X78740D01*
X76200Y41910D02*
X78740D01*
X76200Y45974D02*
Y47879D01*
X78740Y45974D02*
Y47879D01*
Y41910D02*
Y43815D01*
X76200Y41910D02*
Y43815D01*
Y32639D02*
X78740D01*
X76200Y26670D02*
X78740D01*
X76200Y30734D02*
Y32639D01*
X78740Y30734D02*
Y32639D01*
Y26670D02*
Y28575D01*
X76200Y26670D02*
Y28575D01*
X91440Y78359D02*
X93980D01*
X91440Y72390D02*
X93980D01*
X91440Y76454D02*
Y78359D01*
X93980Y76454D02*
Y78359D01*
Y72390D02*
Y74295D01*
X91440Y72390D02*
Y74295D01*
Y63119D02*
X93980D01*
X91440Y57150D02*
X93980D01*
X91440Y61214D02*
Y63119D01*
X93980Y61214D02*
Y63119D01*
Y57150D02*
Y59055D01*
X91440Y57150D02*
Y59055D01*
Y55499D02*
X93980D01*
X91440Y49530D02*
X93980D01*
X91440Y53594D02*
Y55499D01*
X93980Y53594D02*
Y55499D01*
Y49530D02*
Y51435D01*
X91440Y49530D02*
Y51435D01*
X106680Y70739D02*
X109220D01*
X106680Y64770D02*
X109220D01*
X106680Y68834D02*
Y70739D01*
X109220Y68834D02*
Y70739D01*
Y64770D02*
Y66675D01*
X106680Y64770D02*
Y66675D01*
X99060Y63119D02*
X101600D01*
X99060Y57150D02*
X101600D01*
X99060Y61214D02*
Y63119D01*
X101600Y61214D02*
Y63119D01*
Y57150D02*
Y59055D01*
X99060Y57150D02*
Y59055D01*
X106680Y55499D02*
X109220D01*
X106680Y49530D02*
X109220D01*
X106680Y53594D02*
Y55499D01*
X109220Y53594D02*
Y55499D01*
Y49530D02*
Y51435D01*
X106680Y49530D02*
Y51435D01*
Y32639D02*
X109220D01*
X106680Y26670D02*
X109220D01*
X106680Y30734D02*
Y32639D01*
X109220Y30734D02*
Y32639D01*
Y26670D02*
Y28575D01*
X106680Y26670D02*
Y28575D01*
X91440Y32639D02*
X93980D01*
X91440Y26670D02*
X93980D01*
X91440Y30734D02*
Y32639D01*
X93980Y30734D02*
Y32639D01*
Y26670D02*
Y28575D01*
X91440Y26670D02*
Y28575D01*
Y47879D02*
X93980D01*
X91440Y41910D02*
X93980D01*
X91440Y45974D02*
Y47879D01*
X93980Y45974D02*
Y47879D01*
Y41910D02*
Y43815D01*
X91440Y41910D02*
Y43815D01*
Y40259D02*
X93980D01*
X91440Y34290D02*
X93980D01*
X91440Y38354D02*
Y40259D01*
X93980Y38354D02*
Y40259D01*
Y34290D02*
Y36195D01*
X91440Y34290D02*
Y36195D01*
Y70739D02*
X93980D01*
X91440Y64770D02*
X93980D01*
X91440Y68834D02*
Y70739D01*
X93980Y68834D02*
Y70739D01*
Y64770D02*
Y66675D01*
X91440Y64770D02*
Y66675D01*
X99060Y78359D02*
X101600D01*
X99060Y72390D02*
X101600D01*
X99060Y76454D02*
Y78359D01*
X101600Y76454D02*
Y78359D01*
Y72390D02*
Y74295D01*
X99060Y72390D02*
Y74295D01*
Y70739D02*
X101600D01*
X99060Y64770D02*
X101600D01*
X99060Y68834D02*
Y70739D01*
X101600Y68834D02*
Y70739D01*
Y64770D02*
Y66675D01*
X99060Y64770D02*
Y66675D01*
Y55499D02*
X101600D01*
X99060Y49530D02*
X101600D01*
X99060Y53594D02*
Y55499D01*
X101600Y53594D02*
Y55499D01*
Y49530D02*
Y51435D01*
X99060Y49530D02*
Y51435D01*
Y47879D02*
X101600D01*
X99060Y41910D02*
X101600D01*
X99060Y45974D02*
Y47879D01*
X101600Y45974D02*
Y47879D01*
Y41910D02*
Y43815D01*
X99060Y41910D02*
Y43815D01*
Y40259D02*
X101600D01*
X99060Y34290D02*
X101600D01*
X99060Y38354D02*
Y40259D01*
X101600Y38354D02*
Y40259D01*
Y34290D02*
Y36195D01*
X99060Y34290D02*
Y36195D01*
Y32639D02*
X101600D01*
X99060Y26670D02*
X101600D01*
X99060Y30734D02*
Y32639D01*
X101600Y30734D02*
Y32639D01*
Y26670D02*
Y28575D01*
X99060Y26670D02*
Y28575D01*
X106680Y78359D02*
X109220D01*
X106680Y72390D02*
X109220D01*
X106680Y76454D02*
Y78359D01*
X109220Y76454D02*
Y78359D01*
Y72390D02*
Y74295D01*
X106680Y72390D02*
Y74295D01*
Y47879D02*
X109220D01*
X106680Y41910D02*
X109220D01*
X106680Y45974D02*
Y47879D01*
X109220Y45974D02*
Y47879D01*
Y41910D02*
Y43815D01*
X106680Y41910D02*
Y43815D01*
Y40259D02*
X109220D01*
X106680Y34290D02*
X109220D01*
X106680Y38354D02*
Y40259D01*
X109220Y38354D02*
Y40259D01*
Y34290D02*
Y36195D01*
X106680Y34290D02*
Y36195D01*
M02*
