M48
;Layer_Color=9474304
;FILE_FORMAT=2:4
INCH,TZ
;TYPE=PLATED
T1F00S00C0.0236
T2F00S00C0.0280
T3F00S00C0.0300
T4F00S00C0.0394
T5F00S00C0.0398
T6F00S00C0.0400
T7F00S00C0.0409
T8F00S00C0.0413
T9F00S00C0.0440
T10F00S00C0.0472
T11F00S00C0.0520
T12F00S00C0.0787
T13F00S00C0.1575
%
T01
X-16299Y5315
X-17185Y6315
X-15413
T02
X32854Y-18929
X39508Y-14130
X41126Y-14594
X42276Y-15252
X-33256Y-7445
X-32937Y-6402
X-34303Y-5768
X-28902Y-5445
X-28843Y-7449
X-28894Y-8421
X-26354Y-8819
Y-9819
Y-10819
Y-11850
Y-7819
Y-6819
Y-5819
Y-4819
Y-3819
X-22354
Y-4819
Y-5819
Y-6819
Y-7819
Y-8819
Y-9819
Y-10819
X-20409Y-3811
X-22398Y-1665
X-23823Y-398
X-21469Y524
X-21681Y1783
X-18642Y1748
X-3535Y701
X705Y1138
X4134Y492
X21126Y1630
X19650Y3626
X15366Y5134
X11280Y2472
X9500Y3374
X8547Y2693
X3429Y3118
X2453Y3154
X4417Y11898
X7445Y12051
X10480Y12571
X-3657Y12500
X-6532Y13161
X-7228Y11925
X-7169Y11197
X-13882Y6268
X-3539Y2921
X-20358Y2209
X-22382Y2866
X-21110Y4559
X-20055Y11941
X-17012Y12528
T03
X6547Y854
X7547
X8547
X9547
X10547
X-17193Y8860
X-19193
Y11360
X-17193
T04
X22391Y542
X29191
X31301Y428
X38101
T05
X-25472Y-14866
Y-13866
X-24472
Y-14866
X-23472
Y-13866
X-12110Y5555
X-11110
X-10110
Y6555
X-11110
X-12110
T06
X35520Y-18602
X36520
X40228Y-17858
Y-16858
Y-15858
X20961Y-20717
Y-21717
X-30697Y-2661
Y-1661
X2424Y2197
X1424
X-14555Y9961
Y10961
T07
X2417Y4181
X3417
X4417
X5417
X6417
X7417
Y10181
X6417
X5417
X4417
X3417
X2417
X1417
X417
X-583
X-1583
X-2583
X-3583
X-4583
X-5583
X-6583
Y4181
X-5583
X-4583
X-3583
X-2583
X-1583
X-583
X417
X1417
T08
X-29874Y-9449
Y-8449
Y-7449
Y-6449
Y-5449
Y-4449
T09
X5409Y2496
X-5587Y2386
X-6587Y2413
X-2587Y11295
X-1571Y12059
T10
X38151Y-15372
X31251Y-15422
X29241Y-15258
X22341Y-15308
T11
X40882Y-6693
Y-4693
X40968Y-2343
Y-343
X21555Y5744
Y7744
Y10122
Y12122
X17646
Y10122
X17634Y7764
Y5764
T12
X22372Y-19256
X31072
T13
X-30933Y-13350
X-32461Y1287
X20701Y-10287
X43087Y-9224
X12528Y11287
X-10642Y10831
M30
