%FSLAX24Y24*%
%MOIN*%
G70*
G01*
G75*
G04 Layer_Physical_Order=1*
G04 Layer_Color=255*
%ADD10R,0.0500X0.0400*%
%ADD11R,0.0400X0.0500*%
%ADD12C,0.0394*%
%ADD13C,0.0197*%
%ADD14C,0.0315*%
%ADD15C,0.0100*%
%ADD16C,0.0039*%
%ADD17C,0.0700*%
%ADD18C,0.0600*%
%ADD19C,0.1200*%
%ADD20R,0.1200X0.1200*%
%ADD21C,0.0669*%
%ADD22C,0.0709*%
%ADD23O,0.1000X0.0500*%
%ADD24R,0.1000X0.0500*%
%ADD25R,0.1000X0.1000*%
%ADD26C,0.1181*%
%ADD27C,0.2362*%
%ADD28C,0.0500*%
G36*
X22724Y14000D02*
X23508Y13217D01*
X23524D01*
Y6150D01*
X23508Y6134D01*
X23720Y5921D01*
Y5870D01*
X24551D01*
X24650Y5772D01*
X25169Y5252D01*
X26882D01*
X26917Y5217D01*
X27437Y4697D01*
X28972D01*
X29024Y4646D01*
X29512Y4157D01*
X30917D01*
X31000Y4075D01*
X31390Y3685D01*
X32988D01*
X33102Y3571D01*
X33594Y3079D01*
X34984D01*
X35047Y3016D01*
X35520Y2543D01*
X37102D01*
X37185Y2461D01*
X37626Y2020D01*
X39161D01*
X39323Y1858D01*
X39815Y1366D01*
X41622D01*
X41736Y1252D01*
X42291Y697D01*
X44169D01*
X44512Y354D01*
X44543Y323D01*
Y-17173D01*
X44185D01*
X43988Y-17370D01*
X43516Y-17843D01*
X43114D01*
X43112Y-17816D01*
X43112Y-17816D01*
X43112Y-17816D01*
X42903Y-16634D01*
X41976Y-16798D01*
X41802Y-15815D01*
X40818Y-15989D01*
X40985Y-16937D01*
X40956Y-16978D01*
X40805Y-17004D01*
X40768Y-16970D01*
X40783Y-16858D01*
X40764Y-16715D01*
X40709Y-16581D01*
X40621Y-16466D01*
X40513Y-16383D01*
Y-16333D01*
X40621Y-16251D01*
X40709Y-16136D01*
X40764Y-16002D01*
X40783Y-15858D01*
X40764Y-15715D01*
X40709Y-15581D01*
X40621Y-15466D01*
X40506Y-15378D01*
X40372Y-15322D01*
X40228Y-15304D01*
X40085Y-15322D01*
X39951Y-15378D01*
X39836Y-15466D01*
X39748Y-15581D01*
X39692Y-15715D01*
X39674Y-15858D01*
X39689Y-15978D01*
X39657Y-16016D01*
X38495Y-16043D01*
X38544Y-18241D01*
X39744Y-18214D01*
X39738Y-17964D01*
X39788Y-17960D01*
X39790Y-17976D01*
X39835Y-18085D01*
X39907Y-18179D01*
X40001Y-18251D01*
X40108Y-18296D01*
Y-17858D01*
X40228D01*
Y-17738D01*
X40666D01*
X40621Y-17631D01*
X40549Y-17537D01*
X40455Y-17465D01*
X40388Y-17437D01*
Y-17387D01*
X40506Y-17339D01*
X40621Y-17251D01*
X40709Y-17136D01*
X40709Y-17134D01*
X40759Y-17140D01*
X40946Y-18198D01*
X42281Y-17962D01*
X42304Y-18007D01*
X41945Y-18366D01*
X41130D01*
X41083Y-18413D01*
X40724Y-18772D01*
X39913D01*
X39862Y-18823D01*
X39390Y-19295D01*
X38571D01*
X38555Y-19311D01*
X38161Y-19705D01*
X37217D01*
X37102Y-19819D01*
X36681Y-20240D01*
X35780D01*
X35665Y-20354D01*
X35303Y-20717D01*
X34358D01*
X34264Y-20811D01*
X33772Y-21303D01*
X32744D01*
X32531Y-21516D01*
X32157Y-21890D01*
X31425D01*
X31358Y-21957D01*
X31000Y-22315D01*
X30217D01*
X30004Y-22528D01*
X20016D01*
X19980Y-22492D01*
X19866D01*
X19311Y-21937D01*
X19295Y-21921D01*
Y-10562D01*
X19345Y-10556D01*
X19383Y-10716D01*
X19466Y-10916D01*
X19580Y-11102D01*
X19721Y-11267D01*
X19886Y-11408D01*
X20072Y-11522D01*
X20273Y-11605D01*
X20484Y-11656D01*
X20701Y-11673D01*
X20918Y-11656D01*
X21129Y-11605D01*
X21330Y-11522D01*
X21515Y-11408D01*
X21680Y-11267D01*
X21822Y-11102D01*
X21935Y-10916D01*
X22018Y-10716D01*
X22069Y-10504D01*
X22086Y-10287D01*
X22069Y-10071D01*
X22018Y-9859D01*
X21935Y-9658D01*
X21822Y-9473D01*
X21680Y-9308D01*
X21515Y-9167D01*
X21330Y-9053D01*
X21129Y-8970D01*
X20918Y-8919D01*
X20701Y-8902D01*
X20484Y-8919D01*
X20273Y-8970D01*
X20072Y-9053D01*
X19886Y-9167D01*
X19721Y-9308D01*
X19580Y-9473D01*
X19466Y-9658D01*
X19383Y-9859D01*
X19345Y-10019D01*
X19295Y-10013D01*
Y-606D01*
X18626Y63D01*
X-18811D01*
X-19335Y-461D01*
Y-512D01*
Y-15264D01*
X-19350Y-15280D01*
X-20917Y-16846D01*
Y-16913D01*
X-31020D01*
X-31102Y-16831D01*
X-35213Y-12720D01*
Y-12685D01*
Y2933D01*
X-35213Y2933D01*
X-35213Y2933D01*
X-35206Y2949D01*
X-34579D01*
X-34398Y3130D01*
X-33843Y3685D01*
X-32929D01*
X-32882Y3732D01*
X-32425Y4189D01*
X-31476D01*
X-31346Y4319D01*
X-30886Y4780D01*
X-29728D01*
X-29551Y4957D01*
X-29173Y5335D01*
X-28161D01*
X-28031Y5465D01*
X-27559Y5937D01*
X-26402D01*
X-26256Y6083D01*
X-25701Y6638D01*
X-24299D01*
X-23906Y7031D01*
X-23563Y7374D01*
X-23496D01*
Y13264D01*
X-23528Y13295D01*
X-22791Y14031D01*
X22693D01*
X22724Y14000D01*
D02*
G37*
%LPC*%
G36*
X-26104Y-5365D02*
X-26604D01*
X-26722Y-5380D01*
X-26831Y-5426D01*
X-26925Y-5498D01*
X-26997Y-5592D01*
X-27043Y-5701D01*
X-27058Y-5819D01*
X-27043Y-5936D01*
X-26997Y-6046D01*
X-26925Y-6140D01*
X-26831Y-6212D01*
X-26722Y-6257D01*
X-26604Y-6273D01*
X-26104D01*
X-25987Y-6257D01*
X-25877Y-6212D01*
X-25783Y-6140D01*
X-25711Y-6046D01*
X-25666Y-5936D01*
X-25650Y-5819D01*
X-25666Y-5701D01*
X-25711Y-5592D01*
X-25783Y-5498D01*
X-25877Y-5426D01*
X-25987Y-5380D01*
X-26104Y-5365D01*
D02*
G37*
G36*
X-22104D02*
X-22604D01*
X-22722Y-5380D01*
X-22831Y-5426D01*
X-22925Y-5498D01*
X-22997Y-5592D01*
X-23043Y-5701D01*
X-23058Y-5819D01*
X-23043Y-5936D01*
X-22997Y-6046D01*
X-22925Y-6140D01*
X-22831Y-6212D01*
X-22722Y-6257D01*
X-22604Y-6273D01*
X-22104D01*
X-21987Y-6257D01*
X-21877Y-6212D01*
X-21783Y-6140D01*
X-21711Y-6046D01*
X-21666Y-5936D01*
X-21650Y-5819D01*
X-21666Y-5701D01*
X-21711Y-5592D01*
X-21783Y-5498D01*
X-21877Y-5426D01*
X-21987Y-5380D01*
X-22104Y-5365D01*
D02*
G37*
G36*
X-29994Y-6028D02*
X-30093Y-6069D01*
X-30184Y-6139D01*
X-30254Y-6230D01*
X-30295Y-6329D01*
X-29994D01*
Y-6028D01*
D02*
G37*
G36*
X-29754D02*
Y-6329D01*
X-29453D01*
X-29494Y-6230D01*
X-29564Y-6139D01*
X-29655Y-6069D01*
X-29754Y-6028D01*
D02*
G37*
G36*
X40762Y-4813D02*
X40190D01*
X40192Y-4830D01*
X40232Y-4962D01*
X40297Y-5084D01*
X40385Y-5190D01*
X40491Y-5278D01*
X40613Y-5343D01*
X40745Y-5383D01*
X40762Y-5384D01*
Y-4813D01*
D02*
G37*
G36*
Y-4001D02*
X40745Y-4003D01*
X40613Y-4043D01*
X40491Y-4108D01*
X40385Y-4196D01*
X40297Y-4302D01*
X40232Y-4424D01*
X40192Y-4556D01*
X40190Y-4573D01*
X40762D01*
Y-4001D01*
D02*
G37*
G36*
X41002D02*
Y-4573D01*
X41573D01*
X41572Y-4556D01*
X41532Y-4424D01*
X41467Y-4302D01*
X41379Y-4196D01*
X41273Y-4108D01*
X41151Y-4043D01*
X41019Y-4003D01*
X41002Y-4001D01*
D02*
G37*
G36*
X-22104Y-4365D02*
X-22604D01*
X-22722Y-4380D01*
X-22831Y-4426D01*
X-22925Y-4498D01*
X-22997Y-4592D01*
X-23043Y-4701D01*
X-23058Y-4819D01*
X-23043Y-4936D01*
X-22997Y-5046D01*
X-22925Y-5140D01*
X-22831Y-5212D01*
X-22722Y-5257D01*
X-22604Y-5273D01*
X-22104D01*
X-21987Y-5257D01*
X-21877Y-5212D01*
X-21783Y-5140D01*
X-21711Y-5046D01*
X-21666Y-4936D01*
X-21650Y-4819D01*
X-21666Y-4701D01*
X-21711Y-4592D01*
X-21783Y-4498D01*
X-21877Y-4426D01*
X-21987Y-4380D01*
X-22104Y-4365D01*
D02*
G37*
G36*
X41573Y-4813D02*
X41002D01*
Y-5384D01*
X41019Y-5383D01*
X41151Y-5343D01*
X41273Y-5278D01*
X41379Y-5190D01*
X41467Y-5084D01*
X41532Y-4962D01*
X41572Y-4830D01*
X41573Y-4813D01*
D02*
G37*
G36*
X-26104Y-4365D02*
X-26604D01*
X-26722Y-4380D01*
X-26831Y-4426D01*
X-26925Y-4498D01*
X-26997Y-4592D01*
X-27043Y-4701D01*
X-27058Y-4819D01*
X-27043Y-4936D01*
X-26997Y-5046D01*
X-26925Y-5140D01*
X-26831Y-5212D01*
X-26722Y-5257D01*
X-26604Y-5273D01*
X-26104D01*
X-25987Y-5257D01*
X-25877Y-5212D01*
X-25783Y-5140D01*
X-25711Y-5046D01*
X-25666Y-4936D01*
X-25650Y-4819D01*
X-25666Y-4701D01*
X-25711Y-4592D01*
X-25783Y-4498D01*
X-25877Y-4426D01*
X-25987Y-4380D01*
X-26104Y-4365D01*
D02*
G37*
G36*
X-21775Y-6939D02*
X-22234D01*
Y-7172D01*
X-22104D01*
X-22013Y-7160D01*
X-21928Y-7125D01*
X-21855Y-7069D01*
X-21799Y-6995D01*
X-21775Y-6939D01*
D02*
G37*
G36*
X43154Y-4280D02*
X41955D01*
Y-7080D01*
X43154D01*
Y-4280D01*
D02*
G37*
G36*
X-22474Y-6939D02*
X-22933D01*
X-22910Y-6995D01*
X-22854Y-7069D01*
X-22781Y-7125D01*
X-22696Y-7160D01*
X-22604Y-7172D01*
X-22474D01*
Y-6939D01*
D02*
G37*
G36*
X41582Y-6813D02*
X41002D01*
Y-7393D01*
X41582D01*
Y-6813D01*
D02*
G37*
G36*
X-26104Y-6365D02*
X-26604D01*
X-26722Y-6380D01*
X-26831Y-6426D01*
X-26925Y-6498D01*
X-26997Y-6592D01*
X-27043Y-6701D01*
X-27058Y-6819D01*
X-27043Y-6936D01*
X-26997Y-7046D01*
X-26925Y-7140D01*
X-26831Y-7212D01*
X-26722Y-7257D01*
X-26604Y-7273D01*
X-26104D01*
X-25987Y-7257D01*
X-25877Y-7212D01*
X-25783Y-7140D01*
X-25711Y-7046D01*
X-25666Y-6936D01*
X-25650Y-6819D01*
X-25666Y-6701D01*
X-25711Y-6592D01*
X-25783Y-6498D01*
X-25877Y-6426D01*
X-25987Y-6380D01*
X-26104Y-6365D01*
D02*
G37*
G36*
X-29994Y-6569D02*
X-30295D01*
X-30254Y-6668D01*
X-30184Y-6759D01*
X-30093Y-6828D01*
X-29994Y-6870D01*
Y-6569D01*
D02*
G37*
G36*
X40762Y-5993D02*
X40182D01*
Y-6573D01*
X40762D01*
Y-5993D01*
D02*
G37*
G36*
X41582D02*
X41002D01*
Y-6573D01*
X41582D01*
Y-5993D01*
D02*
G37*
G36*
X-22104Y-6466D02*
X-22234D01*
Y-6699D01*
X-21775D01*
X-21799Y-6642D01*
X-21855Y-6569D01*
X-21928Y-6513D01*
X-22013Y-6478D01*
X-22104Y-6466D01*
D02*
G37*
G36*
X-29453Y-6569D02*
X-29754D01*
Y-6870D01*
X-29655Y-6828D01*
X-29564Y-6759D01*
X-29494Y-6668D01*
X-29453Y-6569D01*
D02*
G37*
G36*
X-22474Y-6466D02*
X-22604D01*
X-22696Y-6478D01*
X-22781Y-6513D01*
X-22854Y-6569D01*
X-22910Y-6642D01*
X-22933Y-6699D01*
X-22474D01*
Y-6466D01*
D02*
G37*
G36*
X29791Y422D02*
X29311D01*
Y-58D01*
X29791D01*
Y422D01*
D02*
G37*
G36*
X4463Y372D02*
X3805D01*
X3828Y316D01*
X3884Y243D01*
X3957Y186D01*
X4042Y151D01*
X4134Y139D01*
X4225Y151D01*
X4310Y186D01*
X4383Y243D01*
X4440Y316D01*
X4463Y372D01*
D02*
G37*
G36*
X29071Y422D02*
X28591D01*
Y-58D01*
X29071D01*
Y422D01*
D02*
G37*
G36*
X23091Y1242D02*
X21691D01*
Y-158D01*
X23091D01*
Y1242D01*
D02*
G37*
G36*
X-32461Y2673D02*
X-32677Y2656D01*
X-32889Y2605D01*
X-33090Y2522D01*
X-33275Y2408D01*
X-33440Y2267D01*
X-33581Y2102D01*
X-33695Y1916D01*
X-33778Y1716D01*
X-33829Y1504D01*
X-33846Y1287D01*
X-33829Y1071D01*
X-33778Y859D01*
X-33695Y658D01*
X-33581Y473D01*
X-33440Y308D01*
X-33275Y167D01*
X-33090Y53D01*
X-32889Y-30D01*
X-32677Y-81D01*
X-32461Y-98D01*
X-32244Y-81D01*
X-32033Y-30D01*
X-31832Y53D01*
X-31646Y167D01*
X-31481Y308D01*
X-31340Y473D01*
X-31226Y658D01*
X-31143Y859D01*
X-31092Y1071D01*
X-31075Y1287D01*
X-31092Y1504D01*
X-31143Y1716D01*
X-31226Y1916D01*
X-31340Y2102D01*
X-31481Y2267D01*
X-31646Y2408D01*
X-31832Y2522D01*
X-32033Y2605D01*
X-32244Y2656D01*
X-32461Y2673D01*
D02*
G37*
G36*
X12745Y1534D02*
X11145D01*
Y334D01*
X12745D01*
Y1534D01*
D02*
G37*
G36*
X9427Y734D02*
X9164D01*
X9198Y653D01*
X9262Y569D01*
X9346Y505D01*
X9427Y471D01*
Y734D01*
D02*
G37*
G36*
X9930D02*
X9667D01*
Y471D01*
X9749Y505D01*
X9833Y569D01*
X9897Y653D01*
X9930Y734D01*
D02*
G37*
G36*
X-3206Y581D02*
X-3415D01*
Y372D01*
X-3359Y395D01*
X-3286Y451D01*
X-3230Y524D01*
X-3206Y581D01*
D02*
G37*
G36*
X10547Y1359D02*
X10417Y1341D01*
X10295Y1291D01*
X10191Y1211D01*
X10110Y1106D01*
X10060Y985D01*
X10043Y854D01*
X10060Y724D01*
X10110Y602D01*
X10191Y498D01*
X10295Y418D01*
X10417Y367D01*
X10547Y350D01*
X10678Y367D01*
X10799Y418D01*
X10904Y498D01*
X10984Y602D01*
X11034Y724D01*
X11052Y854D01*
X11034Y985D01*
X10984Y1106D01*
X10904Y1211D01*
X10799Y1291D01*
X10678Y1341D01*
X10547Y1359D01*
D02*
G37*
G36*
X-3655Y581D02*
X-3865D01*
X-3841Y524D01*
X-3785Y451D01*
X-3712Y395D01*
X-3655Y372D01*
Y581D01*
D02*
G37*
G36*
X43229Y-194D02*
X42029D01*
Y-2993D01*
X43229D01*
Y-194D01*
D02*
G37*
G36*
X-23943Y-518D02*
X-24152D01*
X-24129Y-574D01*
X-24072Y-647D01*
X-23999Y-703D01*
X-23943Y-727D01*
Y-518D01*
D02*
G37*
G36*
X40968Y461D02*
X40812Y446D01*
X40661Y400D01*
X40522Y326D01*
X40400Y226D01*
X40300Y104D01*
X40226Y-35D01*
X40180Y-186D01*
X40165Y-343D01*
X40180Y-499D01*
X40226Y-650D01*
X40300Y-789D01*
X40400Y-911D01*
X40522Y-1011D01*
X40568Y-1036D01*
Y-1543D01*
X40168D01*
Y-3143D01*
X41768D01*
Y-1543D01*
X41369D01*
Y-1036D01*
X41415Y-1011D01*
X41537Y-911D01*
X41637Y-789D01*
X41711Y-650D01*
X41757Y-499D01*
X41772Y-343D01*
X41757Y-186D01*
X41711Y-35D01*
X41637Y104D01*
X41537Y226D01*
X41415Y326D01*
X41276Y400D01*
X41125Y446D01*
X40968Y461D01*
D02*
G37*
G36*
X-26685Y-2655D02*
X-26713D01*
X-26816Y-2668D01*
X-26913Y-2708D01*
X-26996Y-2772D01*
X-27059Y-2855D01*
X-27099Y-2952D01*
X-27113Y-3055D01*
X-27099Y-3159D01*
X-27059Y-3255D01*
X-27006Y-3324D01*
X-27029Y-3369D01*
X-27054D01*
Y-4269D01*
X-25654D01*
Y-3369D01*
X-26355D01*
X-26377Y-3324D01*
X-26331Y-3263D01*
X-26291Y-3167D01*
X-26277Y-3063D01*
X-26291Y-2959D01*
X-26331Y-2863D01*
X-26394Y-2780D01*
X-26402Y-2772D01*
X-26485Y-2708D01*
X-26553Y-2680D01*
X-26581Y-2668D01*
X-26685Y-2655D01*
D02*
G37*
G36*
X-22398Y-1211D02*
X-22515Y-1227D01*
X-22625Y-1272D01*
X-22719Y-1344D01*
X-22791Y-1438D01*
X-22836Y-1548D01*
X-22852Y-1665D01*
X-22836Y-1783D01*
X-22791Y-1892D01*
X-22755Y-1939D01*
Y-3394D01*
X-22831Y-3426D01*
X-22925Y-3498D01*
X-22997Y-3592D01*
X-23043Y-3701D01*
X-23058Y-3819D01*
X-23043Y-3936D01*
X-22997Y-4046D01*
X-22925Y-4140D01*
X-22831Y-4212D01*
X-22722Y-4257D01*
X-22604Y-4273D01*
X-22104D01*
X-21987Y-4257D01*
X-21877Y-4212D01*
X-21877Y-4211D01*
X-20619D01*
X-20527Y-4249D01*
X-20409Y-4265D01*
X-20292Y-4249D01*
X-20183Y-4204D01*
X-20089Y-4132D01*
X-20016Y-4038D01*
X-19971Y-3929D01*
X-19956Y-3811D01*
X-19971Y-3694D01*
X-20016Y-3584D01*
X-20089Y-3490D01*
X-20183Y-3418D01*
X-20292Y-3373D01*
X-20409Y-3357D01*
X-20527Y-3373D01*
X-20619Y-3411D01*
X-21914D01*
X-21954Y-3394D01*
Y-1748D01*
X-21954Y-1746D01*
X-21944Y-1665D01*
X-21959Y-1548D01*
X-22005Y-1438D01*
X-22077Y-1344D01*
X-22171Y-1272D01*
X-22280Y-1227D01*
X-22398Y-1211D01*
D02*
G37*
G36*
X-23494Y-518D02*
X-23703D01*
Y-727D01*
X-23646Y-703D01*
X-23573Y-647D01*
X-23517Y-574D01*
X-23494Y-518D01*
D02*
G37*
G36*
X37981Y308D02*
X37501D01*
Y-172D01*
X37981D01*
Y308D01*
D02*
G37*
G36*
X38701D02*
X38221D01*
Y-172D01*
X38701D01*
Y308D01*
D02*
G37*
G36*
X32001Y1128D02*
X30601D01*
Y-272D01*
X32001D01*
Y1128D01*
D02*
G37*
G36*
X-23943Y-69D02*
X-23999Y-92D01*
X-24072Y-148D01*
X-24129Y-221D01*
X-24152Y-278D01*
X-23943D01*
Y-69D01*
D02*
G37*
G36*
X-23703D02*
Y-278D01*
X-23494D01*
X-23517Y-221D01*
X-23573Y-148D01*
X-23646Y-92D01*
X-23703Y-69D01*
D02*
G37*
G36*
X38751Y-14772D02*
X38271D01*
Y-15252D01*
X38751D01*
Y-14772D01*
D02*
G37*
G36*
X29121Y-14658D02*
X28641D01*
Y-15138D01*
X29121D01*
Y-14658D01*
D02*
G37*
G36*
X38031Y-14772D02*
X37551D01*
Y-15252D01*
X38031D01*
Y-14772D01*
D02*
G37*
G36*
X29841Y-15378D02*
X29361D01*
Y-15858D01*
X29841D01*
Y-15378D01*
D02*
G37*
G36*
X-30933Y-11965D02*
X-31150Y-11982D01*
X-31361Y-12033D01*
X-31562Y-12116D01*
X-31747Y-12230D01*
X-31913Y-12371D01*
X-32054Y-12536D01*
X-32167Y-12721D01*
X-32251Y-12922D01*
X-32301Y-13134D01*
X-32318Y-13350D01*
X-32301Y-13567D01*
X-32251Y-13779D01*
X-32167Y-13979D01*
X-32054Y-14165D01*
X-31913Y-14330D01*
X-31747Y-14471D01*
X-31562Y-14585D01*
X-31361Y-14668D01*
X-31150Y-14719D01*
X-30933Y-14736D01*
X-30716Y-14719D01*
X-30505Y-14668D01*
X-30304Y-14585D01*
X-30119Y-14471D01*
X-30038Y-14402D01*
X-29993Y-14423D01*
Y-15343D01*
X-25994D01*
Y-15175D01*
X-25947Y-15159D01*
X-25868Y-15261D01*
X-25752Y-15350D01*
X-25617Y-15406D01*
X-25472Y-15425D01*
X-25328Y-15406D01*
X-25193Y-15350D01*
X-25077Y-15261D01*
X-24997Y-15158D01*
X-24947D01*
X-24868Y-15261D01*
X-24752Y-15350D01*
X-24617Y-15406D01*
X-24472Y-15425D01*
X-24328Y-15406D01*
X-24193Y-15350D01*
X-24077Y-15261D01*
X-23997Y-15158D01*
X-23947D01*
X-23868Y-15261D01*
X-23752Y-15350D01*
X-23617Y-15406D01*
X-23472Y-15425D01*
X-23328Y-15406D01*
X-23193Y-15350D01*
X-23077Y-15261D01*
X-22988Y-15146D01*
X-22932Y-15011D01*
X-22913Y-14866D01*
X-22932Y-14721D01*
X-22988Y-14587D01*
X-23077Y-14471D01*
X-23181Y-14391D01*
Y-14341D01*
X-23077Y-14261D01*
X-22988Y-14146D01*
X-22932Y-14011D01*
X-22913Y-13866D01*
X-22932Y-13721D01*
X-22988Y-13587D01*
X-23077Y-13471D01*
X-23193Y-13382D01*
X-23328Y-13326D01*
X-23472Y-13307D01*
X-23617Y-13326D01*
X-23752Y-13382D01*
X-23868Y-13471D01*
X-23947Y-13575D01*
X-23997D01*
X-24077Y-13471D01*
X-24193Y-13382D01*
X-24328Y-13326D01*
X-24472Y-13307D01*
X-24617Y-13326D01*
X-24752Y-13382D01*
X-24868Y-13471D01*
X-24947Y-13575D01*
X-24997D01*
X-25077Y-13471D01*
X-25193Y-13382D01*
X-25328Y-13326D01*
X-25472Y-13307D01*
X-25617Y-13326D01*
X-25752Y-13382D01*
X-25868Y-13471D01*
X-25957Y-13587D01*
X-26012Y-13721D01*
X-26032Y-13866D01*
X-26012Y-14011D01*
X-25975Y-14102D01*
X-25989Y-14123D01*
D01*
X-26003Y-14144D01*
D01*
X-27124D01*
Y-13285D01*
X-29324D01*
Y-14144D01*
X-29748D01*
X-29773Y-14100D01*
X-29699Y-13979D01*
X-29615Y-13779D01*
X-29565Y-13567D01*
X-29548Y-13350D01*
X-29565Y-13134D01*
X-29615Y-12922D01*
X-29699Y-12721D01*
X-29812Y-12536D01*
X-29953Y-12371D01*
X-30119Y-12230D01*
X-30304Y-12116D01*
X-30505Y-12033D01*
X-30716Y-11982D01*
X-30933Y-11965D01*
D02*
G37*
G36*
X39837Y-14250D02*
X39628D01*
Y-14459D01*
X39684Y-14436D01*
X39757Y-14380D01*
X39814Y-14306D01*
X39837Y-14250D01*
D02*
G37*
G36*
X34559Y-7985D02*
X33159D01*
Y-14083D01*
X34559D01*
Y-12713D01*
X35457D01*
Y-8714D01*
X34559D01*
Y-7985D01*
D02*
G37*
G36*
X39388Y-14250D02*
X39179D01*
X39202Y-14306D01*
X39258Y-14380D01*
X39331Y-14436D01*
X39388Y-14459D01*
Y-14250D01*
D02*
G37*
G36*
X29841Y-14658D02*
X29361D01*
Y-15138D01*
X29841D01*
Y-14658D01*
D02*
G37*
G36*
X26031Y-1864D02*
X24632D01*
Y-14560D01*
X26031D01*
Y-1864D01*
D02*
G37*
G36*
X29121Y-15378D02*
X28641D01*
Y-15858D01*
X29121D01*
Y-15378D01*
D02*
G37*
G36*
X32854Y-18475D02*
X32737Y-18491D01*
X32627Y-18536D01*
X32533Y-18608D01*
X32461Y-18702D01*
X32416Y-18812D01*
X32400Y-18929D01*
X32416Y-19047D01*
X32461Y-19156D01*
X32533Y-19250D01*
X32627Y-19322D01*
X32737Y-19368D01*
X32854Y-19383D01*
X32972Y-19368D01*
X33081Y-19322D01*
X33175Y-19250D01*
X33247Y-19156D01*
X33293Y-19047D01*
X33308Y-18929D01*
X33293Y-18812D01*
X33247Y-18702D01*
X33175Y-18608D01*
X33081Y-18536D01*
X32972Y-18491D01*
X32854Y-18475D01*
D02*
G37*
G36*
X36650Y-16974D02*
X33251D01*
Y-18174D01*
X35099D01*
X35121Y-18219D01*
X35039Y-18325D01*
X34984Y-18459D01*
X34965Y-18602D01*
X34984Y-18746D01*
X35039Y-18880D01*
X35127Y-18995D01*
X35242Y-19083D01*
X35376Y-19138D01*
X35520Y-19157D01*
X35663Y-19138D01*
X35797Y-19083D01*
X35912Y-18995D01*
X35995Y-18887D01*
X36045D01*
X36127Y-18995D01*
X36242Y-19083D01*
X36376Y-19138D01*
X36520Y-19157D01*
X36663Y-19138D01*
X36797Y-19083D01*
X36912Y-18995D01*
X37000Y-18880D01*
X37056Y-18746D01*
X37074Y-18602D01*
X37056Y-18459D01*
X37000Y-18325D01*
X36912Y-18210D01*
X36797Y-18122D01*
X36663Y-18067D01*
X36650Y-18065D01*
Y-16974D01*
D02*
G37*
G36*
X31072Y-18462D02*
X30917Y-18477D01*
X30768Y-18522D01*
X30631Y-18595D01*
X30510Y-18694D01*
X30412Y-18815D01*
X30338Y-18952D01*
X30293Y-19101D01*
X30278Y-19256D01*
X30293Y-19411D01*
X30338Y-19560D01*
X30412Y-19697D01*
X30510Y-19818D01*
X30631Y-19916D01*
X30768Y-19990D01*
X30917Y-20035D01*
X31072Y-20050D01*
X31227Y-20035D01*
X31376Y-19990D01*
X31513Y-19916D01*
X31634Y-19818D01*
X31733Y-19697D01*
X31806Y-19560D01*
X31851Y-19411D01*
X31866Y-19256D01*
X31851Y-19101D01*
X31806Y-18952D01*
X31733Y-18815D01*
X31634Y-18694D01*
X31513Y-18595D01*
X31376Y-18522D01*
X31227Y-18477D01*
X31072Y-18462D01*
D02*
G37*
G36*
X20961Y-20162D02*
X20817Y-20181D01*
X20683Y-20236D01*
X20568Y-20324D01*
X20480Y-20439D01*
X20425Y-20573D01*
X20406Y-20717D01*
X20425Y-20860D01*
X20480Y-20994D01*
X20568Y-21109D01*
X20676Y-21192D01*
Y-21242D01*
X20568Y-21324D01*
X20480Y-21439D01*
X20425Y-21573D01*
X20406Y-21717D01*
X20425Y-21860D01*
X20480Y-21994D01*
X20568Y-22109D01*
X20683Y-22197D01*
X20817Y-22252D01*
X20961Y-22271D01*
X21104Y-22252D01*
X21238Y-22197D01*
X21353Y-22109D01*
X21441Y-21994D01*
X21490Y-21877D01*
X21539Y-21887D01*
Y-22233D01*
X29036D01*
Y-21033D01*
X21539D01*
Y-21546D01*
X21490Y-21556D01*
X21441Y-21439D01*
X21353Y-21324D01*
X21245Y-21242D01*
Y-21192D01*
X21353Y-21109D01*
X21441Y-20994D01*
X21496Y-20860D01*
X21515Y-20717D01*
X21496Y-20573D01*
X21441Y-20439D01*
X21353Y-20324D01*
X21238Y-20236D01*
X21104Y-20181D01*
X20961Y-20162D01*
D02*
G37*
G36*
X22372Y-18462D02*
X22217Y-18477D01*
X22068Y-18522D01*
X21931Y-18595D01*
X21810Y-18694D01*
X21712Y-18815D01*
X21638Y-18952D01*
X21593Y-19101D01*
X21578Y-19256D01*
X21593Y-19411D01*
X21638Y-19560D01*
X21712Y-19697D01*
X21810Y-19818D01*
X21931Y-19916D01*
X22068Y-19990D01*
X22217Y-20035D01*
X22372Y-20050D01*
X22527Y-20035D01*
X22676Y-19990D01*
X22813Y-19916D01*
X22934Y-19818D01*
X23033Y-19697D01*
X23106Y-19560D01*
X23151Y-19411D01*
X23166Y-19256D01*
X23151Y-19101D01*
X23106Y-18952D01*
X23033Y-18815D01*
X22934Y-18694D01*
X22813Y-18595D01*
X22676Y-18522D01*
X22527Y-18477D01*
X22372Y-18462D01*
D02*
G37*
G36*
X38031Y-15492D02*
X37551D01*
Y-15972D01*
X38031D01*
Y-15492D01*
D02*
G37*
G36*
X38751D02*
X38271D01*
Y-15972D01*
X38751D01*
Y-15492D01*
D02*
G37*
G36*
X23041Y-14608D02*
X21641D01*
Y-16008D01*
X23041D01*
Y-14608D01*
D02*
G37*
G36*
X40666Y-17978D02*
X40348D01*
Y-18296D01*
X40455Y-18251D01*
X40549Y-18179D01*
X40621Y-18085D01*
X40666Y-17978D01*
D02*
G37*
G36*
X31951Y-14722D02*
X30551D01*
Y-16122D01*
X31951D01*
Y-14722D01*
D02*
G37*
G36*
X39388Y-13801D02*
X39331Y-13824D01*
X39258Y-13880D01*
X39202Y-13953D01*
X39179Y-14010D01*
X39388D01*
Y-13801D01*
D02*
G37*
G36*
X-26474Y-10466D02*
X-26604D01*
X-26696Y-10478D01*
X-26781Y-10513D01*
X-26854Y-10569D01*
X-26910Y-10642D01*
X-26933Y-10699D01*
X-26474D01*
Y-10466D01*
D02*
G37*
G36*
X-26104D02*
X-26234D01*
Y-10699D01*
X-25775D01*
X-25799Y-10642D01*
X-25855Y-10569D01*
X-25928Y-10513D01*
X-26013Y-10478D01*
X-26104Y-10466D01*
D02*
G37*
G36*
X-25775Y-10939D02*
X-26234D01*
Y-11172D01*
X-26104D01*
X-26013Y-11160D01*
X-25928Y-11125D01*
X-25855Y-11069D01*
X-25799Y-10995D01*
X-25775Y-10939D01*
D02*
G37*
G36*
X-22104Y-10365D02*
X-22604D01*
X-22722Y-10380D01*
X-22831Y-10426D01*
X-22925Y-10498D01*
X-22997Y-10592D01*
X-23043Y-10701D01*
X-23058Y-10819D01*
X-23043Y-10936D01*
X-22997Y-11046D01*
X-22925Y-11140D01*
X-22831Y-11212D01*
X-22722Y-11257D01*
X-22604Y-11273D01*
X-22104D01*
X-21987Y-11257D01*
X-21877Y-11212D01*
X-21783Y-11140D01*
X-21711Y-11046D01*
X-21666Y-10936D01*
X-21650Y-10819D01*
X-21666Y-10701D01*
X-21711Y-10592D01*
X-21783Y-10498D01*
X-21877Y-10426D01*
X-21987Y-10380D01*
X-22104Y-10365D01*
D02*
G37*
G36*
X-26474Y-10939D02*
X-26933D01*
X-26910Y-10995D01*
X-26854Y-11069D01*
X-26781Y-11125D01*
X-26696Y-11160D01*
X-26604Y-11172D01*
X-26474D01*
Y-10939D01*
D02*
G37*
G36*
X-22104Y-7365D02*
X-22604D01*
X-22722Y-7380D01*
X-22831Y-7426D01*
X-22925Y-7498D01*
X-22997Y-7592D01*
X-23043Y-7701D01*
X-23058Y-7819D01*
X-23043Y-7936D01*
X-22997Y-8046D01*
X-22925Y-8140D01*
X-22831Y-8212D01*
X-22722Y-8257D01*
X-22604Y-8273D01*
X-22104D01*
X-21987Y-8257D01*
X-21877Y-8212D01*
X-21783Y-8140D01*
X-21711Y-8046D01*
X-21666Y-7936D01*
X-21650Y-7819D01*
X-21666Y-7701D01*
X-21711Y-7592D01*
X-21783Y-7498D01*
X-21877Y-7426D01*
X-21987Y-7380D01*
X-22104Y-7365D01*
D02*
G37*
G36*
X40762Y-6813D02*
X40182D01*
Y-7393D01*
X40762D01*
Y-6813D01*
D02*
G37*
G36*
X-26104Y-7365D02*
X-26604D01*
X-26722Y-7380D01*
X-26831Y-7426D01*
X-26925Y-7498D01*
X-26997Y-7592D01*
X-27043Y-7701D01*
X-27058Y-7819D01*
X-27043Y-7936D01*
X-26997Y-8046D01*
X-26925Y-8140D01*
X-26831Y-8212D01*
X-26722Y-8257D01*
X-26604Y-8273D01*
X-26104D01*
X-25987Y-8257D01*
X-25877Y-8212D01*
X-25783Y-8140D01*
X-25711Y-8046D01*
X-25666Y-7936D01*
X-25650Y-7819D01*
X-25666Y-7701D01*
X-25711Y-7592D01*
X-25783Y-7498D01*
X-25877Y-7426D01*
X-25987Y-7380D01*
X-26104Y-7365D01*
D02*
G37*
G36*
X-22104Y-9365D02*
X-22604D01*
X-22722Y-9380D01*
X-22831Y-9426D01*
X-22925Y-9498D01*
X-22997Y-9592D01*
X-23043Y-9701D01*
X-23058Y-9819D01*
X-23043Y-9936D01*
X-22997Y-10046D01*
X-22925Y-10140D01*
X-22831Y-10212D01*
X-22722Y-10257D01*
X-22604Y-10273D01*
X-22104D01*
X-21987Y-10257D01*
X-21877Y-10212D01*
X-21783Y-10140D01*
X-21711Y-10046D01*
X-21666Y-9936D01*
X-21650Y-9819D01*
X-21666Y-9701D01*
X-21711Y-9592D01*
X-21783Y-9498D01*
X-21877Y-9426D01*
X-21987Y-9380D01*
X-22104Y-9365D01*
D02*
G37*
G36*
Y-8365D02*
X-22604D01*
X-22722Y-8380D01*
X-22831Y-8426D01*
X-22925Y-8498D01*
X-22997Y-8592D01*
X-23043Y-8701D01*
X-23058Y-8819D01*
X-23043Y-8936D01*
X-22997Y-9046D01*
X-22925Y-9140D01*
X-22831Y-9212D01*
X-22722Y-9257D01*
X-22604Y-9273D01*
X-22104D01*
X-21987Y-9257D01*
X-21877Y-9212D01*
X-21783Y-9140D01*
X-21711Y-9046D01*
X-21666Y-8936D01*
X-21650Y-8819D01*
X-21666Y-8701D01*
X-21711Y-8592D01*
X-21783Y-8498D01*
X-21877Y-8426D01*
X-21987Y-8380D01*
X-22104Y-8365D01*
D02*
G37*
G36*
X-29369Y-10112D02*
X-34867D01*
Y-11312D01*
X-29369D01*
Y-10112D01*
D02*
G37*
G36*
X39947Y-12377D02*
X39717D01*
Y-12557D01*
X39947D01*
Y-12377D01*
D02*
G37*
G36*
X40417D02*
X40187D01*
Y-12557D01*
X40417D01*
Y-12377D01*
D02*
G37*
G36*
Y-12797D02*
X40187D01*
Y-12977D01*
X40417D01*
Y-12797D01*
D02*
G37*
G36*
X39628Y-13801D02*
Y-14010D01*
X39837D01*
X39814Y-13953D01*
X39757Y-13880D01*
X39684Y-13824D01*
X39628Y-13801D01*
D02*
G37*
G36*
X39947Y-12797D02*
X39717D01*
Y-12977D01*
X39947D01*
Y-12797D01*
D02*
G37*
G36*
X-26234Y-11521D02*
Y-11730D01*
X-26025D01*
X-26049Y-11674D01*
X-26105Y-11601D01*
X-26178Y-11545D01*
X-26234Y-11521D01*
D02*
G37*
G36*
X-19874Y-7360D02*
X-21274D01*
Y-11359D01*
X-19874D01*
Y-7360D01*
D02*
G37*
G36*
X-26474Y-11521D02*
X-26531Y-11545D01*
X-26604Y-11601D01*
X-26660Y-11674D01*
X-26683Y-11730D01*
X-26474D01*
Y-11521D01*
D02*
G37*
G36*
Y-11970D02*
X-26683D01*
X-26660Y-12027D01*
X-26604Y-12100D01*
X-26531Y-12156D01*
X-26474Y-12180D01*
Y-11970D01*
D02*
G37*
G36*
X-26025D02*
X-26234D01*
Y-12180D01*
X-26178Y-12156D01*
X-26105Y-12100D01*
X-26049Y-12027D01*
X-26025Y-11970D01*
D02*
G37*
G36*
X299Y2849D02*
X-2501D01*
Y1649D01*
X-2446D01*
Y491D01*
X154D01*
Y1649D01*
X299D01*
Y2849D01*
D02*
G37*
G36*
X-15293Y6698D02*
Y6435D01*
X-15030D01*
X-15064Y6517D01*
X-15128Y6600D01*
X-15212Y6664D01*
X-15293Y6698D01*
D02*
G37*
G36*
X-10110Y7114D02*
X-10255Y7095D01*
X-10390Y7039D01*
X-10506Y6950D01*
X-10585Y6847D01*
X-10635D01*
X-10715Y6950D01*
X-10831Y7039D01*
X-10966Y7095D01*
X-11110Y7114D01*
X-11255Y7095D01*
X-11390Y7039D01*
X-11506Y6950D01*
X-11585Y6847D01*
X-11635D01*
X-11715Y6950D01*
X-11831Y7039D01*
X-11966Y7095D01*
X-12110Y7114D01*
X-12255Y7095D01*
X-12390Y7039D01*
X-12506Y6950D01*
X-12594Y6835D01*
X-12650Y6700D01*
X-12669Y6555D01*
X-12650Y6410D01*
X-12594Y6276D01*
X-12506Y6160D01*
X-12402Y6080D01*
Y6030D01*
X-12506Y5950D01*
X-12594Y5835D01*
X-12650Y5700D01*
X-12669Y5555D01*
X-12650Y5410D01*
X-12594Y5276D01*
X-12506Y5160D01*
X-12390Y5071D01*
X-12255Y5015D01*
X-12110Y4996D01*
X-11966Y5015D01*
X-11831Y5071D01*
X-11715Y5160D01*
X-11635Y5264D01*
X-11585D01*
X-11506Y5160D01*
X-11390Y5071D01*
X-11255Y5015D01*
X-11110Y4996D01*
X-10966Y5015D01*
X-10831Y5071D01*
X-10715Y5160D01*
X-10635Y5264D01*
X-10585D01*
X-10506Y5160D01*
X-10390Y5071D01*
X-10255Y5015D01*
X-10110Y4996D01*
X-9966Y5015D01*
X-9831Y5071D01*
X-9715Y5160D01*
X-9626Y5276D01*
X-9570Y5410D01*
X-9551Y5555D01*
X-9570Y5700D01*
X-9626Y5835D01*
X-9715Y5950D01*
X-9819Y6030D01*
Y6080D01*
X-9715Y6160D01*
X-9626Y6276D01*
X-9570Y6410D01*
X-9551Y6555D01*
X-9570Y6700D01*
X-9626Y6835D01*
X-9715Y6950D01*
X-9831Y7039D01*
X-9966Y7095D01*
X-10110Y7114D01*
D02*
G37*
G36*
X-15533Y6698D02*
X-15615Y6664D01*
X-15699Y6600D01*
X-15763Y6517D01*
X-15797Y6435D01*
X-15533D01*
Y6698D01*
D02*
G37*
G36*
Y6195D02*
X-15797D01*
X-15763Y6113D01*
X-15699Y6030D01*
X-15615Y5966D01*
X-15533Y5932D01*
Y6195D01*
D02*
G37*
G36*
X-15030D02*
X-15293D01*
Y5932D01*
X-15212Y5966D01*
X-15128Y6030D01*
X-15064Y6113D01*
X-15030Y6195D01*
D02*
G37*
G36*
X21435Y7624D02*
X20864D01*
X20865Y7607D01*
X20905Y7475D01*
X20970Y7353D01*
X21058Y7247D01*
X21164Y7159D01*
X21286Y7094D01*
X21418Y7054D01*
X21435Y7053D01*
Y7624D01*
D02*
G37*
G36*
Y8436D02*
X21418Y8434D01*
X21286Y8394D01*
X21164Y8329D01*
X21058Y8241D01*
X20970Y8135D01*
X20905Y8013D01*
X20865Y7881D01*
X20864Y7864D01*
X21435D01*
Y8436D01*
D02*
G37*
G36*
X21675D02*
Y7864D01*
X22247D01*
X22245Y7881D01*
X22205Y8013D01*
X22140Y8135D01*
X22052Y8241D01*
X21946Y8329D01*
X21824Y8394D01*
X21692Y8434D01*
X21675Y8436D01*
D02*
G37*
G36*
X18325Y7644D02*
X17754D01*
Y7072D01*
X17771Y7074D01*
X17903Y7114D01*
X18025Y7179D01*
X18131Y7266D01*
X18219Y7373D01*
X18284Y7495D01*
X18324Y7627D01*
X18325Y7644D01*
D02*
G37*
G36*
X22247Y7624D02*
X21675D01*
Y7053D01*
X21692Y7054D01*
X21824Y7094D01*
X21946Y7159D01*
X22052Y7247D01*
X22140Y7353D01*
X22205Y7475D01*
X22245Y7607D01*
X22247Y7624D01*
D02*
G37*
G36*
X17514Y7644D02*
X16942D01*
X16944Y7627D01*
X16984Y7495D01*
X17049Y7373D01*
X17136Y7266D01*
X17243Y7179D01*
X17365Y7114D01*
X17497Y7074D01*
X17514Y7072D01*
Y7644D01*
D02*
G37*
G36*
X18334Y6464D02*
X17754D01*
Y5884D01*
X18334D01*
Y6464D01*
D02*
G37*
G36*
X-17313Y11743D02*
X-17395Y11710D01*
X-17478Y11646D01*
X-17542Y11562D01*
X-17576Y11480D01*
X-17313D01*
Y11743D01*
D02*
G37*
G36*
X21555Y12926D02*
X21398Y12910D01*
X21247Y12865D01*
X21109Y12790D01*
X20987Y12690D01*
X20887Y12569D01*
X20812Y12430D01*
X20767Y12279D01*
X20751Y12122D01*
X20767Y11965D01*
X20812Y11814D01*
X20887Y11675D01*
X20987Y11554D01*
X21109Y11454D01*
X21247Y11379D01*
X21398Y11334D01*
X21555Y11318D01*
X21712Y11334D01*
X21863Y11379D01*
X22002Y11454D01*
X22124Y11554D01*
X22224Y11675D01*
X22298Y11814D01*
X22344Y11965D01*
X22359Y12122D01*
X22344Y12279D01*
X22298Y12430D01*
X22224Y12569D01*
X22124Y12690D01*
X22002Y12790D01*
X21863Y12865D01*
X21712Y12910D01*
X21555Y12926D01*
D02*
G37*
G36*
X-17073Y11743D02*
Y11480D01*
X-16810D01*
X-16844Y11562D01*
X-16908Y11646D01*
X-16991Y11710D01*
X-17073Y11743D01*
D02*
G37*
G36*
X17514Y5644D02*
X16934D01*
Y5064D01*
X17514D01*
Y5644D01*
D02*
G37*
G36*
X18334D02*
X17754D01*
Y5064D01*
X18334D01*
Y5644D01*
D02*
G37*
G36*
X16540Y7872D02*
X15340D01*
Y5672D01*
X16540D01*
Y7872D01*
D02*
G37*
G36*
X22255Y6444D02*
X21675D01*
Y5864D01*
X22255D01*
Y6444D01*
D02*
G37*
G36*
X17514Y6464D02*
X16934D01*
Y5884D01*
X17514D01*
Y6464D01*
D02*
G37*
G36*
X21435Y6444D02*
X20855D01*
Y5864D01*
X21435D01*
Y6444D01*
D02*
G37*
G36*
X-17185Y6819D02*
X-17316Y6802D01*
X-17437Y6752D01*
X-17542Y6672D01*
X-17622Y6567D01*
X-17672Y6445D01*
X-17689Y6315D01*
X-17672Y6184D01*
X-17622Y6063D01*
X-17542Y5958D01*
X-17437Y5878D01*
X-17316Y5828D01*
X-17185Y5811D01*
X-17055Y5828D01*
X-16933Y5878D01*
X-16828Y5958D01*
X-16748Y6063D01*
X-16698Y6184D01*
X-16681Y6315D01*
X-16698Y6445D01*
X-16748Y6567D01*
X-16828Y6672D01*
X-16933Y6752D01*
X-17055Y6802D01*
X-17185Y6819D01*
D02*
G37*
G36*
X17646Y12926D02*
X17489Y12910D01*
X17338Y12865D01*
X17199Y12790D01*
X17077Y12690D01*
X16977Y12569D01*
X16903Y12430D01*
X16857Y12279D01*
X16842Y12122D01*
X16857Y11965D01*
X16903Y11814D01*
X16977Y11675D01*
X17077Y11554D01*
X17199Y11454D01*
X17338Y11379D01*
X17489Y11334D01*
X17646Y11318D01*
X17802Y11334D01*
X17953Y11379D01*
X18092Y11454D01*
X18214Y11554D01*
X18314Y11675D01*
X18388Y11814D01*
X18434Y11965D01*
X18450Y12122D01*
X18434Y12279D01*
X18388Y12430D01*
X18314Y12569D01*
X18214Y12690D01*
X18092Y12790D01*
X17953Y12865D01*
X17802Y12910D01*
X17646Y12926D01*
D02*
G37*
G36*
X-5162Y10061D02*
X-5463D01*
Y9760D01*
X-5363Y9801D01*
X-5273Y9871D01*
X-5203Y9962D01*
X-5162Y10061D01*
D02*
G37*
G36*
X12528Y12673D02*
X12311Y12656D01*
X12099Y12605D01*
X11899Y12522D01*
X11713Y12408D01*
X11548Y12267D01*
X11407Y12102D01*
X11293Y11916D01*
X11210Y11716D01*
X11159Y11504D01*
X11142Y11287D01*
X11159Y11071D01*
X11210Y10859D01*
X11293Y10658D01*
X11407Y10473D01*
X11548Y10308D01*
X11713Y10167D01*
X11899Y10053D01*
X12099Y9970D01*
X12311Y9919D01*
X12528Y9902D01*
X12744Y9919D01*
X12956Y9970D01*
X13156Y10053D01*
X13342Y10167D01*
X13507Y10308D01*
X13648Y10473D01*
X13762Y10658D01*
X13845Y10859D01*
X13896Y11071D01*
X13913Y11287D01*
X13896Y11504D01*
X13845Y11716D01*
X13762Y11916D01*
X13648Y12102D01*
X13507Y12267D01*
X13342Y12408D01*
X13156Y12522D01*
X12956Y12605D01*
X12744Y12656D01*
X12528Y12673D01*
D02*
G37*
G36*
X-5703Y10061D02*
X-6003D01*
X-5962Y9962D01*
X-5893Y9871D01*
X-5802Y9801D01*
X-5703Y9760D01*
Y10061D01*
D02*
G37*
G36*
X-19715Y10770D02*
X-21115D01*
Y9570D01*
X-19715D01*
Y10770D01*
D02*
G37*
G36*
X16524Y11809D02*
X15325D01*
Y9609D01*
X16524D01*
Y11809D01*
D02*
G37*
G36*
X-6583Y10720D02*
X-6722Y10702D01*
X-6852Y10648D01*
X-6964Y10562D01*
X-7050Y10451D01*
X-7104Y10321D01*
X-7122Y10181D01*
X-7104Y10042D01*
X-7050Y9911D01*
X-6964Y9800D01*
X-6852Y9714D01*
X-6722Y9660D01*
X-6583Y9642D01*
X-6443Y9660D01*
X-6313Y9714D01*
X-6201Y9800D01*
X-6116Y9911D01*
X-6062Y10042D01*
X-6057Y10076D01*
X-6057D01*
X-6043Y10181D01*
X-6057Y10286D01*
X-6057D01*
X-6062Y10321D01*
X-6116Y10451D01*
X-6201Y10562D01*
X-6313Y10648D01*
X-6443Y10702D01*
X-6583Y10720D01*
D02*
G37*
G36*
X-17313Y11240D02*
X-17576D01*
X-17542Y11159D01*
X-17478Y11075D01*
X-17395Y11011D01*
X-17313Y10977D01*
Y11240D01*
D02*
G37*
G36*
X-16810D02*
X-17073D01*
Y10977D01*
X-16991Y11011D01*
X-16908Y11075D01*
X-16844Y11159D01*
X-16810Y11240D01*
D02*
G37*
G36*
X-5463Y10602D02*
Y10301D01*
X-5162D01*
X-5203Y10400D01*
X-5273Y10491D01*
X-5363Y10561D01*
X-5463Y10602D01*
D02*
G37*
G36*
X-14555Y11515D02*
X-14699Y11496D01*
X-14832Y11441D01*
X-14947Y11353D01*
X-15036Y11238D01*
X-15091Y11104D01*
X-15110Y10961D01*
X-15091Y10817D01*
X-15036Y10683D01*
X-14947Y10568D01*
X-14832Y10480D01*
X-14715Y10432D01*
Y10382D01*
X-14782Y10354D01*
X-14876Y10282D01*
X-14948Y10188D01*
X-14992Y10081D01*
X-14118D01*
X-14162Y10188D01*
X-14234Y10282D01*
X-14328Y10354D01*
X-14395Y10382D01*
Y10432D01*
X-14278Y10480D01*
X-14163Y10568D01*
X-14075Y10683D01*
X-14019Y10817D01*
X-14000Y10961D01*
X-14019Y11104D01*
X-14075Y11238D01*
X-14163Y11353D01*
X-14278Y11441D01*
X-14412Y11496D01*
X-14555Y11515D01*
D02*
G37*
G36*
X-5703Y10602D02*
X-5802Y10561D01*
X-5893Y10491D01*
X-5962Y10400D01*
X-6003Y10301D01*
X-5703D01*
Y10602D01*
D02*
G37*
G36*
X-14118Y9841D02*
X-14435D01*
Y9523D01*
X-14328Y9568D01*
X-14234Y9640D01*
X-14162Y9734D01*
X-14118Y9841D01*
D02*
G37*
G36*
X-16810Y8740D02*
X-17073D01*
Y8477D01*
X-16991Y8511D01*
X-16908Y8575D01*
X-16844Y8659D01*
X-16810Y8740D01*
D02*
G37*
G36*
X-17313Y9243D02*
X-17395Y9210D01*
X-17478Y9146D01*
X-17542Y9062D01*
X-17576Y8980D01*
X-17313D01*
Y9243D01*
D02*
G37*
G36*
Y8740D02*
X-17576D01*
X-17542Y8659D01*
X-17478Y8575D01*
X-17395Y8511D01*
X-17313Y8477D01*
Y8740D01*
D02*
G37*
G36*
X17514Y8455D02*
X17497Y8454D01*
X17365Y8414D01*
X17243Y8349D01*
X17136Y8261D01*
X17049Y8155D01*
X16984Y8033D01*
X16944Y7901D01*
X16942Y7884D01*
X17514D01*
Y8455D01*
D02*
G37*
G36*
X17754D02*
Y7884D01*
X18325D01*
X18324Y7901D01*
X18284Y8033D01*
X18219Y8155D01*
X18131Y8261D01*
X18025Y8349D01*
X17903Y8414D01*
X17771Y8454D01*
X17754Y8455D01*
D02*
G37*
G36*
X-17073Y9243D02*
Y8980D01*
X-16810D01*
X-16844Y9062D01*
X-16908Y9146D01*
X-16991Y9210D01*
X-17073Y9243D01*
D02*
G37*
G36*
X-10642Y12216D02*
X-10858Y12199D01*
X-11070Y12148D01*
X-11271Y12065D01*
X-11456Y11952D01*
X-11621Y11810D01*
X-11763Y11645D01*
X-11876Y11460D01*
X-11959Y11259D01*
X-12010Y11047D01*
X-12018Y10943D01*
X-13398D01*
Y9743D01*
X-11799D01*
Y9987D01*
X-11752Y10004D01*
X-11621Y9851D01*
X-11456Y9710D01*
X-11271Y9596D01*
X-11070Y9513D01*
X-10858Y9462D01*
X-10642Y9445D01*
X-10425Y9462D01*
X-10214Y9513D01*
X-10013Y9596D01*
X-9827Y9710D01*
X-9662Y9851D01*
X-9521Y10016D01*
X-9407Y10202D01*
X-9324Y10403D01*
X-9273Y10614D01*
X-9256Y10831D01*
X-9273Y11047D01*
X-9324Y11259D01*
X-9407Y11460D01*
X-9521Y11645D01*
X-9662Y11810D01*
X-9827Y11952D01*
X-10013Y12065D01*
X-10214Y12148D01*
X-10425Y12199D01*
X-10642Y12216D01*
D02*
G37*
G36*
X-14675Y9841D02*
X-14992D01*
X-14948Y9734D01*
X-14876Y9640D01*
X-14782Y9568D01*
X-14675Y9523D01*
Y9841D01*
D02*
G37*
G36*
X22355Y10922D02*
X20755D01*
Y9322D01*
X22355D01*
Y10922D01*
D02*
G37*
G36*
X20461Y12975D02*
X19061D01*
Y9176D01*
X20461D01*
Y12975D01*
D02*
G37*
G36*
X18446Y10922D02*
X16846D01*
Y9322D01*
X18446D01*
Y10922D01*
D02*
G37*
G36*
X4183Y2089D02*
X4003D01*
Y1859D01*
X4183D01*
Y2089D01*
D02*
G37*
G36*
X9560Y2429D02*
X9380D01*
Y2199D01*
X9560D01*
Y2429D01*
D02*
G37*
G36*
X-6587Y2968D02*
X-6730Y2949D01*
X-6864Y2894D01*
X-6979Y2806D01*
X-7067Y2691D01*
X-7122Y2557D01*
X-7141Y2413D01*
X-7122Y2270D01*
X-7067Y2136D01*
X-6979Y2021D01*
X-6864Y1933D01*
X-6730Y1878D01*
X-6587Y1859D01*
X-6443Y1878D01*
X-6309Y1933D01*
X-6194Y2021D01*
X-6119Y2120D01*
X-6069Y2113D01*
X-6067Y2108D01*
X-5979Y1994D01*
X-5864Y1905D01*
X-5730Y1850D01*
X-5587Y1831D01*
X-5443Y1850D01*
X-5309Y1905D01*
X-5194Y1994D01*
X-5106Y2108D01*
X-5051Y2242D01*
X-5032Y2386D01*
X-5051Y2529D01*
X-5106Y2663D01*
X-5194Y2778D01*
X-5309Y2866D01*
X-5443Y2922D01*
X-5587Y2941D01*
X-5730Y2922D01*
X-5864Y2866D01*
X-5979Y2778D01*
X-6055Y2679D01*
X-6104Y2686D01*
X-6106Y2691D01*
X-6194Y2806D01*
X-6309Y2894D01*
X-6443Y2949D01*
X-6587Y2968D01*
D02*
G37*
G36*
X9560Y1959D02*
X9380D01*
Y1729D01*
X9560D01*
Y1959D01*
D02*
G37*
G36*
X9980D02*
X9800D01*
Y1729D01*
X9980D01*
Y1959D01*
D02*
G37*
G36*
X4183Y2559D02*
X4003D01*
Y2329D01*
X4183D01*
Y2559D01*
D02*
G37*
G36*
X-3659Y2801D02*
X-3868D01*
X-3845Y2745D01*
X-3789Y2672D01*
X-3716Y2616D01*
X-3659Y2592D01*
Y2801D01*
D02*
G37*
G36*
X7445Y12505D02*
X7327Y12490D01*
X7218Y12444D01*
X7124Y12372D01*
X7052Y12278D01*
X7006Y12169D01*
X6991Y12051D01*
X7006Y11934D01*
X7052Y11824D01*
X7124Y11730D01*
X7218Y11658D01*
X7327Y11613D01*
X7445Y11597D01*
X7562Y11613D01*
X7654Y11651D01*
X8147D01*
Y8100D01*
X7021D01*
Y5901D01*
X8147D01*
Y2902D01*
X8109Y2810D01*
X8093Y2693D01*
X8109Y2575D01*
X8154Y2466D01*
X8226Y2372D01*
X8320Y2300D01*
X8430Y2254D01*
X8547Y2239D01*
X8665Y2254D01*
X8774Y2300D01*
X8868Y2372D01*
X8940Y2466D01*
X8986Y2575D01*
X9001Y2693D01*
X8986Y2810D01*
X8948Y2902D01*
Y11843D01*
X8934Y11946D01*
X8922Y11974D01*
X8894Y12043D01*
X8830Y12126D01*
X8622Y12334D01*
X8539Y12398D01*
X8470Y12426D01*
X8442Y12438D01*
X8339Y12451D01*
X7654D01*
X7562Y12490D01*
X7445Y12505D01*
D02*
G37*
G36*
X9980Y2429D02*
X9800D01*
Y2199D01*
X9980D01*
Y2429D01*
D02*
G37*
G36*
X5409Y3051D02*
X5266Y3032D01*
X5132Y2976D01*
X5017Y2888D01*
X4929Y2773D01*
X4874Y2640D01*
X4855Y2496D01*
X4874Y2352D01*
X4904Y2278D01*
X4877Y2237D01*
X4603D01*
Y2559D01*
X4423D01*
Y2209D01*
Y1859D01*
X4558D01*
Y1165D01*
X6099D01*
X6121Y1120D01*
X6110Y1106D01*
X6060Y985D01*
X6043Y854D01*
X6060Y724D01*
X6110Y602D01*
X6191Y498D01*
X6295Y418D01*
X6417Y367D01*
X6547Y350D01*
X6678Y367D01*
X6799Y418D01*
X6904Y498D01*
X6984Y602D01*
X7022Y695D01*
X7072D01*
X7110Y602D01*
X7191Y498D01*
X7295Y418D01*
X7417Y367D01*
X7547Y350D01*
X7678Y367D01*
X7799Y418D01*
X7904Y498D01*
X7984Y602D01*
X8022Y695D01*
X8072D01*
X8110Y602D01*
X8191Y498D01*
X8295Y418D01*
X8417Y367D01*
X8547Y350D01*
X8678Y367D01*
X8799Y418D01*
X8904Y498D01*
X8984Y602D01*
X9034Y724D01*
X9052Y854D01*
X9034Y985D01*
X8984Y1106D01*
X8904Y1211D01*
X8799Y1291D01*
X8678Y1341D01*
X8547Y1359D01*
X8417Y1341D01*
X8295Y1291D01*
X8191Y1211D01*
X8110Y1106D01*
X8072Y1014D01*
X8022D01*
X7984Y1106D01*
X7904Y1211D01*
X7799Y1291D01*
X7756Y1309D01*
Y2237D01*
X5942D01*
X5915Y2278D01*
X5945Y2352D01*
X5964Y2496D01*
X5945Y2640D01*
X5890Y2773D01*
X5802Y2888D01*
X5687Y2976D01*
X5553Y3032D01*
X5409Y3051D01*
D02*
G37*
G36*
X4095Y1500D02*
X3915D01*
Y1270D01*
X4095D01*
Y1500D01*
D02*
G37*
G36*
X29071Y1142D02*
X28591D01*
Y662D01*
X29071D01*
Y1142D01*
D02*
G37*
G36*
X29791D02*
X29311D01*
Y662D01*
X29791D01*
Y1142D01*
D02*
G37*
G36*
X4095Y1030D02*
X3495D01*
Y800D01*
X3882D01*
X3898Y752D01*
X3884Y742D01*
X3828Y669D01*
X3805Y612D01*
X4463D01*
X4440Y669D01*
X4383Y742D01*
X4310Y798D01*
X4225Y833D01*
X4134Y845D01*
X4133Y845D01*
X4095Y878D01*
Y1030D01*
D02*
G37*
G36*
X37981Y1028D02*
X37501D01*
Y548D01*
X37981D01*
Y1028D01*
D02*
G37*
G36*
X38701D02*
X38221D01*
Y548D01*
X38701D01*
Y1028D01*
D02*
G37*
G36*
X9667Y1238D02*
Y974D01*
X9930D01*
X9897Y1056D01*
X9833Y1140D01*
X9749Y1204D01*
X9667Y1238D01*
D02*
G37*
G36*
X3675Y1500D02*
X3495D01*
Y1270D01*
X3675D01*
Y1500D01*
D02*
G37*
G36*
X9427Y1238D02*
X9346Y1204D01*
X9262Y1140D01*
X9198Y1056D01*
X9164Y974D01*
X9427D01*
Y1238D01*
D02*
G37*
G36*
X-3655Y1030D02*
X-3712Y1007D01*
X-3785Y950D01*
X-3841Y877D01*
X-3865Y821D01*
X-3655D01*
Y1030D01*
D02*
G37*
G36*
X-3415D02*
Y821D01*
X-3206D01*
X-3230Y877D01*
X-3286Y950D01*
X-3359Y1007D01*
X-3415Y1030D01*
D02*
G37*
G36*
X-3210Y2801D02*
X-3419D01*
Y2592D01*
X-3363Y2616D01*
X-3290Y2672D01*
X-3234Y2745D01*
X-3210Y2801D01*
D02*
G37*
G36*
X-3703Y4602D02*
X-3802Y4561D01*
X-3893Y4491D01*
X-3962Y4400D01*
X-4003Y4301D01*
X-3703D01*
Y4602D01*
D02*
G37*
G36*
X-3463D02*
Y4301D01*
X-3162D01*
X-3203Y4400D01*
X-3273Y4491D01*
X-3363Y4561D01*
X-3463Y4602D01*
D02*
G37*
G36*
X-3162Y4061D02*
X-3463D01*
Y3760D01*
X-3363Y3801D01*
X-3273Y3871D01*
X-3203Y3962D01*
X-3162Y4061D01*
D02*
G37*
G36*
X9620Y3703D02*
Y3494D01*
X9829D01*
X9806Y3551D01*
X9750Y3624D01*
X9677Y3680D01*
X9620Y3703D01*
D02*
G37*
G36*
X-3703Y4061D02*
X-4003D01*
X-3962Y3962D01*
X-3893Y3871D01*
X-3802Y3801D01*
X-3703Y3760D01*
Y4061D01*
D02*
G37*
G36*
X-4583Y4720D02*
X-4722Y4702D01*
X-4852Y4648D01*
X-4964Y4562D01*
X-5050Y4451D01*
X-5058Y4431D01*
X-5108D01*
X-5116Y4451D01*
X-5201Y4562D01*
X-5313Y4648D01*
X-5443Y4702D01*
X-5583Y4720D01*
X-5722Y4702D01*
X-5852Y4648D01*
X-5964Y4562D01*
X-6050Y4451D01*
X-6058Y4431D01*
X-6108D01*
X-6116Y4451D01*
X-6201Y4562D01*
X-6313Y4648D01*
X-6443Y4702D01*
X-6583Y4720D01*
X-6722Y4702D01*
X-6852Y4648D01*
X-6964Y4562D01*
X-7050Y4451D01*
X-7104Y4321D01*
X-7122Y4181D01*
X-7104Y4042D01*
X-7050Y3911D01*
X-6964Y3800D01*
X-6852Y3714D01*
X-6722Y3660D01*
X-6583Y3642D01*
X-6443Y3660D01*
X-6313Y3714D01*
X-6201Y3800D01*
X-6116Y3911D01*
X-6108Y3931D01*
X-6058D01*
X-6050Y3911D01*
X-5964Y3800D01*
X-5852Y3714D01*
X-5722Y3660D01*
X-5583Y3642D01*
X-5443Y3660D01*
X-5313Y3714D01*
X-5201Y3800D01*
X-5116Y3911D01*
X-5108Y3931D01*
X-5058D01*
X-5050Y3911D01*
X-4964Y3800D01*
X-4852Y3714D01*
X-4722Y3660D01*
X-4583Y3642D01*
X-4443Y3660D01*
X-4313Y3714D01*
X-4201Y3800D01*
X-4116Y3911D01*
X-4062Y4042D01*
X-4057Y4076D01*
X-4057D01*
X-4043Y4181D01*
X-4057Y4286D01*
X-4057D01*
X-4062Y4321D01*
X-4116Y4451D01*
X-4201Y4562D01*
X-4313Y4648D01*
X-4443Y4702D01*
X-4583Y4720D01*
D02*
G37*
G36*
X21435Y5624D02*
X20855D01*
Y5044D01*
X21435D01*
Y5624D01*
D02*
G37*
G36*
X22255D02*
X21675D01*
Y5044D01*
X22255D01*
Y5624D01*
D02*
G37*
G36*
X-7851Y13783D02*
X-15984D01*
X-15986Y13783D01*
X-16434D01*
Y13770D01*
X-18751D01*
Y13771D01*
X-19651D01*
Y13770D01*
X-20339D01*
X-20442Y13757D01*
X-20470Y13745D01*
X-20539Y13717D01*
X-20622Y13653D01*
X-22838Y11437D01*
X-22902Y11354D01*
X-22930Y11285D01*
X-22942Y11257D01*
X-22955Y11154D01*
Y6004D01*
X-22942Y5900D01*
X-22930Y5872D01*
X-22902Y5804D01*
X-22838Y5721D01*
X-21541Y4424D01*
X-21503Y4332D01*
X-21431Y4238D01*
X-21382Y4201D01*
X-21398Y4153D01*
X-28404D01*
X-28497Y4141D01*
X-28559Y4115D01*
X-28584Y4105D01*
X-28659Y4048D01*
X-30185Y2521D01*
X-30243Y2446D01*
X-30253Y2421D01*
X-30279Y2359D01*
X-30291Y2266D01*
Y-481D01*
X-30524Y-713D01*
X-33574D01*
X-33667Y-726D01*
X-33729Y-751D01*
X-33754Y-762D01*
X-33829Y-819D01*
X-34558Y-1548D01*
X-34615Y-1623D01*
X-34651Y-1710D01*
X-34664Y-1803D01*
Y-5498D01*
X-34696Y-5541D01*
X-34742Y-5650D01*
X-34757Y-5768D01*
X-34742Y-5885D01*
X-34696Y-5995D01*
X-34624Y-6089D01*
X-34530Y-6161D01*
X-34421Y-6206D01*
X-34303Y-6222D01*
X-34186Y-6206D01*
X-34146Y-6190D01*
X-34104Y-6217D01*
Y-8967D01*
X-34092Y-9060D01*
X-34056Y-9147D01*
X-33998Y-9222D01*
X-33429Y-9791D01*
X-33354Y-9848D01*
X-33303Y-9870D01*
X-33267Y-9884D01*
X-33174Y-9897D01*
X-32773D01*
Y-9936D01*
X-31873D01*
Y-9136D01*
Y-8822D01*
X-30262D01*
X-30255Y-8830D01*
X-30144Y-8916D01*
X-30124Y-8924D01*
Y-8974D01*
X-30144Y-8982D01*
X-30255Y-9068D01*
X-30341Y-9179D01*
X-30395Y-9309D01*
X-30413Y-9449D01*
X-30395Y-9588D01*
X-30341Y-9718D01*
X-30255Y-9830D01*
X-30144Y-9916D01*
X-30014Y-9970D01*
X-29874Y-9988D01*
X-29734Y-9970D01*
X-29604Y-9916D01*
X-29493Y-9830D01*
X-29407Y-9718D01*
X-29353Y-9588D01*
X-29335Y-9449D01*
X-29353Y-9309D01*
X-29407Y-9179D01*
X-29493Y-9068D01*
X-29604Y-8982D01*
X-29624Y-8974D01*
Y-8924D01*
X-29604Y-8916D01*
X-29493Y-8830D01*
X-29486Y-8822D01*
X-29103D01*
X-29011Y-8860D01*
X-28894Y-8875D01*
X-28776Y-8860D01*
X-28667Y-8814D01*
X-28573Y-8742D01*
X-28501Y-8648D01*
X-28455Y-8539D01*
X-28440Y-8421D01*
X-28455Y-8304D01*
X-28501Y-8194D01*
X-28573Y-8100D01*
X-28667Y-8028D01*
X-28776Y-7983D01*
X-28894Y-7967D01*
X-29011Y-7983D01*
X-29103Y-8021D01*
X-29553D01*
X-29604Y-7982D01*
X-29624Y-7974D01*
Y-7924D01*
X-29604Y-7916D01*
X-29493Y-7830D01*
X-29407Y-7718D01*
X-29353Y-7588D01*
X-29341Y-7493D01*
X-29291D01*
X-29281Y-7566D01*
X-29236Y-7676D01*
X-29163Y-7770D01*
X-29069Y-7842D01*
X-28960Y-7887D01*
X-28843Y-7903D01*
X-28725Y-7887D01*
X-28616Y-7842D01*
X-28522Y-7770D01*
X-28449Y-7676D01*
X-28404Y-7566D01*
X-28389Y-7449D01*
X-28404Y-7331D01*
X-28449Y-7222D01*
X-28522Y-7128D01*
X-28616Y-7056D01*
X-28725Y-7010D01*
X-28843Y-6995D01*
X-28960Y-7010D01*
X-29069Y-7056D01*
X-29163Y-7128D01*
X-29236Y-7222D01*
X-29281Y-7331D01*
X-29291Y-7405D01*
X-29341D01*
X-29353Y-7309D01*
X-29407Y-7179D01*
X-29493Y-7068D01*
X-29604Y-6982D01*
X-29734Y-6928D01*
X-29769Y-6923D01*
Y-6923D01*
X-29874Y-6910D01*
X-29979Y-6923D01*
Y-6923D01*
X-30014Y-6928D01*
X-30144Y-6982D01*
X-30205Y-7029D01*
X-31745Y-5489D01*
X-31827Y-5425D01*
X-31837Y-5421D01*
X-31827Y-5372D01*
X-31501D01*
X-31141Y-5732D01*
X-31058Y-5795D01*
X-30990Y-5824D01*
X-30962Y-5835D01*
X-30858Y-5849D01*
X-30231D01*
X-30144Y-5916D01*
X-30014Y-5970D01*
X-29979Y-5974D01*
Y-5974D01*
X-29874Y-5988D01*
X-29769Y-5974D01*
Y-5974D01*
X-29734Y-5970D01*
X-29604Y-5916D01*
X-29517Y-5849D01*
X-29102D01*
X-29019Y-5883D01*
X-28902Y-5899D01*
X-28784Y-5883D01*
X-28675Y-5838D01*
X-28581Y-5766D01*
X-28509Y-5672D01*
X-28463Y-5562D01*
X-28449Y-5457D01*
X-28449D01*
X-28449Y-5457D01*
X-28436Y-5458D01*
X-28436Y-5458D01*
X-28406Y-5460D01*
X-28399Y-5466D01*
Y-6827D01*
X-28399Y-6827D01*
X-28399D01*
X-28389Y-6905D01*
X-28359Y-6977D01*
X-28311Y-7040D01*
X-28146Y-7205D01*
Y-8332D01*
X-28146Y-8332D01*
X-28146D01*
X-28136Y-8410D01*
X-28106Y-8482D01*
X-28058Y-8545D01*
X-27571Y-9032D01*
X-27509Y-9080D01*
X-27436Y-9110D01*
X-27358Y-9120D01*
X-26941D01*
X-26925Y-9140D01*
X-26831Y-9212D01*
X-26722Y-9257D01*
X-26604Y-9273D01*
X-26104D01*
X-25987Y-9257D01*
X-25877Y-9212D01*
X-25783Y-9140D01*
X-25711Y-9046D01*
X-25666Y-8936D01*
X-25650Y-8819D01*
X-25666Y-8701D01*
X-25711Y-8592D01*
X-25783Y-8498D01*
X-25877Y-8426D01*
X-25987Y-8380D01*
X-26104Y-8365D01*
X-26604D01*
X-26722Y-8380D01*
X-26831Y-8426D01*
X-26925Y-8498D01*
X-26941Y-8518D01*
X-27234D01*
X-27544Y-8207D01*
Y-7080D01*
X-27554Y-7002D01*
X-27585Y-6930D01*
X-27632Y-6867D01*
X-27797Y-6702D01*
Y-1951D01*
X-25592Y254D01*
X-25546Y235D01*
Y-9331D01*
X-25673Y-9458D01*
X-25835D01*
X-25877Y-9426D01*
X-25987Y-9380D01*
X-26104Y-9365D01*
X-26604D01*
X-26722Y-9380D01*
X-26831Y-9426D01*
X-26846Y-9437D01*
X-26862Y-9435D01*
X-26956Y-9447D01*
X-27042Y-9483D01*
X-27117Y-9540D01*
X-27174Y-9615D01*
X-27210Y-9702D01*
X-27223Y-9795D01*
X-27210Y-9889D01*
X-27174Y-9976D01*
X-27117Y-10050D01*
X-27094Y-10074D01*
X-27019Y-10131D01*
X-26932Y-10167D01*
X-26881Y-10174D01*
X-26831Y-10212D01*
X-26722Y-10257D01*
X-26604Y-10273D01*
X-26104D01*
X-25987Y-10257D01*
X-25877Y-10212D01*
X-25835Y-10179D01*
X-25524D01*
X-25430Y-10167D01*
X-25369Y-10142D01*
X-25343Y-10131D01*
X-25269Y-10074D01*
X-24930Y-9735D01*
X-24873Y-9661D01*
X-24852Y-9610D01*
X-24837Y-9574D01*
X-24824Y-9480D01*
Y303D01*
X-23973Y1155D01*
X-21949D01*
X-21855Y1167D01*
X-21769Y1203D01*
X-21694Y1261D01*
X-21694Y1261D01*
X-21694Y1261D01*
X-21617Y1338D01*
X-21564Y1345D01*
X-21454Y1390D01*
X-21360Y1463D01*
X-21288Y1557D01*
X-21243Y1666D01*
X-21227Y1783D01*
X-21243Y1901D01*
X-21248Y1913D01*
X-21220Y1955D01*
X-20731D01*
X-20679Y1888D01*
X-20673Y1883D01*
X-20669Y1833D01*
X-21533Y969D01*
X-21586Y962D01*
X-21695Y917D01*
X-21789Y845D01*
X-21862Y751D01*
X-21907Y641D01*
X-21922Y524D01*
X-21907Y406D01*
X-21862Y297D01*
X-21789Y203D01*
X-21695Y131D01*
X-21586Y85D01*
X-21469Y70D01*
X-21351Y85D01*
X-21242Y131D01*
X-21148Y203D01*
X-21075Y297D01*
X-21030Y406D01*
X-21023Y459D01*
X-20122Y1361D01*
X-18876D01*
X-18869Y1355D01*
X-18759Y1310D01*
X-18642Y1294D01*
X-18524Y1310D01*
X-18415Y1355D01*
X-18321Y1427D01*
X-18249Y1521D01*
X-18203Y1631D01*
X-18188Y1748D01*
X-18203Y1866D01*
X-18249Y1975D01*
X-18321Y2069D01*
X-18415Y2141D01*
X-18524Y2186D01*
X-18642Y2202D01*
X-18759Y2186D01*
X-18869Y2141D01*
X-18946Y2082D01*
X-19883D01*
X-19916Y2119D01*
X-19904Y2209D01*
X-19920Y2326D01*
X-19965Y2436D01*
X-20037Y2530D01*
X-20131Y2602D01*
X-20241Y2647D01*
X-20358Y2663D01*
X-20476Y2647D01*
X-20585Y2602D01*
X-20644Y2557D01*
X-21995D01*
X-22018Y2602D01*
X-21989Y2639D01*
X-21943Y2749D01*
X-21928Y2866D01*
X-21943Y2984D01*
X-21948Y2995D01*
X-21921Y3037D01*
X-20075D01*
X-19981Y3049D01*
X-19895Y3085D01*
X-19820Y3143D01*
X-19445Y3517D01*
X-12828D01*
Y2904D01*
X-13265D01*
Y1704D01*
X-10165D01*
Y2904D01*
X-10628D01*
Y3517D01*
X-9665D01*
X-9572Y3530D01*
X-9511Y3555D01*
X-9485Y3566D01*
X-9410Y3623D01*
X-7205Y5828D01*
X1595D01*
X2057Y5366D01*
Y4578D01*
X2036Y4562D01*
X1950Y4451D01*
X1942Y4431D01*
X1892D01*
X1884Y4451D01*
X1799Y4562D01*
X1687Y4648D01*
X1557Y4702D01*
X1417Y4720D01*
X1278Y4702D01*
X1148Y4648D01*
X1036Y4562D01*
X950Y4451D01*
X942Y4431D01*
X892D01*
X884Y4451D01*
X799Y4562D01*
X687Y4648D01*
X557Y4702D01*
X417Y4720D01*
X278Y4702D01*
X148Y4648D01*
X36Y4562D01*
X-50Y4451D01*
X-58Y4431D01*
X-108D01*
X-116Y4451D01*
X-201Y4562D01*
X-313Y4648D01*
X-443Y4702D01*
X-583Y4720D01*
X-722Y4702D01*
X-852Y4648D01*
X-964Y4562D01*
X-1050Y4451D01*
X-1058Y4431D01*
X-1108D01*
X-1116Y4451D01*
X-1201Y4562D01*
X-1313Y4648D01*
X-1443Y4702D01*
X-1583Y4720D01*
X-1722Y4702D01*
X-1852Y4648D01*
X-1964Y4562D01*
X-2050Y4451D01*
X-2058Y4431D01*
X-2108D01*
X-2116Y4451D01*
X-2201Y4562D01*
X-2313Y4648D01*
X-2443Y4702D01*
X-2583Y4720D01*
X-2722Y4702D01*
X-2852Y4648D01*
X-2964Y4562D01*
X-3050Y4451D01*
X-3104Y4321D01*
X-3108Y4286D01*
X-3108D01*
X-3122Y4181D01*
X-3108Y4076D01*
X-3108D01*
X-3104Y4042D01*
X-3050Y3911D01*
X-2964Y3800D01*
X-2852Y3714D01*
X-2722Y3660D01*
X-2583Y3642D01*
X-2443Y3660D01*
X-2313Y3714D01*
X-2201Y3800D01*
X-2116Y3911D01*
X-2108Y3931D01*
X-2058D01*
X-2050Y3911D01*
X-1964Y3800D01*
X-1852Y3714D01*
X-1722Y3660D01*
X-1583Y3642D01*
X-1443Y3660D01*
X-1313Y3714D01*
X-1201Y3800D01*
X-1116Y3911D01*
X-1108Y3931D01*
X-1058D01*
X-1050Y3911D01*
X-964Y3800D01*
X-852Y3714D01*
X-722Y3660D01*
X-583Y3642D01*
X-443Y3660D01*
X-313Y3714D01*
X-201Y3800D01*
X-116Y3911D01*
X-108Y3931D01*
X-58D01*
X-50Y3911D01*
X36Y3800D01*
X148Y3714D01*
X278Y3660D01*
X417Y3642D01*
X557Y3660D01*
X687Y3714D01*
X799Y3800D01*
X884Y3911D01*
X892Y3931D01*
X942D01*
X950Y3911D01*
X1036Y3800D01*
X1148Y3714D01*
X1278Y3660D01*
X1417Y3642D01*
X1557Y3660D01*
X1687Y3714D01*
X1799Y3800D01*
X1884Y3911D01*
X1892Y3931D01*
X1942D01*
X1950Y3911D01*
X2036Y3800D01*
X2057Y3784D01*
Y3373D01*
X2014Y3271D01*
X1999Y3154D01*
X2014Y3036D01*
X2060Y2927D01*
X2132Y2833D01*
X2226Y2760D01*
X2226Y2760D01*
Y2710D01*
X2147Y2677D01*
X2032Y2589D01*
X1949Y2481D01*
X1899D01*
X1817Y2589D01*
X1702Y2677D01*
X1568Y2733D01*
X1424Y2752D01*
X1281Y2733D01*
X1147Y2677D01*
X1032Y2589D01*
X944Y2474D01*
X889Y2340D01*
X870Y2197D01*
X889Y2053D01*
X944Y1919D01*
X1032Y1805D01*
X1147Y1716D01*
X1281Y1661D01*
X1378Y1648D01*
X1374Y1598D01*
X1044D01*
Y1501D01*
X999Y1479D01*
X932Y1531D01*
X822Y1576D01*
X705Y1592D01*
X587Y1576D01*
X478Y1531D01*
X384Y1459D01*
X312Y1365D01*
X266Y1255D01*
X251Y1138D01*
X266Y1020D01*
X312Y911D01*
X384Y817D01*
X478Y745D01*
X587Y699D01*
X705Y684D01*
X822Y699D01*
X932Y745D01*
X999Y796D01*
X1044Y774D01*
Y698D01*
X2644D01*
Y700D01*
X3395D01*
Y1600D01*
X2595D01*
Y1598D01*
X2474D01*
X2471Y1648D01*
X2568Y1661D01*
X2702Y1716D01*
X2817Y1805D01*
X2896Y1908D01*
X3103D01*
Y1759D01*
X3903D01*
Y2659D01*
X3624D01*
X3614Y2708D01*
X3656Y2725D01*
X3750Y2797D01*
X3822Y2891D01*
X3868Y3001D01*
X3883Y3118D01*
X3868Y3236D01*
X3822Y3345D01*
X3790Y3387D01*
Y3793D01*
X3799Y3800D01*
X3884Y3911D01*
X3892Y3931D01*
X3942D01*
X3950Y3911D01*
X4036Y3800D01*
X4148Y3714D01*
X4278Y3660D01*
X4417Y3642D01*
X4557Y3660D01*
X4687Y3714D01*
X4799Y3800D01*
X4884Y3911D01*
X4892Y3931D01*
X4942D01*
X4950Y3911D01*
X5036Y3800D01*
X5148Y3714D01*
X5278Y3660D01*
X5417Y3642D01*
X5557Y3660D01*
X5687Y3714D01*
X5799Y3800D01*
X5884Y3911D01*
X5892Y3931D01*
X5942D01*
X5950Y3911D01*
X6036Y3800D01*
X6148Y3714D01*
X6278Y3660D01*
X6417Y3642D01*
X6557Y3660D01*
X6687Y3714D01*
X6799Y3800D01*
X6884Y3911D01*
X6892Y3931D01*
X6942D01*
X6950Y3911D01*
X7036Y3800D01*
X7148Y3714D01*
X7278Y3660D01*
X7417Y3642D01*
X7557Y3660D01*
X7687Y3714D01*
X7799Y3800D01*
X7884Y3911D01*
X7938Y4042D01*
X7957Y4181D01*
X7938Y4321D01*
X7884Y4451D01*
X7799Y4562D01*
X7687Y4648D01*
X7557Y4702D01*
X7417Y4720D01*
X7278Y4702D01*
X7148Y4648D01*
X7036Y4562D01*
X6950Y4451D01*
X6942Y4431D01*
X6892D01*
X6884Y4451D01*
X6799Y4562D01*
X6687Y4648D01*
X6557Y4702D01*
X6417Y4720D01*
X6278Y4702D01*
X6148Y4648D01*
X6036Y4562D01*
X5950Y4451D01*
X5942Y4431D01*
X5892D01*
X5884Y4451D01*
X5799Y4562D01*
X5687Y4648D01*
X5557Y4702D01*
X5417Y4720D01*
X5278Y4702D01*
X5148Y4648D01*
X5036Y4562D01*
X4950Y4451D01*
X4942Y4431D01*
X4892D01*
X4884Y4451D01*
X4799Y4562D01*
X4687Y4648D01*
X4557Y4702D01*
X4417Y4720D01*
X4278Y4702D01*
X4148Y4648D01*
X4036Y4562D01*
X3950Y4451D01*
X3942Y4431D01*
X3892D01*
X3884Y4451D01*
X3799Y4562D01*
X3790Y4569D01*
Y5169D01*
X3777Y5263D01*
X3741Y5350D01*
X3684Y5424D01*
X2269Y6839D01*
X2195Y6896D01*
X2169Y6907D01*
X2131Y6923D01*
X2141Y6972D01*
X6631D01*
Y8171D01*
X-867D01*
Y6980D01*
X-867Y6980D01*
X-867D01*
X-867Y6972D01*
X-894Y6945D01*
X-7518D01*
X-7611Y6932D01*
X-7698Y6896D01*
X-7773Y6839D01*
X-9978Y4633D01*
X-19758D01*
X-19851Y4621D01*
X-19895Y4603D01*
X-19938Y4585D01*
X-20013Y4528D01*
X-20388Y4153D01*
X-20822D01*
X-20838Y4201D01*
X-20789Y4238D01*
X-20717Y4332D01*
X-20672Y4442D01*
X-20656Y4559D01*
X-20672Y4677D01*
X-20717Y4786D01*
X-20789Y4880D01*
X-20883Y4952D01*
X-20975Y4990D01*
X-22155Y6170D01*
Y10988D01*
X-20173Y12970D01*
X-19651D01*
Y12363D01*
X-19688Y12330D01*
X-19774Y12341D01*
X-19846D01*
X-19938Y12379D01*
X-20055Y12395D01*
X-20173Y12379D01*
X-20282Y12334D01*
X-20376Y12262D01*
X-20448Y12168D01*
X-20494Y12058D01*
X-20509Y11941D01*
X-20494Y11823D01*
X-20448Y11714D01*
X-20376Y11620D01*
X-20282Y11548D01*
X-20173Y11503D01*
X-20055Y11487D01*
X-19938Y11503D01*
X-19912Y11513D01*
X-19688Y11289D01*
X-19680Y11230D01*
X-19630Y11108D01*
X-19593Y11061D01*
Y9160D01*
X-19630Y9112D01*
X-19680Y8991D01*
X-19697Y8860D01*
X-19680Y8730D01*
X-19630Y8608D01*
X-19550Y8504D01*
X-19445Y8423D01*
X-19323Y8373D01*
X-19193Y8356D01*
X-19062Y8373D01*
X-18941Y8423D01*
X-18836Y8504D01*
X-18756Y8608D01*
X-18706Y8730D01*
X-18689Y8860D01*
X-18706Y8991D01*
X-18756Y9112D01*
X-18793Y9160D01*
Y11061D01*
X-18756Y11108D01*
X-18706Y11230D01*
X-18689Y11360D01*
X-18706Y11491D01*
X-18756Y11612D01*
X-18793Y11660D01*
Y12171D01*
X-18751D01*
Y12970D01*
X-17248D01*
X-17238Y12921D01*
X-17239Y12921D01*
X-17333Y12849D01*
X-17405Y12754D01*
X-17450Y12645D01*
X-17466Y12528D01*
X-17450Y12410D01*
X-17405Y12301D01*
X-17333Y12207D01*
X-17239Y12134D01*
X-17129Y12089D01*
X-17012Y12074D01*
X-16894Y12089D01*
X-16785Y12134D01*
X-16722Y12182D01*
X-15984D01*
X-15982Y12183D01*
X-15534D01*
Y12982D01*
X-8017D01*
X-7415Y12380D01*
X-7424Y12331D01*
X-7455Y12318D01*
X-7549Y12246D01*
X-7621Y12152D01*
X-7667Y12043D01*
X-7682Y11925D01*
X-7667Y11808D01*
X-7621Y11698D01*
X-7549Y11604D01*
X-7498Y11565D01*
X-7492Y11516D01*
X-7562Y11424D01*
X-7608Y11314D01*
X-7623Y11197D01*
X-7608Y11079D01*
X-7562Y10970D01*
X-7490Y10876D01*
X-7396Y10804D01*
X-7287Y10758D01*
X-7169Y10743D01*
X-7052Y10758D01*
X-6942Y10804D01*
X-6848Y10876D01*
X-6834Y10895D01*
X-2968D01*
X-2864Y10815D01*
X-2730Y10759D01*
X-2698Y10755D01*
Y10705D01*
X-2722Y10702D01*
X-2852Y10648D01*
X-2964Y10562D01*
X-3050Y10451D01*
X-3058Y10431D01*
X-3108D01*
X-3116Y10451D01*
X-3201Y10562D01*
X-3313Y10648D01*
X-3443Y10702D01*
X-3583Y10720D01*
X-3722Y10702D01*
X-3852Y10648D01*
X-3964Y10562D01*
X-4050Y10451D01*
X-4058Y10431D01*
X-4108D01*
X-4116Y10451D01*
X-4201Y10562D01*
X-4313Y10648D01*
X-4443Y10702D01*
X-4583Y10720D01*
X-4722Y10702D01*
X-4852Y10648D01*
X-4964Y10562D01*
X-5050Y10451D01*
X-5104Y10321D01*
X-5108Y10286D01*
X-5108D01*
X-5122Y10181D01*
X-5108Y10076D01*
X-5108D01*
X-5104Y10042D01*
X-5050Y9911D01*
X-4964Y9800D01*
X-4852Y9714D01*
X-4722Y9660D01*
X-4583Y9642D01*
X-4443Y9660D01*
X-4313Y9714D01*
X-4201Y9800D01*
X-4116Y9911D01*
X-4108Y9931D01*
X-4058D01*
X-4050Y9911D01*
X-3964Y9800D01*
X-3852Y9714D01*
X-3722Y9660D01*
X-3583Y9642D01*
X-3443Y9660D01*
X-3313Y9714D01*
X-3201Y9800D01*
X-3116Y9911D01*
X-3108Y9931D01*
X-3058D01*
X-3050Y9911D01*
X-2964Y9800D01*
X-2852Y9714D01*
X-2722Y9660D01*
X-2583Y9642D01*
X-2443Y9660D01*
X-2313Y9714D01*
X-2201Y9800D01*
X-2116Y9911D01*
X-2108Y9931D01*
X-2058D01*
X-2050Y9911D01*
X-1964Y9800D01*
X-1852Y9714D01*
X-1722Y9660D01*
X-1583Y9642D01*
X-1443Y9660D01*
X-1313Y9714D01*
X-1201Y9800D01*
X-1116Y9911D01*
X-1108Y9931D01*
X-1058D01*
X-1050Y9911D01*
X-964Y9800D01*
X-852Y9714D01*
X-722Y9660D01*
X-583Y9642D01*
X-443Y9660D01*
X-313Y9714D01*
X-201Y9800D01*
X-116Y9911D01*
X-108Y9931D01*
X-58D01*
X-50Y9911D01*
X36Y9800D01*
X148Y9714D01*
X278Y9660D01*
X417Y9642D01*
X557Y9660D01*
X687Y9714D01*
X799Y9800D01*
X884Y9911D01*
X892Y9931D01*
X942D01*
X950Y9911D01*
X1036Y9800D01*
X1148Y9714D01*
X1278Y9660D01*
X1417Y9642D01*
X1557Y9660D01*
X1687Y9714D01*
X1799Y9800D01*
X1884Y9911D01*
X1892Y9931D01*
X1942D01*
X1950Y9911D01*
X2036Y9800D01*
X2148Y9714D01*
X2278Y9660D01*
X2417Y9642D01*
X2557Y9660D01*
X2687Y9714D01*
X2799Y9800D01*
X2884Y9911D01*
X2892Y9931D01*
X2942D01*
X2950Y9911D01*
X3036Y9800D01*
X3148Y9714D01*
X3278Y9660D01*
X3318Y9655D01*
X3334Y9608D01*
X3040Y9313D01*
X-11850D01*
X-11944Y9301D01*
X-12031Y9265D01*
X-12105Y9208D01*
X-14137Y7176D01*
X-14194Y7102D01*
X-14230Y7015D01*
X-14242Y6921D01*
Y6537D01*
X-14275Y6495D01*
X-14320Y6385D01*
X-14336Y6268D01*
X-14320Y6150D01*
X-14275Y6041D01*
X-14203Y5947D01*
X-14109Y5875D01*
X-13999Y5829D01*
X-13882Y5814D01*
X-13764Y5829D01*
X-13655Y5875D01*
X-13561Y5947D01*
X-13489Y6041D01*
X-13443Y6150D01*
X-13428Y6268D01*
X-13443Y6385D01*
X-13489Y6495D01*
X-13521Y6537D01*
Y6772D01*
X-11701Y8592D01*
X3189D01*
X3282Y8604D01*
X3369Y8640D01*
X3444Y8698D01*
X3444Y8698D01*
X3444Y8698D01*
X4391Y9645D01*
X4417Y9642D01*
X4557Y9660D01*
X4687Y9714D01*
X4799Y9800D01*
X4884Y9911D01*
X4892Y9931D01*
X4942D01*
X4950Y9911D01*
X5036Y9800D01*
X5148Y9714D01*
X5278Y9660D01*
X5417Y9642D01*
X5557Y9660D01*
X5687Y9714D01*
X5799Y9800D01*
X5884Y9911D01*
X5892Y9931D01*
X5942D01*
X5950Y9911D01*
X6036Y9800D01*
X6148Y9714D01*
X6278Y9660D01*
X6417Y9642D01*
X6557Y9660D01*
X6687Y9714D01*
X6799Y9800D01*
X6884Y9911D01*
X6892Y9931D01*
X6942D01*
X6950Y9911D01*
X7036Y9800D01*
X7148Y9714D01*
X7278Y9660D01*
X7417Y9642D01*
X7557Y9660D01*
X7687Y9714D01*
X7799Y9800D01*
X7884Y9911D01*
X7938Y10042D01*
X7957Y10181D01*
X7938Y10321D01*
X7884Y10451D01*
X7799Y10562D01*
X7687Y10648D01*
X7557Y10702D01*
X7417Y10720D01*
X7278Y10702D01*
X7148Y10648D01*
X7036Y10562D01*
X6950Y10451D01*
X6942Y10431D01*
X6892D01*
X6884Y10451D01*
X6799Y10562D01*
X6687Y10648D01*
X6557Y10702D01*
X6417Y10720D01*
X6278Y10702D01*
X6148Y10648D01*
X6036Y10562D01*
X5950Y10451D01*
X5942Y10431D01*
X5892D01*
X5884Y10451D01*
X5799Y10562D01*
X5687Y10648D01*
X5557Y10702D01*
X5417Y10720D01*
X5278Y10702D01*
X5148Y10648D01*
X5036Y10562D01*
X4950Y10451D01*
X4942Y10431D01*
X4892D01*
X4884Y10451D01*
X4799Y10562D01*
X4778Y10578D01*
Y11628D01*
X4810Y11671D01*
X4856Y11780D01*
X4871Y11898D01*
X4856Y12015D01*
X4810Y12125D01*
X4738Y12219D01*
X4644Y12291D01*
X4535Y12336D01*
X4417Y12352D01*
X4300Y12336D01*
X4190Y12291D01*
X4096Y12219D01*
X4024Y12125D01*
X3979Y12015D01*
X3963Y11898D01*
X3979Y11780D01*
X4024Y11671D01*
X4057Y11628D01*
Y10578D01*
X4036Y10562D01*
X3950Y10451D01*
X3942Y10431D01*
X3892D01*
X3884Y10451D01*
X3799Y10562D01*
X3687Y10648D01*
X3557Y10702D01*
X3417Y10720D01*
X3278Y10702D01*
X3148Y10648D01*
X3036Y10562D01*
X2950Y10451D01*
X2942Y10431D01*
X2892D01*
X2884Y10451D01*
X2799Y10562D01*
X2687Y10648D01*
X2557Y10702D01*
X2417Y10720D01*
X2278Y10702D01*
X2148Y10648D01*
X2036Y10562D01*
X1950Y10451D01*
X1942Y10431D01*
X1892D01*
X1884Y10451D01*
X1799Y10562D01*
X1687Y10648D01*
X1557Y10702D01*
X1417Y10720D01*
X1278Y10702D01*
X1148Y10648D01*
X1036Y10562D01*
X950Y10451D01*
X942Y10431D01*
X892D01*
X884Y10451D01*
X799Y10562D01*
X687Y10648D01*
X557Y10702D01*
X417Y10720D01*
X278Y10702D01*
X148Y10648D01*
X36Y10562D01*
X-50Y10451D01*
X-58Y10431D01*
X-108D01*
X-116Y10451D01*
X-201Y10562D01*
X-313Y10648D01*
X-443Y10702D01*
X-583Y10720D01*
X-722Y10702D01*
X-852Y10648D01*
X-964Y10562D01*
X-1050Y10451D01*
X-1058Y10431D01*
X-1108D01*
X-1116Y10451D01*
X-1201Y10562D01*
X-1313Y10648D01*
X-1443Y10702D01*
X-1583Y10720D01*
X-1722Y10702D01*
X-1852Y10648D01*
X-1964Y10562D01*
X-2050Y10451D01*
X-2058Y10431D01*
X-2108D01*
X-2116Y10451D01*
X-2201Y10562D01*
X-2313Y10648D01*
X-2443Y10702D01*
X-2471Y10706D01*
Y10756D01*
X-2443Y10759D01*
X-2309Y10815D01*
X-2194Y10903D01*
X-2106Y11018D01*
X-2051Y11152D01*
X-2032Y11295D01*
X-2051Y11439D01*
X-2106Y11573D01*
X-2138Y11614D01*
X-2116Y11659D01*
X-1953D01*
X-1848Y11579D01*
X-1714Y11523D01*
X-1571Y11504D01*
X-1427Y11523D01*
X-1293Y11579D01*
X-1179Y11667D01*
X-1090Y11782D01*
X-1035Y11915D01*
X-1016Y12059D01*
X-1035Y12203D01*
X-1090Y12336D01*
X-1179Y12451D01*
X-1293Y12539D01*
X-1427Y12595D01*
X-1571Y12614D01*
X-1714Y12595D01*
X-1848Y12539D01*
X-1953Y12459D01*
X-3039D01*
X-3143Y12446D01*
X-3168Y12435D01*
X-3208Y12466D01*
X-3206Y12482D01*
X-3204Y12487D01*
X-3190Y12591D01*
X-3204Y12694D01*
X-3224Y12743D01*
X-3196Y12785D01*
X10037D01*
X10065Y12743D01*
X10042Y12688D01*
X10026Y12571D01*
X10042Y12453D01*
X10080Y12361D01*
Y2079D01*
X10080Y2077D01*
Y1629D01*
X10880D01*
Y1678D01*
X10886D01*
X10989Y1692D01*
X11018Y1704D01*
X11086Y1732D01*
X11169Y1796D01*
X11414Y2041D01*
X11506Y2079D01*
X11600Y2151D01*
X11673Y2245D01*
X11718Y2355D01*
X11733Y2472D01*
X11718Y2590D01*
X11673Y2699D01*
X11600Y2793D01*
X11506Y2866D01*
X11397Y2911D01*
X11280Y2926D01*
X11162Y2911D01*
X11053Y2866D01*
X10959Y2793D01*
X10928Y2753D01*
X10881Y2770D01*
Y12361D01*
X10919Y12453D01*
X10934Y12571D01*
X10919Y12688D01*
X10896Y12743D01*
X10924Y12785D01*
X13500D01*
X14198Y12086D01*
Y4177D01*
X14212Y4074D01*
X14224Y4045D01*
X14252Y3977D01*
X14315Y3894D01*
X16878Y1331D01*
X16961Y1268D01*
D01*
D01*
Y1268D01*
X16961Y1268D01*
D01*
D01*
X16961D01*
Y1268D01*
D01*
X16961D01*
Y1268D01*
X17058Y1228D01*
X17161Y1214D01*
X20954D01*
X21009Y1191D01*
X21126Y1176D01*
X21243Y1191D01*
X21353Y1237D01*
X21447Y1309D01*
X21519Y1403D01*
X21564Y1512D01*
X21580Y1630D01*
X21564Y1747D01*
X21519Y1857D01*
X21447Y1951D01*
X21353Y2023D01*
X21243Y2068D01*
X21126Y2084D01*
X21009Y2068D01*
X20899Y2023D01*
X20888Y2014D01*
X17327D01*
X14999Y4343D01*
Y4797D01*
X15045Y4813D01*
X15139Y4741D01*
X15231Y4703D01*
X16457Y3477D01*
X16540Y3413D01*
X16608Y3385D01*
X16637Y3373D01*
X16740Y3360D01*
X18425D01*
X19433Y2351D01*
X19516Y2287D01*
X19556Y2271D01*
X19613Y2247D01*
X19717Y2234D01*
X22539D01*
X32323Y-7551D01*
X32406Y-7614D01*
X32463Y-7638D01*
X32503Y-7654D01*
X32606Y-7668D01*
X38153D01*
X40486Y-10000D01*
Y-10650D01*
X40436D01*
Y-11450D01*
Y-11477D01*
X40067D01*
X40065Y-11477D01*
X39617D01*
Y-12277D01*
X40065D01*
X40067Y-12277D01*
X40726D01*
Y-14385D01*
X40688Y-14477D01*
X40672Y-14594D01*
X40688Y-14712D01*
X40733Y-14821D01*
X40805Y-14915D01*
X40899Y-14988D01*
X41009Y-15033D01*
X41126Y-15048D01*
X41243Y-15033D01*
X41353Y-14988D01*
X41447Y-14915D01*
X41519Y-14821D01*
X41564Y-14712D01*
X41580Y-14594D01*
X41564Y-14477D01*
X41526Y-14385D01*
Y-12091D01*
X41513Y-11987D01*
X41501Y-11959D01*
X41473Y-11890D01*
X41409Y-11808D01*
X41336Y-11734D01*
Y-11450D01*
Y-10770D01*
X41382Y-10751D01*
X41875Y-11245D01*
Y-15042D01*
X41837Y-15134D01*
X41822Y-15252D01*
X41837Y-15369D01*
X41883Y-15479D01*
X41955Y-15573D01*
X42049Y-15645D01*
X42158Y-15690D01*
X42276Y-15706D01*
X42393Y-15690D01*
X42503Y-15645D01*
X42597Y-15573D01*
X42669Y-15479D01*
X42714Y-15369D01*
X42729Y-15252D01*
X42714Y-15134D01*
X42676Y-15042D01*
Y-11079D01*
X42662Y-10975D01*
X42639Y-10919D01*
X42622Y-10879D01*
X42559Y-10796D01*
X41900Y-10137D01*
Y-10024D01*
X41948Y-10010D01*
X41966Y-10039D01*
X42107Y-10204D01*
X42272Y-10345D01*
X42458Y-10459D01*
X42659Y-10542D01*
X42870Y-10593D01*
X43087Y-10610D01*
X43303Y-10593D01*
X43515Y-10542D01*
X43716Y-10459D01*
X43901Y-10345D01*
X44066Y-10204D01*
X44207Y-10039D01*
X44321Y-9853D01*
X44404Y-9653D01*
X44455Y-9441D01*
X44472Y-9224D01*
X44455Y-9008D01*
X44404Y-8796D01*
X44321Y-8595D01*
X44207Y-8410D01*
X44066Y-8245D01*
X43901Y-8104D01*
X43716Y-7990D01*
X43515Y-7907D01*
X43303Y-7856D01*
X43087Y-7839D01*
X42870Y-7856D01*
X42659Y-7907D01*
X42458Y-7990D01*
X42272Y-8104D01*
X42107Y-8245D01*
X41966Y-8410D01*
X41852Y-8595D01*
X41769Y-8796D01*
X41718Y-9008D01*
X41711Y-9100D01*
X41664Y-9118D01*
X38803Y-6256D01*
X38720Y-6193D01*
X38652Y-6164D01*
X38623Y-6153D01*
X38520Y-6139D01*
X33154D01*
X23027Y3988D01*
X22944Y4051D01*
X22876Y4080D01*
X22848Y4091D01*
X22744Y4105D01*
X20016D01*
X19912Y4091D01*
X19884Y4080D01*
X19816Y4051D01*
X19810Y4047D01*
X19767Y4064D01*
X19650Y4080D01*
X19532Y4064D01*
X19423Y4019D01*
X19329Y3947D01*
X19257Y3853D01*
X19217Y3758D01*
X19168Y3748D01*
X18874Y4043D01*
X18791Y4106D01*
X18722Y4135D01*
X18694Y4146D01*
X18591Y4160D01*
X16906D01*
X15797Y5269D01*
X15759Y5361D01*
X15687Y5455D01*
X15593Y5527D01*
X15484Y5572D01*
X15366Y5588D01*
X15249Y5572D01*
X15248Y5572D01*
X15215Y5568D01*
X15187Y5556D01*
X15119Y5528D01*
X15044Y5470D01*
X14999Y5492D01*
Y12252D01*
X14985Y12356D01*
X14969Y12396D01*
X14945Y12452D01*
X14881Y12535D01*
X13948Y13468D01*
X13865Y13532D01*
X13797Y13560D01*
X13769Y13572D01*
X13665Y13585D01*
X-5764D01*
X-5867Y13572D01*
X-5891Y13562D01*
X-6322D01*
X-6414Y13600D01*
X-6532Y13615D01*
X-6649Y13600D01*
X-6758Y13554D01*
X-6852Y13482D01*
X-6925Y13388D01*
X-6970Y13279D01*
X-6985Y13161D01*
X-6984Y13148D01*
X-7028Y13126D01*
X-7568Y13666D01*
X-7651Y13729D01*
X-7719Y13758D01*
X-7748Y13769D01*
X-7851Y13783D01*
D02*
G37*
G36*
X-16299Y5819D02*
X-16430Y5802D01*
X-16551Y5752D01*
X-16656Y5672D01*
X-16736Y5567D01*
X-16786Y5445D01*
X-16804Y5315D01*
X-16786Y5184D01*
X-16736Y5063D01*
X-16656Y4958D01*
X-16551Y4878D01*
X-16430Y4828D01*
X-16299Y4811D01*
X-16169Y4828D01*
X-16047Y4878D01*
X-15943Y4958D01*
X-15862Y5063D01*
X-15812Y5184D01*
X-15795Y5315D01*
X-15812Y5445D01*
X-15862Y5567D01*
X-15943Y5672D01*
X-16047Y5752D01*
X-16169Y5802D01*
X-16299Y5819D01*
D02*
G37*
G36*
X20543Y8716D02*
X19144D01*
Y4917D01*
X20543D01*
Y8716D01*
D02*
G37*
G36*
X9380Y3703D02*
X9323Y3680D01*
X9250Y3624D01*
X9194Y3551D01*
X9171Y3494D01*
X9380D01*
Y3703D01*
D02*
G37*
G36*
X-3419Y3250D02*
Y3041D01*
X-3210D01*
X-3234Y3098D01*
X-3290Y3171D01*
X-3363Y3227D01*
X-3419Y3250D01*
D02*
G37*
G36*
X-3659D02*
X-3716Y3227D01*
X-3789Y3171D01*
X-3845Y3098D01*
X-3868Y3041D01*
X-3659D01*
Y3250D01*
D02*
G37*
G36*
X9380Y3254D02*
X9171D01*
X9194Y3198D01*
X9250Y3124D01*
X9323Y3068D01*
X9380Y3045D01*
Y3254D01*
D02*
G37*
G36*
X9829D02*
X9620D01*
Y3045D01*
X9677Y3068D01*
X9750Y3124D01*
X9806Y3198D01*
X9829Y3254D01*
D02*
G37*
G36*
X1284Y3580D02*
X595D01*
Y2892D01*
X1284D01*
Y3580D01*
D02*
G37*
%LPD*%
G36*
X-29896Y-1171D02*
Y-3328D01*
X-32937D01*
X-33030Y-3341D01*
X-33066Y-3356D01*
X-33117Y-3377D01*
X-33192Y-3434D01*
X-33896Y-4138D01*
X-33943Y-4119D01*
Y-3048D01*
X-31190D01*
Y-3000D01*
X-31142Y-2984D01*
X-31089Y-3054D01*
X-30974Y-3142D01*
X-30840Y-3197D01*
X-30697Y-3216D01*
X-30553Y-3197D01*
X-30419Y-3142D01*
X-30305Y-3054D01*
X-30216Y-2939D01*
X-30161Y-2805D01*
X-30142Y-2661D01*
X-30161Y-2518D01*
X-30216Y-2384D01*
X-30305Y-2269D01*
X-30412Y-2186D01*
Y-2136D01*
X-30305Y-2054D01*
X-30216Y-1939D01*
X-30161Y-1805D01*
X-30142Y-1661D01*
X-30161Y-1518D01*
X-30212Y-1394D01*
X-30194Y-1386D01*
X-30119Y-1329D01*
X-29942Y-1152D01*
X-29896Y-1171D01*
D02*
G37*
G36*
X-30633Y-7732D02*
X-30551Y-7795D01*
X-30454Y-7835D01*
X-30350Y-7849D01*
X-30231D01*
X-30144Y-7916D01*
X-30124Y-7924D01*
Y-7974D01*
X-30144Y-7982D01*
X-30195Y-8021D01*
X-31873D01*
Y-7420D01*
X-32321D01*
X-32323Y-7419D01*
X-32325Y-7420D01*
X-32773D01*
Y-8220D01*
X-32723D01*
Y-8336D01*
X-32773D01*
Y-9136D01*
Y-9176D01*
X-33025D01*
X-33383Y-8817D01*
Y-7819D01*
X-33376Y-7813D01*
Y-7445D01*
Y-7077D01*
X-33383Y-7071D01*
Y-6629D01*
X-33334Y-6620D01*
X-33330Y-6629D01*
X-33258Y-6723D01*
X-33164Y-6795D01*
X-33054Y-6840D01*
X-32937Y-6855D01*
X-32820Y-6840D01*
X-32714Y-6796D01*
X-32673Y-6824D01*
Y-6900D01*
X-32443D01*
Y-6720D01*
X-32557D01*
X-32579Y-6675D01*
X-32544Y-6629D01*
X-32499Y-6519D01*
X-32483Y-6402D01*
X-32499Y-6284D01*
X-32528Y-6213D01*
X-32500Y-6172D01*
X-32193D01*
X-30633Y-7732D01*
D02*
G37*
G36*
X2950Y3911D02*
X3036Y3800D01*
X3069Y3775D01*
Y3387D01*
X3036Y3345D01*
X2991Y3236D01*
X2975Y3118D01*
X2991Y3001D01*
X3036Y2891D01*
X3108Y2797D01*
X3202Y2725D01*
X3244Y2708D01*
X3234Y2659D01*
X3103D01*
Y2510D01*
X2878D01*
X2817Y2589D01*
X2702Y2677D01*
X2651Y2698D01*
Y2748D01*
X2680Y2760D01*
X2774Y2833D01*
X2846Y2927D01*
X2891Y3036D01*
X2907Y3154D01*
X2891Y3271D01*
X2846Y3380D01*
X2778Y3469D01*
Y3784D01*
X2799Y3800D01*
X2884Y3911D01*
X2892Y3931D01*
X2942D01*
X2950Y3911D01*
D02*
G37*
G36*
X-31215Y-1476D02*
X-31233Y-1518D01*
X-31252Y-1661D01*
X-31233Y-1805D01*
X-31232Y-1807D01*
X-31260Y-1848D01*
X-33773D01*
X-33792Y-1802D01*
X-33425Y-1435D01*
X-31243D01*
X-31215Y-1476D01*
D02*
G37*
G36*
X-24174Y2536D02*
X-24167Y2516D01*
X-24229Y2469D01*
X-28311Y-1614D01*
X-28359Y-1676D01*
X-28389Y-1749D01*
X-28399Y-1827D01*
Y-5424D01*
X-28406Y-5430D01*
X-28426Y-5431D01*
X-28449Y-5433D01*
X-28463Y-5327D01*
X-28501Y-5235D01*
Y1956D01*
X-27894Y2563D01*
X-24185D01*
X-24174Y2536D01*
D02*
G37*
G36*
X-30276Y-4094D02*
X-30341Y-4179D01*
X-30395Y-4309D01*
X-30413Y-4449D01*
X-30395Y-4588D01*
X-30341Y-4718D01*
X-30255Y-4830D01*
X-30144Y-4916D01*
X-30124Y-4924D01*
Y-4974D01*
X-30144Y-4982D01*
X-30231Y-5049D01*
X-30692D01*
X-31052Y-4689D01*
X-31135Y-4625D01*
X-31204Y-4597D01*
X-31232Y-4585D01*
X-31335Y-4571D01*
X-32929D01*
X-32931Y-4572D01*
X-33244D01*
X-33264Y-4525D01*
X-32788Y-4050D01*
X-30298D01*
X-30276Y-4094D01*
D02*
G37*
G36*
X22815Y3067D02*
X22793Y3022D01*
X22705Y3034D01*
X19882D01*
X19772Y3145D01*
X19782Y3194D01*
X19859Y3226D01*
X20094D01*
X20198Y3239D01*
X20226Y3251D01*
X20295Y3279D01*
X20327Y3304D01*
X22578D01*
X22815Y3067D01*
D02*
G37*
%LPC*%
G36*
X-31973Y-7140D02*
X-32203D01*
Y-7320D01*
X-31973D01*
Y-7140D01*
D02*
G37*
G36*
Y-6720D02*
X-32203D01*
Y-6900D01*
X-31973D01*
Y-6720D01*
D02*
G37*
G36*
X-32443Y-7140D02*
X-32673D01*
Y-7320D01*
X-32443D01*
Y-7140D01*
D02*
G37*
G36*
X-32927Y-7565D02*
X-33136D01*
Y-7774D01*
X-33079Y-7751D01*
X-33006Y-7695D01*
X-32950Y-7621D01*
X-32927Y-7565D01*
D02*
G37*
G36*
X-33136Y-7116D02*
Y-7325D01*
X-32927D01*
X-32950Y-7268D01*
X-33006Y-7195D01*
X-33079Y-7139D01*
X-33136Y-7116D01*
D02*
G37*
%LPD*%
G54D10*
X-32323Y-9536D02*
D03*
Y-8736D02*
D03*
Y-7820D02*
D03*
Y-7020D02*
D03*
X40886Y-11050D02*
D03*
Y-11850D02*
D03*
X40067Y-11877D02*
D03*
Y-12677D02*
D03*
X-15984Y12583D02*
D03*
Y13383D02*
D03*
X-19201Y12571D02*
D03*
Y13371D02*
D03*
X-32929Y-4972D02*
D03*
Y-5772D02*
D03*
G54D11*
X2995Y1150D02*
D03*
X3795D02*
D03*
X2244Y1148D02*
D03*
X1444D02*
D03*
X3503Y2209D02*
D03*
X4303D02*
D03*
X9680Y2079D02*
D03*
X10480D02*
D03*
G54D12*
X40968Y-2343D02*
Y-343D01*
X-17012Y12528D02*
X-16957Y12583D01*
X-15984D01*
X21555Y5744D02*
Y7724D01*
X41126Y-14594D02*
Y-12091D01*
X40913Y-11877D02*
X41126Y-12091D01*
X40067Y-11877D02*
X40913D01*
X40067Y-13461D02*
Y-12677D01*
X39524Y-14004D02*
X40067Y-13461D01*
X32988Y-6539D02*
X38520D01*
X40886Y-11050D02*
Y-9835D01*
X22744Y3705D02*
X32988Y-6539D01*
X20016Y3705D02*
X22744D01*
X20016D02*
X20094Y3626D01*
X17634Y5764D02*
Y7764D01*
X38319Y-7268D02*
X40886Y-9835D01*
X32606Y-7268D02*
X38319D01*
X19717Y2634D02*
X22705D01*
X32606Y-7268D01*
X18591Y3760D02*
X19717Y2634D01*
X16740Y3760D02*
X18591D01*
X15319Y5181D02*
X16740Y3760D01*
X15319Y5181D02*
X15366Y5134D01*
X15319Y5181D02*
X15343D01*
X14598Y4177D02*
X17161Y1614D01*
X21126D01*
X14598Y4177D02*
Y12252D01*
X13665Y13185D02*
X14598Y12252D01*
X-5764Y13185D02*
X13665D01*
X-5787Y13161D02*
X-5764Y13185D01*
X-6532Y13161D02*
X-5787D01*
X10480Y2079D02*
X10886D01*
X11280Y2472D01*
X7445Y12051D02*
X8339D01*
X8547Y11843D01*
Y2693D02*
Y11843D01*
X10480Y2079D02*
Y12571D01*
X-32422Y-7119D02*
X-32323Y-7020D01*
X-32930Y-7119D02*
X-32422D01*
X-33256Y-7445D02*
X-32930Y-7119D01*
X-32323Y-8421D02*
Y-7820D01*
Y-8421D02*
X-28894D01*
X-30350Y-7449D02*
X-29874D01*
X-32028Y-5772D02*
X-30350Y-7449D01*
X-32929Y-5772D02*
X-32028D01*
X-32929Y-4972D02*
X-31335D01*
X-30858Y-5449D01*
X-28906D02*
X-28902Y-5445D01*
X-30858Y-5449D02*
X-29874D01*
X-28906D01*
X-28902Y-5445D02*
Y2122D01*
X-28060Y2963D01*
X-15997Y13370D02*
X-15984Y13383D01*
X-19201Y12571D02*
X-19193Y12563D01*
Y11360D02*
Y12563D01*
X-17193Y8860D02*
Y11360D01*
X-13622Y8892D02*
Y11392D01*
X-19774Y11941D02*
X-19193Y11360D01*
X-20055Y11941D02*
X-19774D01*
X-20339Y13370D02*
X-15997D01*
X-15984Y13383D02*
X-7851D01*
X-7059Y12591D01*
X-3591D01*
X-7228Y11925D02*
X-3173D01*
X-3039Y12059D01*
X-1571D01*
X-7071Y11295D02*
X-2587D01*
X-7169Y11197D02*
X-7071Y11295D01*
X-19193Y8860D02*
Y11360D01*
X-22346Y-3811D02*
X-20409D01*
X-22354Y-3819D02*
X-22346Y-3811D01*
X-22354Y-3819D02*
Y-1748D01*
X-28060Y2963D02*
X-22358D01*
X-26713Y-3055D02*
X-26685D01*
X-26677Y-3063D01*
X-22555Y6004D02*
X-21110Y4559D01*
X-22555Y6004D02*
Y11154D01*
X-20339Y13370D01*
X19650Y3626D02*
X20094D01*
X17634Y5764D02*
X18996Y4402D01*
X20213D01*
X21555Y5744D01*
X42276Y-15252D02*
Y-11079D01*
X41500Y-10303D02*
X42276Y-11079D01*
X41500Y-10303D02*
Y-9520D01*
X38520Y-6539D02*
X41500Y-9520D01*
G54D13*
X9547Y1980D02*
Y3327D01*
X9500Y3374D02*
X9547Y3327D01*
X3795Y1551D02*
X4343Y2098D01*
X3795Y831D02*
X4134Y492D01*
X3795Y831D02*
Y1150D01*
Y1551D01*
X2244Y1148D02*
X2994D01*
X2260Y2209D02*
X3503D01*
X705Y1138D02*
X1433D01*
X9547Y854D02*
Y1839D01*
X-27508Y-11850D02*
X-26354D01*
X-28122Y-11236D02*
X-27508Y-11850D01*
X-28122Y-11236D02*
Y-7205D01*
X-28878Y-6449D02*
X-28122Y-7205D01*
X-29874Y-6449D02*
X-28878D01*
X-26354Y-11850D02*
X-19823D01*
X-19673Y-11701D01*
Y-6823D01*
X-22350D02*
X-19673D01*
X-22354Y-6819D02*
X-22350Y-6823D01*
X-3535Y701D02*
Y2921D01*
X-19673Y228D02*
X-19004Y898D01*
X-3732D01*
X-3535Y701D01*
X-27358Y-8819D02*
X-26354D01*
X-27845Y-8332D02*
X-27358Y-8819D01*
X-27845Y-8332D02*
Y-7080D01*
X-28098Y-6827D02*
X-27845Y-7080D01*
X-28098Y-6827D02*
Y-1827D01*
X-24016Y2256D01*
X-20358D01*
X-23587Y-634D02*
X-19673D01*
X-23823Y-398D02*
X-23587Y-634D01*
X-19673Y-6823D02*
Y-634D01*
Y228D01*
G54D14*
X2417Y3189D02*
X2453Y3154D01*
X2417Y3189D02*
Y4181D01*
X-33174Y-9536D02*
X-32323D01*
X-33743Y-8967D02*
X-33174Y-9536D01*
X-33743Y-8967D02*
Y-4495D01*
X-32937Y-3689D01*
X-29693D01*
X-29535Y-3532D01*
Y2102D01*
X-28240Y3398D01*
X-20075D01*
X-19594Y3878D01*
X-20238Y3793D02*
X-19758Y4273D01*
X-28404Y3793D02*
X-20238D01*
X-29930Y2266D02*
X-28404Y3793D01*
X-29930Y-630D02*
Y2266D01*
X-30374Y-1074D02*
X-29930Y-630D01*
X-32937Y-6402D02*
Y-5780D01*
X-32929Y-5772D01*
X4417Y10181D02*
Y11898D01*
X3189Y8953D02*
X4417Y10181D01*
X-11850Y8953D02*
X3189D01*
X-13882Y6921D02*
X-11850Y8953D01*
X-13882Y6268D02*
Y6921D01*
X-19594Y3878D02*
X-9665D01*
X-19758Y4273D02*
X-9829D01*
X-9665Y3878D02*
X-7354Y6189D01*
X-9829Y4273D02*
X-7518Y6584D01*
X2417Y4181D02*
Y5516D01*
X1744Y6189D02*
X2417Y5516D01*
X-7354Y6189D02*
X1744D01*
X-7518Y6584D02*
X2014D01*
X3429Y5169D01*
Y3118D02*
Y5169D01*
X-25185Y-9480D02*
Y453D01*
X-25524Y-9819D02*
X-25185Y-9480D01*
X-26354Y-9819D02*
X-25524D01*
X-26839D02*
X-26354D01*
X-26862Y-9795D02*
X-26839Y-9819D01*
X-18669Y1721D02*
X-18642Y1748D01*
X-20271Y1721D02*
X-18669D01*
X-21469Y524D02*
X-20271Y1721D01*
X-25185Y453D02*
X-24122Y1516D01*
X-21949D02*
X-21681Y1783D01*
X-24122Y1516D02*
X-21949D01*
X-34303Y-5768D02*
Y-1803D01*
X-33574Y-1074D01*
X-30374D01*
G54D15*
X-20374Y-11059D02*
X-20974D01*
Y-10759D01*
X-20874Y-10659D01*
X-20674D01*
X-20574Y-10759D01*
Y-11059D01*
Y-10859D02*
X-20374Y-10659D01*
Y-10159D02*
Y-10359D01*
X-20474Y-10459D01*
X-20674D01*
X-20774Y-10359D01*
Y-10159D01*
X-20674Y-10059D01*
X-20574D01*
Y-10459D01*
X-20174Y-9660D02*
Y-9560D01*
X-20274Y-9460D01*
X-20774D01*
Y-9759D01*
X-20674Y-9859D01*
X-20474D01*
X-20374Y-9759D01*
Y-9460D01*
X-20974Y-9260D02*
X-20374D01*
Y-8960D01*
X-20474Y-8860D01*
X-20874D01*
X-20974Y-8960D01*
Y-9260D01*
X-20374Y-8360D02*
Y-8560D01*
X-20474Y-8660D01*
X-20674D01*
X-20774Y-8560D01*
Y-8360D01*
X-20674Y-8260D01*
X-20574D01*
Y-8660D01*
X-20774Y-7660D02*
Y-7960D01*
X-20674Y-8060D01*
X-20474D01*
X-20374Y-7960D01*
Y-7660D01*
X-34567Y-10412D02*
Y-11012D01*
X-34267D01*
X-34167Y-10912D01*
Y-10812D01*
X-34267Y-10712D01*
X-34567D01*
X-34267D01*
X-34167Y-10612D01*
Y-10512D01*
X-34267Y-10412D01*
X-34567D01*
X-33967Y-11012D02*
X-33767D01*
X-33867D01*
Y-10412D01*
X-33967D01*
X-33467Y-10612D02*
Y-10912D01*
X-33367Y-11012D01*
X-33067D01*
Y-10612D01*
X-32568Y-11012D02*
X-32768D01*
X-32867Y-10912D01*
Y-10712D01*
X-32768Y-10612D01*
X-32568D01*
X-32468Y-10712D01*
Y-10812D01*
X-32867D01*
X-32168Y-10512D02*
Y-10612D01*
X-32268D01*
X-32068D01*
X-32168D01*
Y-10912D01*
X-32068Y-11012D01*
X-31668D02*
X-31468D01*
X-31368Y-10912D01*
Y-10712D01*
X-31468Y-10612D01*
X-31668D01*
X-31768Y-10712D01*
Y-10912D01*
X-31668Y-11012D01*
X-31068D02*
X-30868D01*
X-30768Y-10912D01*
Y-10712D01*
X-30868Y-10612D01*
X-31068D01*
X-31168Y-10712D01*
Y-10912D01*
X-31068Y-11012D01*
X-30468Y-10512D02*
Y-10612D01*
X-30568D01*
X-30368D01*
X-30468D01*
Y-10912D01*
X-30368Y-11012D01*
X-30068Y-10412D02*
Y-11012D01*
Y-10712D01*
X-29968Y-10612D01*
X-29768D01*
X-29669Y-10712D01*
Y-11012D01*
X38928Y-17533D02*
X38831Y-17635D01*
X38835Y-17835D01*
X38937Y-17933D01*
X39037Y-17930D01*
X39135Y-17828D01*
X39130Y-17628D01*
X39228Y-17526D01*
X39328Y-17524D01*
X39430Y-17621D01*
X39435Y-17821D01*
X39337Y-17924D01*
X39421Y-17222D02*
X39417Y-17022D01*
X39315Y-16924D01*
X39115Y-16929D01*
X39017Y-17031D01*
X39021Y-17231D01*
X39124Y-17328D01*
X39324Y-17324D01*
X39421Y-17222D01*
X39410Y-16722D02*
X39010Y-16731D01*
X39003Y-16431D01*
X39101Y-16329D01*
X39401Y-16322D01*
X41200Y-16429D02*
X41594Y-16360D01*
X41362Y-16197D02*
X41432Y-16591D01*
X41496Y-17289D02*
X41380Y-17208D01*
X41183Y-17242D01*
X41102Y-17358D01*
X41172Y-17752D01*
X41287Y-17833D01*
X41484Y-17798D01*
X41565Y-17683D01*
X41531Y-17486D01*
X41334Y-17520D01*
X41780Y-17746D02*
X41676Y-17156D01*
X42173Y-17677D01*
X42069Y-17086D01*
X42266Y-17051D02*
X42370Y-17642D01*
X42666Y-17590D01*
X42747Y-17474D01*
X42677Y-17080D01*
X42562Y-16999D01*
X42266Y-17051D01*
X22238Y-21433D02*
X22138Y-21333D01*
X21939D01*
X21839Y-21433D01*
Y-21533D01*
X21939Y-21633D01*
X22138D01*
X22238Y-21733D01*
Y-21833D01*
X22138Y-21933D01*
X21939D01*
X21839Y-21833D01*
X22438Y-21333D02*
Y-21933D01*
Y-21633D01*
X22538Y-21533D01*
X22738D01*
X22838Y-21633D01*
Y-21933D01*
X23038Y-21533D02*
Y-21833D01*
X23138Y-21933D01*
X23438D01*
Y-21533D01*
X23738Y-21433D02*
Y-21533D01*
X23638D01*
X23838D01*
X23738D01*
Y-21833D01*
X23838Y-21933D01*
X24138Y-21333D02*
Y-21933D01*
X24438D01*
X24538Y-21833D01*
Y-21433D01*
X24438Y-21333D01*
X24138D01*
X24838Y-21933D02*
X25038D01*
X25138Y-21833D01*
Y-21633D01*
X25038Y-21533D01*
X24838D01*
X24738Y-21633D01*
Y-21833D01*
X24838Y-21933D01*
X25337Y-21533D02*
Y-21833D01*
X25437Y-21933D01*
X25537Y-21833D01*
X25637Y-21933D01*
X25737Y-21833D01*
Y-21533D01*
X25937Y-21933D02*
Y-21533D01*
X26237D01*
X26337Y-21633D01*
Y-21933D01*
X26937Y-21333D02*
X26537D01*
Y-21633D01*
X26737D01*
X26537D01*
Y-21933D01*
X27137Y-21533D02*
Y-21833D01*
X27237Y-21933D01*
X27537D01*
Y-21533D01*
X27737Y-21933D02*
X28037D01*
X28137Y-21833D01*
X28037Y-21733D01*
X27837D01*
X27737Y-21633D01*
X27837Y-21533D01*
X28137D01*
X28636Y-21933D02*
X28436D01*
X28336Y-21833D01*
Y-21633D01*
X28436Y-21533D01*
X28636D01*
X28736Y-21633D01*
Y-21733D01*
X28336D01*
X33551Y-17274D02*
Y-17874D01*
Y-17574D01*
X33951D01*
Y-17274D01*
Y-17874D01*
X34151D02*
Y-17274D01*
X34451D01*
X34551Y-17374D01*
Y-17574D01*
X34451Y-17674D01*
X34151D01*
X35650Y-17274D02*
X35451D01*
X35351Y-17374D01*
Y-17774D01*
X35451Y-17874D01*
X35650D01*
X35750Y-17774D01*
Y-17374D01*
X35650Y-17274D01*
X35950Y-17874D02*
Y-17274D01*
X36350Y-17874D01*
Y-17274D01*
X25531Y-14260D02*
X24932D01*
Y-13960D01*
X25032Y-13860D01*
X25232D01*
X25332Y-13960D01*
Y-14260D01*
Y-14060D02*
X25531Y-13860D01*
Y-13360D02*
Y-13560D01*
X25432Y-13660D01*
X25232D01*
X25132Y-13560D01*
Y-13360D01*
X25232Y-13260D01*
X25332D01*
Y-13660D01*
X25731Y-12860D02*
Y-12760D01*
X25631Y-12660D01*
X25132D01*
Y-12960D01*
X25232Y-13060D01*
X25432D01*
X25531Y-12960D01*
Y-12660D01*
X25132Y-12460D02*
X25432D01*
X25531Y-12360D01*
Y-12061D01*
X25132D01*
X25531Y-11861D02*
Y-11661D01*
Y-11761D01*
X24932D01*
Y-11861D01*
X25132Y-11261D02*
Y-11061D01*
X25232Y-10961D01*
X25531D01*
Y-11261D01*
X25432Y-11361D01*
X25332Y-11261D01*
Y-10961D01*
X25032Y-10661D02*
X25132D01*
Y-10761D01*
Y-10561D01*
Y-10661D01*
X25432D01*
X25531Y-10561D01*
Y-9961D02*
Y-10161D01*
X25432Y-10261D01*
X25232D01*
X25132Y-10161D01*
Y-9961D01*
X25232Y-9861D01*
X25332D01*
Y-10261D01*
X25132Y-9661D02*
X25432D01*
X25531Y-9561D01*
Y-9261D01*
X25132D01*
Y-9062D02*
X25531D01*
X25332D01*
X25232Y-8962D01*
X25132Y-8862D01*
Y-8762D01*
X25531Y-7862D02*
X25132D01*
X24932Y-7662D01*
X25132Y-7462D01*
X25531D01*
X25232D01*
Y-7862D01*
X25132Y-7262D02*
X25531D01*
X25332D01*
X25232Y-7162D01*
X25132Y-7062D01*
Y-6962D01*
X24932Y-6262D02*
X25531D01*
Y-6562D01*
X25432Y-6662D01*
X25232D01*
X25132Y-6562D01*
Y-6262D01*
Y-6062D02*
X25432D01*
X25531Y-5963D01*
Y-5663D01*
X25132D01*
X25531Y-5463D02*
Y-5263D01*
Y-5363D01*
X25132D01*
Y-5463D01*
X25531Y-4963D02*
X25132D01*
Y-4663D01*
X25232Y-4563D01*
X25531D01*
Y-4263D02*
Y-4063D01*
X25432Y-3963D01*
X25232D01*
X25132Y-4063D01*
Y-4263D01*
X25232Y-4363D01*
X25432D01*
X25531Y-4263D01*
X25432Y-3163D02*
X25531Y-3063D01*
Y-2864D01*
X25432Y-2764D01*
X25032D01*
X24932Y-2864D01*
Y-3063D01*
X25032Y-3163D01*
X25132D01*
X25232Y-3063D01*
Y-2764D01*
X24932Y-2564D02*
X25332D01*
X25531Y-2364D01*
X25332Y-2164D01*
X24932D01*
X34059Y-13783D02*
X33459D01*
Y-13484D01*
X33559Y-13384D01*
X33759D01*
X33859Y-13484D01*
Y-13783D01*
Y-13584D02*
X34059Y-13384D01*
Y-12884D02*
Y-13084D01*
X33959Y-13184D01*
X33759D01*
X33659Y-13084D01*
Y-12884D01*
X33759Y-12784D01*
X33859D01*
Y-13184D01*
X34259Y-12384D02*
Y-12284D01*
X34159Y-12184D01*
X33659D01*
Y-12484D01*
X33759Y-12584D01*
X33959D01*
X34059Y-12484D01*
Y-12184D01*
X33659Y-11984D02*
X33959D01*
X34059Y-11884D01*
Y-11584D01*
X33659D01*
X34059Y-11384D02*
Y-11184D01*
Y-11284D01*
X33459D01*
Y-11384D01*
X33659Y-10784D02*
Y-10584D01*
X33759Y-10485D01*
X34059D01*
Y-10784D01*
X33959Y-10884D01*
X33859Y-10784D01*
Y-10485D01*
X33559Y-10185D02*
X33659D01*
Y-10285D01*
Y-10085D01*
Y-10185D01*
X33959D01*
X34059Y-10085D01*
Y-9485D02*
Y-9685D01*
X33959Y-9785D01*
X33759D01*
X33659Y-9685D01*
Y-9485D01*
X33759Y-9385D01*
X33859D01*
Y-9785D01*
X33659Y-9185D02*
X33959D01*
X34059Y-9085D01*
Y-8785D01*
X33659D01*
Y-8585D02*
X34059D01*
X33859D01*
X33759Y-8485D01*
X33659Y-8385D01*
Y-8285D01*
X34558Y-12413D02*
X35157D01*
Y-12014D01*
X34558Y-11414D02*
Y-11814D01*
X35157D01*
Y-11414D01*
X34858Y-11814D02*
Y-11614D01*
X34558Y-11214D02*
X35157D01*
Y-10914D01*
X35058Y-10814D01*
X34658D01*
X34558Y-10914D01*
Y-11214D01*
X35058Y-10014D02*
X35157Y-9914D01*
Y-9714D01*
X35058Y-9614D01*
X34658D01*
X34558Y-9714D01*
Y-9914D01*
X34658Y-10014D01*
X34758D01*
X34858Y-9914D01*
Y-9614D01*
X34558Y-9414D02*
X34958D01*
X35157Y-9214D01*
X34958Y-9014D01*
X34558D01*
X-33289Y-2148D02*
X-33489D01*
X-33389D01*
Y-2648D01*
X-33489Y-2748D01*
X-33589D01*
X-33689Y-2648D01*
X-33089Y-2748D02*
Y-2148D01*
X-32889Y-2348D01*
X-32689Y-2148D01*
Y-2748D01*
X-32489D02*
Y-2148D01*
X-32189D01*
X-32089Y-2248D01*
Y-2448D01*
X-32189Y-2548D01*
X-32489D01*
X-31890Y-2148D02*
Y-2748D01*
X-31590D01*
X-31490Y-2648D01*
Y-2548D01*
X-31590Y-2448D01*
X-31890D01*
X-31590D01*
X-31490Y-2348D01*
Y-2248D01*
X-31590Y-2148D01*
X-31890D01*
X-20815Y10470D02*
Y9870D01*
X-20515D01*
X-20415Y9970D01*
Y10070D01*
X-20515Y10170D01*
X-20815D01*
X-20515D01*
X-20415Y10270D01*
Y10370D01*
X-20515Y10470D01*
X-20815D01*
X-20215Y9870D02*
X-20015D01*
X-20115D01*
Y10470D01*
X-20215Y10370D01*
X-13098Y10643D02*
Y10043D01*
X-12799D01*
X-12699Y10143D01*
Y10243D01*
X-12799Y10343D01*
X-13098D01*
X-12799D01*
X-12699Y10443D01*
Y10543D01*
X-12799Y10643D01*
X-13098D01*
X-12099Y10043D02*
X-12499D01*
X-12099Y10443D01*
Y10543D01*
X-12199Y10643D01*
X-12399D01*
X-12499Y10543D01*
X7321Y6201D02*
X7821D01*
X7921Y6301D01*
Y6501D01*
X7821Y6601D01*
X7321D01*
X7421Y7200D02*
X7321Y7100D01*
Y6901D01*
X7421Y6801D01*
X7521D01*
X7621Y6901D01*
Y7100D01*
X7721Y7200D01*
X7821D01*
X7921Y7100D01*
Y6901D01*
X7821Y6801D01*
X7321Y7400D02*
X7921D01*
Y7700D01*
X7821Y7800D01*
X7721D01*
X7621Y7700D01*
Y7400D01*
Y7700D01*
X7521Y7800D01*
X7421D01*
X7321Y7700D01*
Y7400D01*
X-567Y7272D02*
Y7672D01*
X-367Y7871D01*
X-167Y7672D01*
Y7272D01*
Y7572D01*
X-567D01*
X33Y7672D02*
Y7272D01*
Y7472D01*
X133Y7572D01*
X233Y7672D01*
X333D01*
X1033Y7871D02*
Y7272D01*
X733D01*
X633Y7372D01*
Y7572D01*
X733Y7672D01*
X1033D01*
X1232D02*
Y7372D01*
X1332Y7272D01*
X1632D01*
Y7672D01*
X1832Y7272D02*
X2032D01*
X1932D01*
Y7672D01*
X1832D01*
X2332Y7272D02*
Y7672D01*
X2632D01*
X2732Y7572D01*
Y7272D01*
X3032D02*
X3232D01*
X3332Y7372D01*
Y7572D01*
X3232Y7672D01*
X3032D01*
X2932Y7572D01*
Y7372D01*
X3032Y7272D01*
X4132D02*
Y7871D01*
X4531Y7272D01*
Y7871D01*
X4831Y7672D02*
X5031D01*
X5131Y7572D01*
Y7272D01*
X4831D01*
X4731Y7372D01*
X4831Y7472D01*
X5131D01*
X5331Y7272D02*
Y7672D01*
X5631D01*
X5731Y7572D01*
Y7272D01*
X6031D02*
X6231D01*
X6331Y7372D01*
Y7572D01*
X6231Y7672D01*
X6031D01*
X5931Y7572D01*
Y7372D01*
X6031Y7272D01*
X15640Y5972D02*
X16240D01*
X15940D01*
Y6372D01*
X15640D01*
X16240D01*
Y6572D02*
X15640D01*
Y6872D01*
X15740Y6972D01*
X15940D01*
X16040Y6872D01*
Y6572D01*
X15940Y7172D02*
Y7572D01*
X15625Y9909D02*
X16224D01*
X15925D01*
Y10309D01*
X15625D01*
X16224D01*
Y10509D02*
X15625D01*
Y10809D01*
X15725Y10909D01*
X15925D01*
X16024Y10809D01*
Y10509D01*
X15925Y11109D02*
Y11509D01*
X15725Y11309D02*
X16124D01*
X19961Y9476D02*
X19561D01*
X19361Y9676D01*
X19561Y9876D01*
X19961D01*
X19661D01*
Y9476D01*
X19961Y10076D02*
Y10276D01*
Y10176D01*
X19361D01*
Y10076D01*
X19461Y10976D02*
X19361Y10876D01*
Y10676D01*
X19461Y10576D01*
X19861D01*
X19961Y10676D01*
Y10876D01*
X19861Y10976D01*
X19961Y11176D02*
Y11376D01*
Y11276D01*
X19561D01*
Y11176D01*
X20161Y11876D02*
Y11976D01*
X20061Y12076D01*
X19561D01*
Y11776D01*
X19661Y11676D01*
X19861D01*
X19961Y11776D01*
Y12076D01*
X19661Y12275D02*
Y12675D01*
X19461Y12475D02*
X19861D01*
X20043Y5217D02*
X19643D01*
X19444Y5416D01*
X19643Y5616D01*
X20043D01*
X19743D01*
Y5217D01*
X20043Y5816D02*
Y6016D01*
Y5916D01*
X19444D01*
Y5816D01*
X19543Y6716D02*
X19444Y6616D01*
Y6416D01*
X19543Y6316D01*
X19943D01*
X20043Y6416D01*
Y6616D01*
X19943Y6716D01*
X20043Y6916D02*
Y7116D01*
Y7016D01*
X19643D01*
Y6916D01*
X20243Y7616D02*
Y7716D01*
X20143Y7816D01*
X19643D01*
Y7516D01*
X19743Y7416D01*
X19943D01*
X20043Y7516D01*
Y7816D01*
X19743Y8016D02*
Y8415D01*
X42255Y-6780D02*
X42854D01*
Y-6380D01*
X42255Y-5780D02*
Y-6180D01*
X42854D01*
Y-5780D01*
X42554Y-6180D02*
Y-5980D01*
X42255Y-5580D02*
X42854D01*
Y-5280D01*
X42754Y-5180D01*
X42354D01*
X42255Y-5280D01*
Y-5580D01*
X42554Y-4980D02*
Y-4580D01*
X42329Y-2693D02*
X42929D01*
Y-2293D01*
X42329Y-1693D02*
Y-2093D01*
X42929D01*
Y-1693D01*
X42629Y-2093D02*
Y-1893D01*
X42329Y-1493D02*
X42929D01*
Y-1193D01*
X42829Y-1093D01*
X42429D01*
X42329Y-1193D01*
Y-1493D01*
X42629Y-894D02*
Y-494D01*
X42429Y-694D02*
X42829D01*
X-29024Y-13585D02*
Y-14185D01*
X-28624D01*
X-28024Y-13585D02*
X-28424D01*
Y-14185D01*
X-28024D01*
X-28424Y-13885D02*
X-28224D01*
X-27824Y-13585D02*
Y-14185D01*
X-27524D01*
X-27424Y-14085D01*
Y-13685D01*
X-27524Y-13585D01*
X-27824D01*
X-29293Y-14543D02*
X-29393Y-14444D01*
X-29593D01*
X-29693Y-14543D01*
Y-14943D01*
X-29593Y-15043D01*
X-29393D01*
X-29293Y-14943D01*
Y-14743D01*
X-29493D01*
X-28993Y-14643D02*
X-28793D01*
X-28693Y-14743D01*
Y-15043D01*
X-28993D01*
X-29093Y-14943D01*
X-28993Y-14843D01*
X-28693D01*
X-28493Y-14643D02*
Y-14943D01*
X-28393Y-15043D01*
X-28093D01*
Y-14643D01*
X-27494D02*
X-27794D01*
X-27893Y-14743D01*
Y-14943D01*
X-27794Y-15043D01*
X-27494D01*
X-27294Y-14444D02*
Y-15043D01*
Y-14743D01*
X-27194Y-14643D01*
X-26994D01*
X-26894Y-14743D01*
Y-15043D01*
X-26394D02*
X-26594D01*
X-26694Y-14943D01*
Y-14743D01*
X-26594Y-14643D01*
X-26394D01*
X-26294Y-14743D01*
Y-14843D01*
X-26694D01*
X-12965Y2604D02*
Y2004D01*
X-12665D01*
X-12565Y2104D01*
Y2504D01*
X-12665Y2604D01*
X-12965D01*
X-12365Y2404D02*
Y2004D01*
Y2204D01*
X-12265Y2304D01*
X-12165Y2404D01*
X-12065D01*
X-11665Y2004D02*
X-11465D01*
X-11365Y2104D01*
Y2304D01*
X-11465Y2404D01*
X-11665D01*
X-11765Y2304D01*
Y2104D01*
X-11665Y2004D01*
X-11165D02*
X-10965D01*
X-11065D01*
Y2404D01*
X-11165D01*
X-10565Y2504D02*
Y2404D01*
X-10665D01*
X-10465D01*
X-10565D01*
Y2104D01*
X-10465Y2004D01*
X-12528Y3379D02*
Y2780D01*
X-12128D01*
X-11528Y3379D02*
X-11928D01*
Y2780D01*
X-11528D01*
X-11928Y3079D02*
X-11728D01*
X-11328Y3379D02*
Y2780D01*
X-11028D01*
X-10928Y2880D01*
Y3279D01*
X-11028Y3379D01*
X-11328D01*
X11845Y1234D02*
X11445D01*
Y934D01*
X11645Y1034D01*
X11745D01*
X11845Y934D01*
Y734D01*
X11745Y634D01*
X11545D01*
X11445Y734D01*
X12045Y1234D02*
Y834D01*
X12245Y634D01*
X12445Y834D01*
Y1234D01*
X4858Y1465D02*
Y1937D01*
X5016Y1779D01*
X5173Y1937D01*
Y1465D01*
X5409Y1779D02*
X5567D01*
X5645Y1701D01*
Y1465D01*
X5409D01*
X5331Y1543D01*
X5409Y1622D01*
X5645D01*
X5882Y1858D02*
Y1779D01*
X5803D01*
X5960D01*
X5882D01*
Y1543D01*
X5960Y1465D01*
X6196Y1937D02*
Y1465D01*
X6511D01*
X6984Y1937D02*
X6669D01*
Y1465D01*
X6984D01*
X6669Y1701D02*
X6826D01*
X7456Y1937D02*
Y1465D01*
X7220D01*
X7141Y1543D01*
Y1701D01*
X7220Y1779D01*
X7456D01*
X-2146Y1391D02*
Y791D01*
X-1746D01*
X-1146Y1391D02*
X-1546D01*
Y791D01*
X-1146D01*
X-1546Y1091D02*
X-1346D01*
X-946Y1391D02*
Y791D01*
X-646D01*
X-546Y891D01*
Y1291D01*
X-646Y1391D01*
X-946D01*
X-346Y791D02*
X-146D01*
X-246D01*
Y1391D01*
X-346Y1291D01*
X-2201Y2549D02*
Y1949D01*
X-1801D01*
X-1201Y2549D02*
X-1601D01*
Y1949D01*
X-1201D01*
X-1601Y2249D02*
X-1401D01*
X-1001Y2549D02*
Y1949D01*
X-701D01*
X-601Y2049D01*
Y2449D01*
X-701Y2549D01*
X-1001D01*
X-2Y1949D02*
X-401D01*
X-2Y2349D01*
Y2449D01*
X-101Y2549D01*
X-301D01*
X-401Y2449D01*
G54D16*
X835Y3236D02*
X1045D01*
X940Y3341D02*
Y3131D01*
G54D17*
X1424Y2197D02*
D03*
X2424D02*
D03*
X-14555Y10961D02*
D03*
Y9961D02*
D03*
X-1571Y12059D02*
D03*
X-2587Y11295D02*
D03*
X-6587Y2413D02*
D03*
X-5587Y2386D02*
D03*
X35520Y-18602D02*
D03*
X36520D02*
D03*
X-30697Y-2661D02*
D03*
Y-1661D02*
D03*
X20961Y-21717D02*
D03*
Y-20717D02*
D03*
X40228Y-15858D02*
D03*
Y-17858D02*
D03*
Y-16858D02*
D03*
X5409Y2496D02*
D03*
G54D18*
X-19193Y8860D02*
D03*
X-17193D02*
D03*
Y11360D02*
D03*
X-19193D02*
D03*
X6547Y854D02*
D03*
X10547D02*
D03*
X9547D02*
D03*
X8547D02*
D03*
X7547D02*
D03*
X-17185Y6315D02*
D03*
X-16299Y5315D02*
D03*
X-15413Y6315D02*
D03*
G54D19*
X40968Y-343D02*
D03*
X40882Y-4693D02*
D03*
X21555Y12122D02*
D03*
Y7744D02*
D03*
X17646Y12122D02*
D03*
X17634Y7764D02*
D03*
G54D20*
X40968Y-2343D02*
D03*
X40882Y-6693D02*
D03*
X21555Y10122D02*
D03*
Y5744D02*
D03*
X17646Y10122D02*
D03*
X17634Y5764D02*
D03*
G54D21*
X-29874Y-9449D02*
D03*
Y-8449D02*
D03*
Y-7449D02*
D03*
Y-6449D02*
D03*
Y-5449D02*
D03*
Y-4449D02*
D03*
X-5583Y10181D02*
D03*
X-4583D02*
D03*
X-3583D02*
D03*
X-2583D02*
D03*
X-1583D02*
D03*
X-583D02*
D03*
X417D02*
D03*
X1417D02*
D03*
X2417D02*
D03*
X3417D02*
D03*
X4417D02*
D03*
X5417D02*
D03*
X6417D02*
D03*
X7417D02*
D03*
Y4181D02*
D03*
X6417D02*
D03*
X5417D02*
D03*
X4417D02*
D03*
X3417D02*
D03*
X2417D02*
D03*
X1417D02*
D03*
X417D02*
D03*
X-1583D02*
D03*
X-2583D02*
D03*
X-3583D02*
D03*
X-583D02*
D03*
X-4583D02*
D03*
X-5583D02*
D03*
X-6583Y10181D02*
D03*
Y4181D02*
D03*
G54D22*
X-10110Y6555D02*
D03*
Y5555D02*
D03*
X-11110Y6555D02*
D03*
Y5555D02*
D03*
X-12110Y6555D02*
D03*
Y5555D02*
D03*
X-25472Y-14866D02*
D03*
Y-13866D02*
D03*
X-24472Y-14866D02*
D03*
Y-13866D02*
D03*
X-23472Y-14866D02*
D03*
Y-13866D02*
D03*
G54D23*
X-22354Y-3819D02*
D03*
Y-4819D02*
D03*
X-26354Y-10819D02*
D03*
X-22354D02*
D03*
Y-9819D02*
D03*
Y-8819D02*
D03*
Y-7819D02*
D03*
Y-6819D02*
D03*
Y-5819D02*
D03*
X-26354Y-9819D02*
D03*
Y-8819D02*
D03*
Y-7819D02*
D03*
Y-6819D02*
D03*
Y-5819D02*
D03*
Y-4819D02*
D03*
G54D24*
Y-3819D02*
D03*
G54D25*
X22341Y-15308D02*
D03*
X29241Y-15258D02*
D03*
X22391Y542D02*
D03*
X29191D02*
D03*
X31251Y-15422D02*
D03*
X38151Y-15372D02*
D03*
X31301Y428D02*
D03*
X38101D02*
D03*
G54D26*
X22372Y-19256D02*
D03*
X31072D02*
D03*
G54D27*
X-30933Y-13350D02*
D03*
X-32461Y1287D02*
D03*
X-10642Y10831D02*
D03*
X12528Y11287D02*
D03*
X43087Y-9224D02*
D03*
X20701Y-10287D02*
D03*
G54D28*
X9500Y3374D02*
D03*
X4134Y492D02*
D03*
X705Y1138D02*
D03*
X32854Y-18929D02*
D03*
X42276Y-15252D02*
D03*
X41126Y-14594D02*
D03*
X39508Y-14130D02*
D03*
X21126Y1630D02*
D03*
X15366Y5134D02*
D03*
X-6532Y13161D02*
D03*
X11280Y2472D02*
D03*
X8547Y2693D02*
D03*
X7445Y12051D02*
D03*
X10480Y12571D02*
D03*
X-33256Y-7445D02*
D03*
X-28894Y-8421D02*
D03*
X-28843Y-7449D02*
D03*
X-28902Y-5445D02*
D03*
X2453Y3154D02*
D03*
X3429Y3118D02*
D03*
X-34303Y-5768D02*
D03*
X-32937Y-6402D02*
D03*
X-22382Y2866D02*
D03*
X-21110Y4559D02*
D03*
X-20055Y11941D02*
D03*
X-17012Y12528D02*
D03*
X-3657Y12500D02*
D03*
X-7169Y11197D02*
D03*
X-7228Y11925D02*
D03*
X4417Y11898D02*
D03*
X-13882Y6268D02*
D03*
X-3535Y701D02*
D03*
X-3539Y2921D02*
D03*
X-26354Y-11850D02*
D03*
X-20358Y2209D02*
D03*
X-18642Y1748D02*
D03*
X-20409Y-3811D02*
D03*
X-22398Y-1665D02*
D03*
X-21469Y524D02*
D03*
X-21681Y1783D02*
D03*
X-23823Y-398D02*
D03*
X19650Y3626D02*
D03*
M02*
